<?xml version="1.0" encoding="utf-8"?>
<!-- Generator: Adobe Illustrator 17.0.0, SVG Export Plug-In . SVG Version: 6.00 Build 0)  -->
<!DOCTYPE svg PUBLIC "-//W3C//DTD SVG 1.1//EN" "http://www.w3.org/Graphics/SVG/1.1/DTD/svg11.dtd">
<svg version="1.1" id="Layer_1" xmlns="http://www.w3.org/2000/svg" xmlns:xlink="http://www.w3.org/1999/xlink" x="0px" y="0px"
	 width="60px" height="11.429px" viewBox="39.947 47.276 60 11.429" enable-background="new 39.947 47.276 60 11.429"
	 xml:space="preserve">
<g>
	<path fill="#FFFFFF" d="M39.947,58.504v-9.812h5.981v1.549H41.73v2.782h3.682v1.516H41.73v3.965L39.947,58.504L39.947,58.504z"/>
	<path fill="#FFFFFF" d="M51.955,52.59c-0.217-0.067-0.466-0.1-0.75-0.1c-1.016,0-2.066,0.716-2.066,2.249v3.765h-1.75v-7.696h1.483
		l0.217,2.099c0.316-1.366,1.2-2.366,3.033-2.266L51.955,52.59z"/>
	<path fill="#FFFFFF" d="M57.883,56.155l1.516,0.45c-0.349,1.566-1.665,2.099-3.149,2.099c-2.099,0-3.531-1.432-3.531-3.965
		c0-2.598,1.383-4.115,3.598-4.115c2.05,0,3.116,1.383,3.116,3.332c0,0.4-0.067,0.783-0.134,1.033h-4.898
		c0.067,1.399,0.716,2.349,1.915,2.349C57.083,57.338,57.633,57.038,57.883,56.155z M57.733,53.857c0.016-0.1,0.016-0.199,0.016-0.3
		c0-0.883-0.567-1.6-1.516-1.6c-1.016,0-1.666,0.716-1.783,1.899L57.733,53.857L57.733,53.857z"/>
	<path fill="#FFFFFF" d="M65.893,56.155l1.515,0.45c-0.349,1.566-1.665,2.099-3.149,2.099c-2.099,0-3.531-1.432-3.531-3.965
		c0-2.598,1.383-4.115,3.598-4.115c2.05,0,3.116,1.383,3.116,3.332c0,0.4-0.067,0.783-0.134,1.033h-4.898
		c0.067,1.399,0.716,2.349,1.915,2.349C65.092,57.338,65.643,57.038,65.893,56.155z M65.743,53.857c0.016-0.1,0.016-0.199,0.016-0.3
		c0-0.883-0.567-1.6-1.516-1.6c-1.016,0-1.666,0.716-1.783,1.899L65.743,53.857L65.743,53.857z"/>
	<path fill="#FFFFFF" d="M77.399,58.238c-0.55,0.316-1.249,0.466-2.032,0.466c-1.433,0-2.316-0.733-2.316-2.265v-4.265h-1.116
		v-1.366h1.116v-1.633l1.766-0.217v1.849h2.282v1.366H74.8v3.898c0,0.816,0.349,1.15,0.983,1.15c0.499,0,0.866-0.15,1.3-0.45
		L77.399,58.238z"/>
	<path fill="#FFFFFF" d="M83.361,52.59c-0.217-0.067-0.466-0.1-0.75-0.1c-1.016,0-2.066,0.716-2.066,2.249v3.765h-1.75v-7.696h1.483
		l0.217,2.099c0.316-1.366,1.2-2.366,3.033-2.266L83.361,52.59z"/>
	<path fill="#FFFFFF" d="M85.807,47.276c0.65,0,1.15,0.417,1.15,1.099c0,0.649-0.499,1.099-1.15,1.099
		c-0.616,0-1.116-0.45-1.116-1.099C84.691,47.693,85.19,47.276,85.807,47.276z M86.69,50.808v7.696h-1.75v-7.696H86.69z"/>
	<path fill="#FFFFFF" d="M94.568,56.522c0,0.55,0.25,0.7,0.566,0.7c0.184,0,0.333-0.034,0.45-0.083v1.316
		c-0.25,0.116-0.567,0.183-0.967,0.183c-0.916,0-1.483-0.383-1.665-1.233c-0.383,0.967-1.249,1.3-2.265,1.3
		c-1.349,0-2.282-0.783-2.282-2.099c0-1.699,1.333-2.665,4.431-2.515v-0.866c0-0.866-0.483-1.232-1.233-1.232
		c-0.75,0-1.199,0.416-1.249,1.199l-1.699-0.284c0.116-1.633,1.532-2.283,3.065-2.283c1.65,0,2.849,0.683,2.849,2.433
		C94.568,53.058,94.568,56.522,94.568,56.522z M92.835,55.156c-1.899-0.049-2.683,0.4-2.683,1.266c0,0.567,0.383,1,1.099,1
		c0.734,0,1.583-0.416,1.583-1.266V55.156z"/>
	<path fill="#FFFFFF" d="M99.896,58.488c-0.4,0.1-0.716,0.15-1.049,0.15c-1.016,0-1.882-0.517-1.882-1.766v-9.495h1.75v9.079
		c0,0.483,0.284,0.666,0.683,0.666c0.217,0,0.383-0.033,0.55-0.083L99.896,58.488z"/>
</g>
</svg>
