<?xml version="1.0" encoding="utf-8"?>
<!-- Generator: Adobe Illustrator 17.0.0, SVG Export Plug-In . SVG Version: 6.00 Build 0)  -->
<!DOCTYPE svg PUBLIC "-//W3C//DTD SVG 1.1//EN" "http://www.w3.org/Graphics/SVG/1.1/DTD/svg11.dtd">
<svg version="1.1" id="Layer_1" xmlns="http://www.w3.org/2000/svg" xmlns:xlink="http://www.w3.org/1999/xlink" x="0px" y="0px"
	 width="52px" height="28.9px" viewBox="0.3 1.4 52 28.9" enable-background="new 0.3 1.4 52 28.9" xml:space="preserve">
<path fill="#FFFFFF" d="M4.5,5.8C5.4,5.9,6,6.5,6,7.4c0,1.1-0.8,1.9-2.4,1.9H0.9V2.4h2.6c1.4,0,2.1,0.6,2.1,1.7
	C5.7,5,5.2,5.5,4.5,5.8z M3.3,5.3c0.6,0,1-0.2,1-0.9c0-0.6-0.4-0.9-1-0.9h-1v1.7h1L3.3,5.3z M2.3,8.1h1.2c0.7,0,1-0.2,1-0.9
	c0-0.5-0.3-0.8-1-0.8H2.3V8.1z M10.3,7.5l1.2,0.4C11.3,9,10.3,9.4,9.3,9.4c-1.5,0-2.5-1-2.5-2.8s1-2.9,2.6-2.9c1.5,0,2.2,1,2.2,2.4
	c0,0.3,0,0.5-0.1,0.7H8.1c0,0.9,0.5,1.5,1.2,1.5C9.8,8.3,10.2,8.1,10.3,7.5z M10.2,6V5.8c0-0.6-0.3-1-1-1c-0.6,0-1,0.5-1.1,1.2
	C8.1,6,10.2,6,10.2,6z M16.7,7.7c0,0.4,0.2,0.5,0.4,0.5c0.1,0,0.2,0,0.3-0.1v1c-0.2,0.1-0.5,0.2-0.8,0.2c-0.7,0-1.1-0.3-1.2-0.9
	c-0.3,0.7-0.9,0.9-1.6,0.9c-1,0-1.6-0.5-1.6-1.5c0-1.2,1-1.9,3.1-1.7V5.6c0-0.5-0.3-0.8-0.7-0.8c-0.5,0-0.7,0.3-0.8,0.8l-1.4-0.2
	c0.1-1.1,1.1-1.6,2.2-1.6c1.2,0,2.1,0.5,2.1,1.7C16.7,5.5,16.7,7.7,16.7,7.7z M15.3,7c-1.2,0-1.7,0.3-1.7,0.8c0,0.4,0.2,0.6,0.7,0.6
	s1-0.2,1-0.8V7z M21.4,8.3c-0.2,0.7-0.7,1.1-1.7,1.1s-1.6-0.5-1.6-1.7V3.9h1.4v3.4c0,0.7,0.2,1,0.8,1c0.5,0,1.1-0.5,1.1-1.5v-3h1.4
	v5.4h-1.2C21.6,9.2,21.4,8.3,21.4,8.3z M27.5,9.1c-0.4,0.2-0.9,0.3-1.5,0.3c-1,0-1.7-0.5-1.7-1.7V5h-0.8V3.9h0.8V2.7l1.4-0.2v1.3
	h1.6V5h-1.6v2.5c0,0.6,0.2,0.8,0.7,0.8c0.3,0,0.6-0.1,0.9-0.3L27.5,9.1z M28.9,1.4c0.5,0,0.9,0.3,0.9,0.8S29.4,3,28.9,3
	S28,2.7,28,2.2C28.1,1.7,28.5,1.4,28.9,1.4z M29.6,3.9v5.4h-1.4V3.9C28.2,3.9,29.6,3.9,29.6,3.9z M30.4,5V3.9h0.8V3.4
	c0-1.5,0.9-2,2.1-2c0.5,0,0.9,0.1,1.2,0.2l-0.2,1.2c-0.3-0.2-0.5-0.2-0.9-0.2c-0.5,0-0.8,0.2-0.8,0.9v0.4H34V5h-1.4v4.3h-1.4V5
	C31.2,5,30.4,5,30.4,5z M37.8,8.3C37.5,9,37,9.4,36.1,9.4c-1,0-1.6-0.5-1.6-1.7V3.9h1.4v3.4c0,0.7,0.2,1,0.8,1
	c0.5,0,1.1-0.5,1.1-1.5v-3h1.4v5.4H38C38,9.2,37.8,8.3,37.8,8.3z M42.6,9.2c-0.3,0.1-0.6,0.1-0.8,0.1c-0.7,0-1.4-0.4-1.4-1.3V1.5
	h1.4v6.2c0,0.3,0.2,0.5,0.5,0.5c0.1,0,0.3,0,0.4-0.1C42.7,8.1,42.6,9.2,42.6,9.2z M4.8,18.2c0,0.4,0.2,0.5,0.4,0.5
	c0.1,0,0.2,0,0.3-0.1v1c-0.2,0.1-0.5,0.2-0.8,0.2c-0.7,0-1.1-0.3-1.2-0.9c-0.3,0.7-0.9,0.9-1.6,0.9c-1,0-1.6-0.5-1.6-1.5
	c0-1.2,1-1.9,3.1-1.7V16c0-0.5-0.3-0.8-0.7-0.8c-0.5,0-0.7,0.3-0.8,0.8l-1.4-0.2c0.1-1.1,1.1-1.6,2.2-1.6c1.2,0,2.1,0.5,2.1,1.7
	C4.8,15.9,4.8,18.2,4.8,18.2z M3.4,17.4c-1.2,0-1.7,0.3-1.7,0.8c0,0.4,0.2,0.6,0.7,0.6s1-0.2,1-0.8V17.4z M10.8,18.3
	c-0.2,1.1-1.1,1.6-2.2,1.6C7,19.8,6,18.8,6,17s1-2.8,2.6-2.8c1.2,0,2,0.7,2.1,1.7l-1.2,0.3c-0.1-0.6-0.4-0.9-0.9-0.9
	c-0.8,0-1.2,0.7-1.2,1.7c0,1.1,0.5,1.7,1.2,1.7c0.5,0,0.8-0.2,1-0.8C9.6,17.9,10.8,18.3,10.8,18.3z M16,18.3
	c-0.2,1.1-1.1,1.6-2.2,1.6c-1.5,0-2.5-1-2.5-2.8s1-2.8,2.6-2.8c1.2,0,2,0.7,2.1,1.7l-1.2,0.3c-0.1-0.6-0.4-0.9-0.9-0.9
	c-0.8,0-1.2,0.7-1.2,1.7c0,1.1,0.5,1.7,1.2,1.7c0.5,0,0.8-0.2,1-0.8C14.9,18,16,18.3,16,18.3z M16.6,17c0-1.8,1-2.8,2.6-2.8
	s2.6,1,2.6,2.8s-1,2.9-2.6,2.9S16.6,18.8,16.6,17z M18,17c0,1.2,0.4,1.8,1.2,1.8c0.8,0,1.2-0.6,1.2-1.8s-0.4-1.7-1.2-1.7
	C18.4,15.3,18,15.8,18,17z M25.9,18.7c-0.2,0.7-0.7,1.1-1.7,1.1s-1.6-0.5-1.6-1.7v-3.8H24v3.4c0,0.7,0.2,1,0.8,1
	c0.5,0,1.1-0.5,1.1-1.5v-3h1.4v5.4h-1.2L25.9,18.7z M29.9,15.3c0.3-0.8,0.9-1.2,1.7-1.2c0.9,0,1.6,0.5,1.6,1.7v3.8h-1.4v-3.3
	c0-0.6-0.2-1-0.8-1c-0.6,0-1.1,0.3-1.1,1.3v3h-1.4v-5.4h1.2C29.7,14.2,29.9,15.3,29.9,15.3z M37.9,19.5c-0.4,0.2-0.9,0.3-1.5,0.3
	c-1,0-1.7-0.5-1.7-1.7v-2.8h-0.8v-1.1h0.8v-1.1l1.4-0.2v1.3h1.6v1.1h-1.6v2.5c0,0.6,0.2,0.8,0.7,0.8c0.3,0,0.6-0.1,0.9-0.3
	C37.7,18.3,37.9,19.5,37.9,19.5z M39.4,11.8c0.5,0,0.9,0.3,0.9,0.8s-0.4,0.8-0.9,0.8s-0.9-0.3-0.9-0.8S38.9,11.8,39.4,11.8z
	 M40.1,14.3v5.4h-1.4v-5.4C38.7,14.3,40.1,14.3,40.1,14.3z M42.7,15.3c0.3-0.8,0.9-1.2,1.7-1.2c0.9,0,1.6,0.5,1.6,1.7v3.8h-1.4v-3.3
	c0-0.6-0.2-1-0.8-1s-1.1,0.3-1.1,1.3v3h-1.4v-5.4h1.2C42.5,14.2,42.7,15.3,42.7,15.3z M50.8,14.5c0.2-0.2,0.3-0.4,0.4-0.8l1.1,0.4
	c-0.1,0.5-0.5,0.9-0.9,1c0.2,0.3,0.2,0.6,0.2,1c0,1.2-1.1,1.9-2.4,1.9c-0.3,0-0.5,0-0.7-0.1c-0.2,0.1-0.3,0.3-0.3,0.5
	s0.2,0.4,0.5,0.4h1.5c1.2,0,1.9,0.6,1.9,1.6c0,1.5-1.6,1.9-3.1,1.9c-1.3,0-2.5-0.3-2.5-1.4c0-0.7,0.5-1.1,1.4-1.1
	c-0.5,0-0.8-0.5-0.8-0.9s0.3-0.9,0.9-1c-0.7-0.3-1.1-0.8-1.1-1.6c0-1.2,0.9-1.9,2.3-1.9C49.8,14.2,50.4,14.3,50.8,14.5z M49.2,21.2
	c1.1,0,1.6-0.2,1.6-0.7c0-0.3-0.2-0.5-0.7-0.5h-1.3c-0.5,0-0.9,0.2-0.9,0.6C47.8,21,48.3,21.2,49.2,21.2z M49.2,17
	c0.6,0,0.9-0.3,0.9-0.9s-0.3-0.9-0.9-0.9c-0.6,0-0.9,0.3-0.9,0.9C48.3,16.6,48.6,17,49.2,17z M1.4,28.4c0.1,0.6,0.5,0.8,1.1,0.8
	c0.5,0,0.9-0.2,0.9-0.5S3.2,28.2,2.7,28l-0.8-0.2c-1-0.2-1.4-0.8-1.4-1.6c0-1.3,1.1-1.7,2.1-1.7c1.2,0,2,0.4,2.1,1.5l-1.3,0.2
	c0-0.5-0.3-0.6-0.8-0.6c-0.4,0-0.7,0.2-0.7,0.5s0.2,0.5,0.6,0.6l0.8,0.2c1,0.2,1.6,0.8,1.6,1.7c0,1.2-1,1.6-2.2,1.6
	c-1.3,0-2.1-0.4-2.2-1.4L1.4,28.4z M5.3,27.4c0-1.8,1-2.8,2.6-2.8s2.6,1,2.6,2.8s-1,2.9-2.6,2.9S5.3,29.2,5.3,27.4z M6.7,27.4
	c0,1.2,0.4,1.8,1.2,1.8s1.2-0.6,1.2-1.8c0-1.2-0.4-1.7-1.2-1.7S6.7,26.2,6.7,27.4z M10.9,25.8v-1.1h0.8v-0.5c0-1.5,0.9-2,2.1-2
	c0.5,0,0.9,0.1,1.2,0.2l-0.2,1.2c-0.3-0.2-0.5-0.2-0.9-0.2c-0.5,0-0.8,0.2-0.8,0.9v0.4h1.4v1.1h-1.4v4.3h-1.4v-4.3H10.9z M18.7,29.9
	c-0.4,0.2-0.9,0.3-1.5,0.3c-1,0-1.7-0.5-1.7-1.7v-2.8h-0.8v-1.1h0.8v-1.1l1.4-0.2v1.3h1.6v1.1h-1.6v2.5c0,0.6,0.2,0.8,0.7,0.8
	c0.3,0,0.6-0.1,0.9-0.3C18.5,28.7,18.7,29.9,18.7,29.9z M24.3,27.1c0.3,1.1,0.4,2,0.4,2s0-0.9,0.3-2l0.6-2.4H27l-1.4,5.4h-1.7
	L23.3,28c-0.2-0.9-0.3-1.7-0.3-1.7s-0.1,0.8-0.3,1.7l-0.5,2.1h-1.6L19,24.7h1.4l0.6,2.4c0.3,1.1,0.3,2,0.3,2s0.1-0.9,0.3-2l0.6-2.4
	h1.3C23.5,24.7,24.3,27.1,24.3,27.1z M31.7,28.6c0,0.4,0.2,0.5,0.4,0.5c0.1,0,0.2,0,0.3-0.1v1c-0.2,0.1-0.5,0.2-0.8,0.2
	c-0.7,0-1.1-0.3-1.2-0.9c-0.3,0.7-0.9,0.9-1.6,0.9c-1,0-1.6-0.5-1.6-1.5c0-1.2,1-1.9,3.1-1.7v-0.6c0-0.5-0.3-0.8-0.7-0.8
	c-0.5,0-0.7,0.3-0.8,0.8l-1.4-0.2c0.1-1.1,1.1-1.6,2.2-1.6c1.2,0,2.1,0.5,2.1,1.7C31.7,26.3,31.7,28.6,31.7,28.6z M30.3,27.8
	c-1.2,0-1.7,0.3-1.7,0.8c0,0.4,0.2,0.6,0.7,0.6s1-0.2,1-0.8V27.8z M36.6,26.1c-0.2,0-0.3-0.1-0.6-0.1c-0.7,0-1.4,0.4-1.4,1.5v2.6
	h-1.4v-5.4h1.2l0.2,1.5c0.2-0.9,0.8-1.7,2.1-1.6L36.6,26.1z M40.8,28.4l1.2,0.4c-0.3,1.1-1.2,1.5-2.3,1.5c-1.5,0-2.5-1-2.5-2.8
	s1-2.9,2.6-2.9c1.5,0,2.2,1,2.2,2.4c0,0.3,0,0.5-0.1,0.7h-3.4c0,0.9,0.5,1.5,1.2,1.5C40.2,29.2,40.6,29,40.8,28.4z M40.6,26.8v-0.2
	c0-0.6-0.3-1-1-1c-0.6,0-1,0.5-1.1,1.2H40.6z"/>
</svg>
