<svg xmlns="http://www.w3.org/2000/svg" viewBox="-357 355.1 210.9 92.7"><g fill="#FFF"><path d="M-343.2 375.4v-15.6h-5.2v-2h12.9v2h-5.3v15.6h-2.4zm12.5-11.2c.6-1.9 2-3 4.1-3 2.3 0 4.3 1.3 4.3 4.3v9.9h-2.3V366c0-1.7-.9-2.8-2.6-2.8-1.8 0-3.5 1-3.5 4.1v8.1h-2.3v-20h2.3v8.8zm21.2 7.4l2 .5c-.5 2.8-2.8 3.7-5.4 3.7-3.6 0-6-2.5-6-7.2 0-4.6 2.4-7.3 6.2-7.3 3.5 0 5.4 2.4 5.4 5.8 0 .8-.1 1.6-.3 1.9h-9.1c.1 2.9 1.5 5 4 5 1.7 0 2.7-.7 3.2-2.4zm-.1-4.4v-.6c0-1.9-1.3-3.5-3.3-3.5-2.1 0-3.5 1.4-3.8 4.1h7.1zm25.5-9.4v11.9c0 4.6-3.4 6.1-6.7 6.1s-6.6-1.6-6.6-6.1v-11.9h2.3v11.3c0 3.4 1.7 4.8 4.3 4.8 2.6 0 4.3-1.3 4.3-4.7v-11.4h2.4zm14.1 17.6l-5.8-7.9h-1.5v7.9h-2.3v-17.7h2.3v7.7h1.6l5.4-7.7h2.8l-6.3 8.6 6.8 9.1h-3zm4.4-13.7v-1.2c1.4-.2 2.3-.9 2.3-2.2-1.2.2-2-.5-2-1.5s.7-1.7 1.8-1.7 2.1.9 2.1 2.4c0 2.8-1.6 4-4.2 4.2zm6.6 10.1c.2 1.6 1.3 2.3 3.1 2.3 1.7 0 3-.7 3-2.1 0-1.2-.5-1.9-2.3-2.4l-2-.5c-2.5-.6-3.4-1.9-3.4-3.9 0-3 2.5-4.1 5-4.1 2.8 0 4.5 1 4.8 3.7l-2.2.2c-.1-1.5-1-2.2-2.7-2.2-1.7 0-2.7.8-2.7 2.1 0 1.1.4 1.8 2.1 2.2l1.9.5c2.3.6 3.8 1.6 3.8 4.1 0 2.9-2.3 4-5.2 4-3.1 0-4.8-1-5.2-3.4l2-.5zm22.5 3.7c-.7.2-1 .2-1.5.2-1.7 0-2.9-.9-2.9-2.8v-17.4h2.3v17.1c0 .9.5 1.3 1.2 1.3.4 0 .6-.1.9-.1v1.7zm11.5-3.9l2 .5c-.5 2.8-2.8 3.7-5.4 3.7-3.6 0-6-2.5-6-7.2 0-4.6 2.4-7.3 6.2-7.3 3.5 0 5.4 2.4 5.4 5.8 0 .8-.1 1.6-.3 1.9h-9.1c.2 2.9 1.5 5 4 5 1.6 0 2.7-.7 3.2-2.4zm-.1-4.4v-.6c0-1.9-1.3-3.5-3.3-3.5-2.1 0-3.5 1.4-3.8 4.1h7.1zm15.3 5.3c0 1.1.5 1.3 1.1 1.3.3 0 .5 0 .8-.1v1.8c-.3.1-.7.2-1.2.2-1.5 0-2.5-.7-2.7-2.2-.7 1.7-2.4 2.4-4.1 2.4-2.4 0-4.2-1.4-4.2-3.7 0-3.1 2.3-4.9 8.1-4.6v-1.9c0-1.9-1.2-2.5-2.8-2.5-1.6 0-2.7.8-2.8 2.3l-2.1-.3c.2-2.9 2.8-3.9 5.2-3.9 2.4 0 4.8 1 4.8 4.2v7zm-2.2-3.4c-4-.1-5.8.8-5.8 2.7 0 1.3.8 2.2 2.4 2.2 1.6 0 3.4-1 3.4-2.7v-2.2zm16-13.7h2.3v20h-2l-.3-2.4c-.8 2.1-2.5 2.8-4.4 2.8-2.8 0-5.5-2.3-5.5-7.1 0-4.7 2.2-7.5 6.2-7.5 1.8 0 3.3 1 3.7 2.2v-8zm0 11.4c0-2.6-2-3.7-3.7-3.7-2.2 0-4 1.5-4 5.6 0 3.4 1.5 5.3 3.9 5.3 1.6 0 3.7-1.3 3.7-4v-3.2zm7.9-11.4c.9 0 1.7.7 1.7 1.6 0 .9-.8 1.6-1.7 1.6-.9 0-1.6-.8-1.6-1.6s.8-1.6 1.6-1.6zm1.2 6.2v13.9h-2.3v-13.9h2.3zm6.5 2.7c.8-2.1 2.3-3 4.4-3 2.3 0 4.3 1.3 4.3 4.3v9.9h-2.3v-9.4c0-1.8-.9-2.9-2.6-2.9-1.8 0-3.5 1-3.5 4.1v8.1h-2.3v-13.9h1.7l.3 2.8zm21.6-1.8c.7-.3.9-1.1 1.1-2.1l2 .7c-.2 1.3-1.1 2.2-2.2 2.5.5.7.7 1.6.7 2.6 0 3.2-2.5 4.8-5.5 4.8-.7 0-1.4-.1-1.8-.2-.8.4-1 .9-1 1.5 0 .9.6 1.3 1.6 1.3h3.2c3.1 0 4.8 1.3 4.8 3.8 0 3.5-3.8 4.5-7.3 4.5-3 0-5.9-.8-5.9-3.7 0-1.8 1.3-3.1 3.5-3.3-1.2-.1-1.8-1-1.8-2.1s.5-1.9 2-2.3c-1.6-.7-2.6-2.2-2.6-4.2 0-3.1 2.2-4.9 5.4-4.9 1.4-.1 2.8.2 3.8 1.1zm-4.4 17.6c2.8 0 5-.6 5-2.5 0-1.1-.6-2.1-2.6-2.1h-2.8c-2.2 0-3.5.8-3.5 2.4 0 1.7 1.7 2.2 3.9 2.2zm.4-10.8c2 0 3.3-1 3.3-3.1s-1.3-3.2-3.3-3.2c-2 0-3.2 1.1-3.2 3.2-.1 1.8 1.2 3.1 3.2 3.1zM-357 404.4c0-4.7 2.4-7.2 6.2-7.2 3.7 0 6.2 2.5 6.2 7.2s-2.4 7.4-6.2 7.4c-3.8 0-6.2-2.6-6.2-7.4zm2.3 0c0 3.7 1.3 5.6 3.9 5.6s3.9-1.9 3.9-5.6c0-3.6-1.4-5.3-3.9-5.3-2.6 0-3.9 1.7-3.9 5.3zm15.7-4.1c.8-2.1 2.3-3 4.4-3 2.3 0 4.3 1.3 4.3 4.3v9.9h-2.3v-9.4c0-1.8-.9-2.8-2.6-2.8-1.8 0-3.5 1-3.5 4.1v8.1h-2.3v-13.9h1.7l.3 2.7zm17.3 11.2c-.7.2-1 .2-1.5.2-1.7 0-2.9-.9-2.9-2.8v-17.4h2.3v17.1c0 .9.5 1.3 1.2 1.3.4 0 .6-.1.9-.1v1.7zm4.4-20.1c.9 0 1.6.7 1.6 1.6 0 .9-.8 1.6-1.6 1.6-.9 0-1.6-.8-1.6-1.6s.7-1.6 1.6-1.6zm1.1 6.2v13.9h-2.3v-13.9h2.3zm6.5 2.7c.8-2.1 2.3-3 4.4-3 2.3 0 4.3 1.3 4.3 4.3v9.9h-2.3v-9.4c0-1.8-.9-2.8-2.6-2.8-1.8 0-3.5 1-3.5 4.1v8.1h-2.3v-13.9h1.7l.3 2.7zm21.6 7.3l2 .5c-.5 2.8-2.8 3.8-5.4 3.8-3.6 0-6-2.5-6-7.2 0-4.6 2.4-7.3 6.2-7.3 3.5 0 5.4 2.4 5.4 5.8 0 .8-.1 1.6-.3 1.9h-9.1c.1 2.9 1.5 5 4 5 1.6-.1 2.7-.8 3.2-2.5zm-.1-4.4v-.6c0-1.9-1.3-3.5-3.3-3.5-2.1 0-3.5 1.4-3.8 4.1h7.1zm21.8 5.3c0 1.1.5 1.3 1.1 1.3.3 0 .5 0 .8-.1v1.8c-.3.1-.7.2-1.2.2-1.5 0-2.5-.7-2.7-2.2-.7 1.7-2.4 2.4-4.1 2.4-2.4 0-4.2-1.4-4.2-3.7 0-3.1 2.3-4.9 8.1-4.6v-1.9c0-1.9-1.2-2.5-2.8-2.5-1.6 0-2.7.8-2.8 2.3l-2.1-.3c.2-2.9 2.8-3.9 5.2-3.9 2.4 0 4.8 1 4.8 4.2v7zm-2.3-3.4c-4-.1-5.8.8-5.8 2.7 0 1.3.8 2.2 2.4 2.2 1.6 0 3.4-1 3.4-2.7v-2.2zm17.4 2.9c-.4 2.8-2.6 3.8-5.3 3.8-3.5 0-5.9-2.5-5.9-7.2 0-4.6 2.4-7.3 6.2-7.3 2.8 0 4.7 1.5 4.9 4.3l-2.1.3c-.3-1.8-1.3-2.7-2.9-2.7-2.5 0-3.8 2.3-3.8 5.5 0 3.1 1.6 5.3 4 5.3 1.6 0 2.7-.8 3.1-2.4l1.8.4zm13.7 0c-.4 2.8-2.6 3.8-5.3 3.8-3.5 0-5.9-2.5-5.9-7.2 0-4.6 2.4-7.3 6.2-7.3 2.8 0 4.7 1.5 4.9 4.3l-2.1.3c-.3-1.8-1.3-2.7-2.9-2.7-2.5 0-3.8 2.3-3.8 5.5 0 3.1 1.6 5.3 4 5.3 1.6 0 2.7-.8 3.1-2.4l1.8.4zm2.4-3.6c0-4.7 2.4-7.2 6.2-7.2s6.2 2.5 6.2 7.2-2.4 7.4-6.2 7.4-6.2-2.6-6.2-7.4zm2.2 0c0 3.7 1.3 5.6 3.9 5.6 2.6 0 3.9-1.9 3.9-5.6 0-3.6-1.3-5.3-3.9-5.3s-3.9 1.7-3.9 5.3zm22 4.6c-.7 2.1-2.2 2.8-4.3 2.8-2.5 0-4.2-1.3-4.2-4.6v-9.6h2.3v9.4c0 2.2.8 3.2 2.7 3.2 1.6 0 3.4-1.4 3.4-4.1v-8.4h2.3v13.9h-2l-.2-2.6zm8.7-8.7c.8-2.1 2.3-3 4.4-3 2.3 0 4.3 1.3 4.3 4.3v9.9h-2.3v-9.4c0-1.8-.9-2.8-2.6-2.8-1.8 0-3.5 1-3.5 4.1v8.1h-2.3v-13.9h1.7l.3 2.7zm20 10.7c-.8.5-1.9.8-3.1.8-2.4 0-3.8-1.3-3.8-3.7v-8.7h-2v-1.8h2v-2.9l2.3-.3v3.2h4.1v1.8h-4.1v8.2c0 1.5.7 2.2 1.9 2.2.9 0 1.5-.2 2.3-.7l.4 1.9zm3.8-19.6c.9 0 1.7.7 1.7 1.6 0 .9-.8 1.6-1.7 1.6-.9 0-1.6-.8-1.6-1.6s.7-1.6 1.6-1.6zm1.2 6.2v13.9h-2.3v-13.9h2.3zm6.5 2.7c.8-2.1 2.3-3 4.4-3 2.3 0 4.3 1.3 4.3 4.3v9.9h-2.3v-9.4c0-1.8-.9-2.8-2.6-2.8-1.8 0-3.5 1-3.5 4.1v8.1h-2.3v-13.9h1.7l.3 2.7zm21.6-1.8c.7-.3.9-1.1 1.1-2.1l2 .7c-.2 1.3-1.1 2.2-2.2 2.5.5.7.7 1.6.7 2.6 0 3.2-2.5 4.8-5.5 4.8-.7 0-1.4-.1-1.8-.2-.8.4-1 .9-1 1.5 0 .9.6 1.3 1.6 1.3h3.2c3.1 0 4.8 1.3 4.8 3.8 0 3.5-3.8 4.5-7.3 4.5-3 0-5.9-.8-5.9-3.7 0-1.8 1.3-3.1 3.5-3.3-1.2-.1-1.8-1-1.8-2.1s.5-2 2-2.3c-1.7-.7-2.6-2.2-2.6-4.2 0-3.1 2.2-4.9 5.4-4.9 1.4-.1 2.8.2 3.8 1.1zm-4.4 17.6c2.8 0 5-.6 5-2.5 0-1.1-.6-2.1-2.6-2.1h-2.8c-2.2 0-3.5.8-3.5 2.4 0 1.7 1.7 2.2 3.9 2.2zm.3-10.8c2 0 3.3-1 3.3-3.2 0-2.1-1.3-3.2-3.3-3.2-2 0-3.2 1.1-3.2 3.2 0 1.9 1.2 3.2 3.2 3.2zm-143.8 38.5c.2 1.6 1.3 2.3 3.1 2.3 1.7 0 3-.7 3-2.1 0-1.2-.5-2-2.3-2.4l-2-.5c-2.5-.6-3.4-1.9-3.4-3.9 0-3 2.5-4.1 5-4.1 2.8 0 4.5 1 4.8 3.7l-2.2.2c-.1-1.5-1-2.2-2.7-2.2-1.7 0-2.7.8-2.7 2.1 0 1.1.4 1.8 2.1 2.2l1.9.5c2.3.6 3.8 1.6 3.8 4.1 0 2.9-2.3 4-5.2 4-3.1 0-4.8-1-5.2-3.5l2-.4zm10.6-3.4c0-4.7 2.4-7.2 6.2-7.2 3.7 0 6.2 2.5 6.2 7.2s-2.4 7.4-6.2 7.4c-3.7 0-6.2-2.6-6.2-7.4zm2.3 0c0 3.7 1.3 5.6 3.9 5.6s3.9-1.9 3.9-5.6c0-3.6-1.4-5.3-3.9-5.3-2.6 0-3.9 1.7-3.9 5.3zm11.9-5v-1.8h2v-1.7c0-3.5 2.2-4.6 4.5-4.6 1 0 1.9.2 2.7.5l-.5 2c-.7-.4-1.3-.6-2.2-.6-1.4 0-2.3.8-2.3 2.8v1.6h3.5v1.8h-3.5v12h-2.3v-12h-1.9z"/><path d="M-255.4 447c-.8.5-1.9.8-3.1.8-2.4 0-3.8-1.3-3.8-3.7v-8.7h-2v-1.8h2v-2.9l2.3-.3v3.2h4.1v1.8h-4.1v8.2c0 1.5.7 2.2 1.9 2.2.9 0 1.5-.2 2.3-.7l.4 1.9zm13.6-5.6c.8 2.8.9 4.5.9 4.5h.1s.1-1.7.8-4.5l2-7.8h2.3l-3.8 13.9h-2.7l-2-7.1c-.8-2.8-.9-4.3-.9-4.3h-.1s-.1 1.6-.9 4.3l-1.9 7.1h-2.7l-3.9-13.9h2.4l2 7.7c.8 2.8.9 4.5.9 4.5h.1s.1-1.8.8-4.5l2.1-7.7h2.3l2.2 7.8zm18.2 3.1c0 1.1.5 1.3 1 1.3.3 0 .5 0 .8-.1v1.8c-.3.1-.7.2-1.2.2-1.5 0-2.5-.7-2.7-2.2-.7 1.7-2.4 2.4-4.1 2.4-2.4 0-4.2-1.4-4.2-3.7 0-3.1 2.3-4.9 8.1-4.6v-1.9c0-1.9-1.2-2.5-2.8-2.5-1.7 0-2.7.8-2.8 2.3l-2.1-.3c.2-2.9 2.8-3.9 5.2-3.9 2.4 0 4.8 1 4.8 4.2v7zm-2.2-3.4c-4-.1-5.8.8-5.8 2.7 0 1.3.8 2.2 2.4 2.2 1.6 0 3.4-1 3.4-2.7v-2.2zm14.4-5.2c-.3-.1-.7-.1-1.1-.1-2.1 0-3.9 1.8-3.9 4.4v7.2h-2.3v-13.9h1.9l.3 3.7c.5-2.5 2.4-4.1 5.3-4l-.2 2.7zm10.7 7.7l2 .5c-.5 2.8-2.8 3.8-5.4 3.8-3.6 0-6-2.5-6-7.2 0-4.6 2.4-7.3 6.2-7.3 3.5 0 5.4 2.4 5.4 5.8 0 .8-.1 1.6-.3 1.9h-9.1c.2 2.9 1.5 5 4 5 1.6-.1 2.7-.8 3.2-2.5zm-.1-4.4v-.6c0-1.9-1.3-3.5-3.3-3.5-2.1 0-3.5 1.4-3.8 4.1h7.1z"/></g></svg>