<?xml version="1.0" encoding="utf-8"?>
<!-- Generator: Adobe Illustrator 17.0.0, SVG Export Plug-In . SVG Version: 6.00 Build 0)  -->
<!DOCTYPE svg PUBLIC "-//W3C//DTD SVG 1.1//EN" "http://www.w3.org/Graphics/SVG/1.1/DTD/svg11.dtd">
<svg version="1.1" id="Layer_1" xmlns="http://www.w3.org/2000/svg" xmlns:xlink="http://www.w3.org/1999/xlink" x="0px" y="0px"
	 width="250px" height="250px" viewBox="25 0 250 250" enable-background="new 25 0 250 250" xml:space="preserve">
<path fill="#19B4E9" d="M150,250c68.75,0,125-56.25,125-125S218.75,0,150,0S25,56.25,25,125S81.25,250,150,250"/>
<path fill="#FFFFFF" d="M85,124.375l21.25-21.25c0.625-0.625,1.25-1.875,1.25-2.5c0-1.875-1.875-3.75-3.75-3.75
	c-1.25,0-1.875,0.625-2.5,1.25L80,119.375l-21.25-21.25c-0.625-0.625-1.875-1.25-2.5-1.25c-1.875,0-3.75,1.875-3.75,3.75
	c0,1.25,0.625,1.875,1.25,2.5L75,124.375l-21.25,21.25c-0.625,0.625-1.25,1.875-1.25,2.5c0,1.875,1.875,3.75,3.75,3.75
	c1.25,0,1.875-0.625,2.5-1.25L80,129.375l21.25,21.25c0.625,0.625,1.875,1.25,2.5,1.25c1.875,0,3.75-1.875,3.75-3.75
	c0-1.25-0.625-1.875-1.25-2.5L85,124.375z M211.875,124.375c0,3.75,3.125,6.875,6.875,6.875s6.875-3.125,6.875-6.875
	c0-3.75-3.125-6.875-6.875-6.875S211.875,120.625,211.875,124.375"/>
<path fill="#FFFFFF" d="M198.75,124.375c0-11.25,8.75-20,20-20s20,8.75,20,20s-8.75,20-20,20
	C207.5,145,198.75,135.625,198.75,124.375 M190.625,124.375c0,15.625,12.5,28.125,28.125,28.125s28.125-12.5,28.125-28.125
	s-12.5-28.125-28.125-28.125C203.125,96.875,190.625,109.375,190.625,124.375 M188.75,96.875h-1.25c-3.75,0-6.875,1.25-10,3.125
	c-0.625-1.875-1.875-3.125-3.75-3.125c-1.875,0-3.75,1.875-3.75,3.75v47.5c0,1.875,1.875,3.75,3.75,3.75
	c1.875,0,3.75-1.875,3.75-3.75v-28.75c0-9.375,0.625-13.75,9.375-14.375h1.875c2.5,0,3.75-1.875,3.75-3.75
	C192.5,98.75,190.625,96.875,188.75,96.875 M115,120c2.5-9.375,10-15.625,19.375-15.625s17.5,6.875,20,15.625H115z M162.5,119.375
	c-1.875-7.5-5.625-14.375-12.5-18.125c-9.375-6.25-21.875-5.625-31.25,0.625c-7.5,5.625-11.875,13.75-11.875,23.125
	c0,2.5,0,4.375,0.625,6.875c3.125,11.25,12.5,19.375,23.75,20.625c3.125,0.625,6.875,0,10-0.625c3.125-0.625,5.625-1.875,8.125-3.75
	c2.5-1.875,5-3.75,6.875-6.875c1.25-1.875,1.25-4.375-0.625-5.625c-1.25-1.25-3.75-1.25-5.625,0.625
	c-0.625,0.625-0.625,1.25-1.25,1.875c-1.25,1.875-3.125,3.125-5.625,4.375c-2.5,1.25-6.25,2.5-9.375,2.5
	c-11.25,0-16.875-8.125-19.375-13.125c-0.625-1.25-0.625-1.875-0.625-3.125v-0.625h40C160,127.5,163.125,123.75,162.5,119.375"/>
</svg>
