<svg xmlns="http://www.w3.org/2000/svg" viewBox="211.3 377.5 174.8 92.4"><path d="M242 392.2c-1.1-1.7-1.3-2.2-1.3-2.2h-.1s-.1.5-1.3 2.2l-3.5 5.3h-2.6l6.1-8.9-5.8-8.7h2.7l3.1 4.8c1.2 1.9 1.3 2.3 1.3 2.3h.1s.1-.4 1.3-2.2l3.1-4.9h2.5l-5.7 8.5 6.1 9.2h-2.6l-3.4-5.4zm16.7 1.5l2 .5c-.5 2.8-2.8 3.8-5.4 3.8-3.6 0-6-2.6-6-7.2s2.4-7.3 6.2-7.3c3.5 0 5.4 2.4 5.4 5.8 0 .8-.1 1.6-.3 1.9h-9.1c.2 2.9 1.5 5 4 5 1.7-.1 2.8-.8 3.2-2.5zm-.1-4.4v-.6c0-1.9-1.3-3.5-3.3-3.5-2.1 0-3.5 1.4-3.8 4.1h7.1zm13.2-3.3c-.3-.1-.7-.1-1.1-.1-2.1 0-3.9 1.8-3.9 4.4v7.2h-2.3v-13.9h1.9l.3 3.7c.5-2.5 2.4-4.1 5.3-4l-.2 2.7zm1.3 4.5c0-4.7 2.4-7.2 6.2-7.2s6.2 2.5 6.2 7.2-2.4 7.4-6.2 7.4-6.2-2.6-6.2-7.4zm2.3 0c0 3.7 1.3 5.6 3.9 5.6 2.6 0 3.9-1.9 3.9-5.6 0-3.6-1.3-5.3-3.9-5.3s-3.9 1.7-3.9 5.3zm21.4-13c.9 0 1.6.7 1.6 1.6 0 .9-.8 1.6-1.6 1.6-.9 0-1.6-.8-1.6-1.6s.7-1.6 1.6-1.6zm1.2 6.2v13.9h-2.3v-13.9h2.3zm6.5 2.7c.8-2.1 2.3-3 4.4-3 2.3 0 4.3 1.3 4.3 4.3v9.9h-2.3v-9.4c0-1.8-.9-2.9-2.6-2.9-1.8 0-3.5 1-3.5 4.1v8.1h-2.3v-13.9h1.7l.3 2.8zm23.9 11.2c-.7.2-1 .2-1.5.2-1.7 0-2.9-.9-2.9-2.8v-17.4h2.3v17.1c0 .9.5 1.3 1.2 1.3.4 0 .6-.1.9-.1v1.7zm4.4-20.1c.9 0 1.7.7 1.7 1.6 0 .9-.8 1.6-1.7 1.6-.9 0-1.6-.8-1.6-1.6s.7-1.6 1.6-1.6zm1.2 6.2v13.9h-2.3v-13.9h2.3zm15.6 13.8h-2.9l-5.2-6.4h-.8v6.4h-2.3v-20h2.3v11.9h.6l4.9-5.7h2.8l-5.8 6.4 6.4 7.4zm10.3-3.8l2 .5c-.5 2.8-2.8 3.8-5.4 3.8-3.6 0-6-2.6-6-7.2s2.4-7.3 6.2-7.3c3.5 0 5.4 2.4 5.4 5.8 0 .8-.1 1.6-.3 1.9h-9.1c.1 2.9 1.5 5 4 5 1.7-.1 2.8-.8 3.2-2.5zm-.1-4.4v-.6c0-1.9-1.3-3.5-3.3-3.5-2.1 0-3.5 1.4-3.8 4.1h7.1zm-117.6 44.2v-15.1l-3.9.7V417l6.2-1.2v17.7h-2.3zm6.9-8.7c0-5.1 2.5-9.2 6.8-9.2s6.8 4.2 6.8 9.2c0 5.3-2.4 9.2-6.8 9.2s-6.8-3.9-6.8-9.2zm2.3 0c0 4.1 1.7 7.3 4.5 7.3s4.5-3.2 4.5-7.3c0-4.2-1.7-7.3-4.5-7.3s-4.5 3.1-4.5 7.3zm14.3 0c0-5.1 2.5-9.2 6.8-9.2s6.8 4.2 6.8 9.2c0 5.3-2.4 9.2-6.8 9.2-4.4-.1-6.8-3.9-6.8-9.2zm2.3 0c0 4.1 1.7 7.3 4.5 7.3s4.5-3.2 4.5-7.3c0-4.2-1.7-7.3-4.5-7.3s-4.5 3.1-4.5 7.3zm13.5 12.1v-1.2c1.4-.2 2.3-.9 2.3-2.2-1.2.2-2-.5-2-1.5 0-1.1.7-1.7 1.8-1.7s2.1.9 2.1 2.4c.1 2.8-1.6 4-4.2 4.2zm7.1-12.1c0-5.1 2.5-9.2 6.8-9.2s6.8 4.2 6.8 9.2c0 5.3-2.4 9.2-6.8 9.2-4.4-.1-6.8-3.9-6.8-9.2zm2.3 0c0 4.1 1.7 7.3 4.5 7.3s4.5-3.2 4.5-7.3c0-4.2-1.7-7.3-4.5-7.3s-4.5 3.1-4.5 7.3zm14.3 0c0-5.1 2.5-9.2 6.8-9.2s6.8 4.2 6.8 9.2c0 5.3-2.4 9.2-6.8 9.2-4.4-.1-6.8-3.9-6.8-9.2zm2.4 0c0 4.1 1.7 7.3 4.5 7.3s4.5-3.2 4.5-7.3c0-4.2-1.7-7.3-4.5-7.3-2.9 0-4.5 3.1-4.5 7.3zm14.3 0c0-5.1 2.5-9.2 6.8-9.2s6.8 4.2 6.8 9.2c0 5.3-2.4 9.2-6.8 9.2s-6.8-3.9-6.8-9.2zm2.3 0c0 4.1 1.7 7.3 4.5 7.3s4.5-3.2 4.5-7.3c0-4.2-1.7-7.3-4.5-7.3s-4.5 3.1-4.5 7.3zm19.5.6v-5.2h1.4v5.2h5.5v1.4h-5.5v5.6h-1.4v-5.6h-5.4v-1.4h5.4zm-119.2 26.5v11.9c0 4.6-3.4 6.1-6.7 6.1s-6.6-1.6-6.6-6.1v-11.9h2.3v11.3c0 3.4 1.7 4.8 4.3 4.8 2.6 0 4.3-1.3 4.3-4.7v-11.4h2.4zm14.2 17.6l-5.8-8h-1.5v8H229v-17.7h2.3v7.7h1.6l5.4-7.7h2.8l-6.3 8.6 6.8 9.1h-2.9zm13.1-3.6c.2 1.6 1.3 2.3 3.1 2.3 1.7 0 3-.7 3-2.1 0-1.2-.5-1.9-2.3-2.4l-2-.5c-2.5-.6-3.5-1.9-3.5-3.9 0-3 2.5-4.1 5-4.1 2.8 0 4.5 1 4.8 3.7l-2.2.2c-.1-1.5-1-2.2-2.7-2.2-1.7 0-2.7.8-2.7 2.1 0 1.1.4 1.8 2.1 2.2l1.9.5c2.3.6 3.8 1.6 3.8 4.1 0 2.9-2.3 4-5.2 4-3.1 0-4.8-1-5.2-3.5l2.1-.4zm19.9 1.2c-.7 2.1-2.2 2.8-4.3 2.8-2.5 0-4.2-1.3-4.2-4.6v-9.6h2.3v9.4c0 2.2.8 3.2 2.7 3.2 1.6 0 3.4-1.4 3.4-4.1v-8.4h2.3v13.9h-2l-.2-2.6zm8.1 2.4h-1.4v-20h2.3v8.8c.7-2.1 2.5-3 4.4-3 3.4 0 5.5 2.4 5.5 6.9 0 4.1-2.2 7.6-5.9 7.6-2.4 0-3.7-1.1-4.2-2.4l-.7 2.1zm.9-5.2c0 2.8 1.9 3.9 3.6 3.9 2.2 0 4-1.8 4-5.7 0-3.5-1.4-5.2-3.7-5.2-2.2 0-3.9 1.6-3.9 4.3v2.7zm14.2 1.6c.2 1.6 1.3 2.3 3.1 2.3 1.7 0 3-.7 3-2.1 0-1.2-.5-1.9-2.3-2.4l-2-.5c-2.5-.6-3.4-1.9-3.4-3.9 0-3 2.5-4.1 5-4.1 2.8 0 4.5 1 4.8 3.7l-2.2.2c-.1-1.5-1-2.2-2.7-2.2s-2.7.8-2.7 2.1c0 1.1.4 1.8 2.1 2.2l1.9.5c2.3.6 3.8 1.6 3.8 4.1 0 2.9-2.3 4-5.2 4-3.1 0-4.8-1-5.2-3.5l2-.4zm21.9.2c-.4 2.8-2.6 3.8-5.3 3.8-3.5 0-5.9-2.6-5.9-7.2s2.4-7.3 6.2-7.3c2.8 0 4.7 1.5 4.9 4.3l-2.1.3c-.3-1.8-1.3-2.7-2.9-2.7-2.5 0-3.8 2.3-3.8 5.5 0 3.1 1.6 5.3 4 5.3 1.6 0 2.7-.8 3.1-2.4l1.8.4zm10.6-8.1c-.3-.1-.7-.1-1.1-.1-2.1 0-3.9 1.8-3.9 4.4v7.2h-2.3v-13.9h1.9l.3 3.7c.5-2.5 2.4-4.1 5.3-4l-.2 2.7zm4.1-8.5c.9 0 1.7.7 1.7 1.6 0 .9-.8 1.6-1.7 1.6-.9 0-1.6-.8-1.6-1.6s.8-1.6 1.6-1.6zm1.2 6.2v13.9h-2.3v-13.9h2.3zm5.9 13.8h-1.4v-20h2.3v8.8c.7-2.1 2.5-3 4.4-3 3.4 0 5.5 2.4 5.5 6.9 0 4.1-2.2 7.6-5.9 7.6-2.4 0-3.7-1.1-4.2-2.4l-.7 2.1zm.9-5.2c0 2.8 1.9 3.9 3.6 3.9 2.2 0 4-1.8 4-5.7 0-3.5-1.4-5.2-3.7-5.2-2.2 0-3.9 1.6-3.9 4.3v2.7zm22 1.4l2 .5c-.5 2.8-2.8 3.8-5.4 3.8-3.6 0-6-2.6-6-7.2s2.4-7.3 6.2-7.3c3.5 0 5.4 2.4 5.4 5.8 0 .8-.1 1.6-.3 1.9h-9.1c.1 2.9 1.5 5 4 5 1.6-.1 2.7-.8 3.2-2.5zm-.1-4.4v-.6c0-1.9-1.3-3.5-3.3-3.5-2.1 0-3.5 1.4-3.8 4.1h7.1zm13.1-3.3c-.3-.1-.7-.1-1.1-.1-2.1 0-3.9 1.8-3.9 4.4v7.2h-2.3v-13.9h1.9l.3 3.7c.5-2.5 2.4-4.1 5.3-4l-.2 2.7zm3.3 7.9c.2 1.6 1.3 2.3 3.1 2.3 1.7 0 3-.7 3-2.1 0-1.2-.5-1.9-2.3-2.4l-2-.5c-2.5-.6-3.5-1.9-3.5-3.9 0-3 2.5-4.1 5-4.1 2.8 0 4.5 1 4.8 3.7l-2.2.2c-.1-1.5-1-2.2-2.7-2.2-1.7 0-2.7.8-2.7 2.1 0 1.1.4 1.8 2.1 2.2l1.9.5c2.3.6 3.8 1.6 3.8 4.1 0 2.9-2.3 4-5.2 4-3.1 0-4.8-1-5.2-3.5l2.1-.4z" fill="#FFF"/></svg>