<?xml version="1.0" encoding="utf-8"?>
<!-- Generator: Adobe Illustrator 18.1.1, SVG Export Plug-In . SVG Version: 6.00 Build 0)  -->
<svg version="1.1" id="Layer_1" xmlns="http://www.w3.org/2000/svg" xmlns:xlink="http://www.w3.org/1999/xlink" x="0px" y="0px"
	 viewBox="0 0 60.7 30.2" enable-background="new 0 0 60.7 30.2" xml:space="preserve">
<g>
	<g>
		<path fill="#FFFFFF" d="M2.8,13.6V3.1L0,3.5V1.1l5.5-0.8v13.3H2.8z"/>
		<path fill="#FFFFFF" d="M17.6,13.6H8.5v-2.1c3.7-3.1,6.1-4.9,6.1-7.2c0-1.2-0.6-2-1.8-2c-1.1,0-1.7,0.7-1.7,1.6
			c0,0.7,0.4,1.3,0.9,1.7L9.7,6.8C9,6.2,8.4,5.2,8.4,3.9c0-2,1.3-3.9,4.5-3.9c2.7,0,4.6,1.2,4.6,4.2c0,3.6-3.5,5.8-5.5,6.9v0.1h5.6
			V13.6z"/>
		<path fill="#FFFFFF" d="M24.7,6.8c2.4,0.2,3.6,1.5,3.6,3.5c0,2.3-2,3.6-4.9,3.6c-2.6,0-4.3-1.2-4.7-3.1l2.6-0.8
			c0.2,1.3,0.9,1.9,2.2,1.9c1.2,0,2-0.6,2-1.8c0-1.4-0.9-2.1-3.7-2.2v-2c3-0.2,3.4-1,3.4-2.1c0-0.9-0.7-1.4-1.6-1.4
			c-0.9,0-1.6,0.5-1.7,1.6l-2.6-0.7c0.3-2,1.9-3.3,4.5-3.3C26.1,0,28,1.1,28,3.4c0,1.8-1,3-3.3,3.3V6.8z"/>
		<path fill="#FFFFFF" d="M32.3,10.1c1,0,1.8,0.8,1.8,1.9c0,1-0.8,1.8-1.8,1.8c-1,0-1.8-0.8-1.8-1.8C30.5,10.9,31.3,10.1,32.3,10.1z
			"/>
		<path fill="#FFFFFF" d="M35.9,6.9c0-3.8,2.1-6.9,5.4-6.9s5.4,3.1,5.4,6.9c0,4-1.9,6.9-5.4,6.9S35.9,10.9,35.9,6.9z M38.5,7
			c0,2.6,1,4.5,2.8,4.5c1.8,0,2.8-1.9,2.8-4.5c0-2.7-1-4.6-2.8-4.6C39.5,2.4,38.5,4.3,38.5,7z"/>
		<path fill="#FFFFFF" d="M48.9,6.9c0-3.8,2.1-6.9,5.4-6.9s5.4,3.1,5.4,6.9c0,4-1.9,6.9-5.4,6.9S48.9,10.9,48.9,6.9z M51.5,7
			c0,2.6,1,4.5,2.8,4.5c1.8,0,2.8-1.9,2.8-4.5c0-2.7-1-4.6-2.8-4.6C52.6,2.4,51.5,4.3,51.5,7z"/>
	</g>
</g>
<g>
	<g>
		<path fill="#FFFFFF" d="M27.9,27.7c0.2,0.8,0.7,1.3,1.5,1.3c0.7,0,1.1-0.3,1.1-0.9c0-0.5-0.3-0.8-1.4-1.2
			c-1.6-0.5-2.4-1.1-2.4-2.5c0-1.7,1.3-2.3,2.6-2.3c1.5,0,2.6,0.5,2.8,2l-1.6,0.4c-0.1-0.7-0.6-1.1-1.2-1.1c-0.6,0-1,0.3-1,0.8
			c0,0.6,0.5,0.8,1.4,1.2c1.5,0.5,2.3,1,2.3,2.5c0,1.6-1.3,2.2-2.9,2.2c-1.5,0-2.5-0.5-2.8-1.9L27.9,27.7z"/>
		<path fill="#FFFFFF" d="M33.7,30v-7.6h2.6c1.9,0,2.8,0.9,2.8,2.5c0,1.6-0.9,2.6-2.6,2.6h-1.2V30H33.7z M35.3,26.1h1
			c0.9,0,1.2-0.4,1.2-1.2c0-0.8-0.4-1.2-1.2-1.2h-1V26.1z"/>
		<path fill="#FFFFFF" d="M45.4,30h-5v-7.6h5v1.4H42v1.8h3v1.3h-3v1.8h3.4V30z"/>
		<path fill="#FFFFFF" d="M51.4,26.3c0.4,0.6,0.7,1.2,0.7,1.2h0.1c0,0-0.1-0.7-0.1-1.7v-3.4h1.6V30h-1.5l-2.8-3.9
			c-0.5-0.7-0.8-1.2-0.8-1.2h-0.1c0,0,0.1,0.7,0.1,1.8V30h-1.6v-7.6h1.5L51.4,26.3z"/>
		<path fill="#FFFFFF" d="M57,30v-6.3h-2.1v-1.4h5.9v1.4h-2.2V30H57z"/>
	</g>
</g>
</svg>
