<svg xmlns="http://www.w3.org/2000/svg" xmlns:xlink="http://www.w3.org/1999/xlink" viewBox="0 0 128 64.2"><defs><path id="a" d="M121.6 63.9l-115.1.3C3 64.2.2 61.4.2 57.9L0 6.6C0 3.1 2.8.3 6.3.3L121.5 0c3.5 0 6.3 2.8 6.3 6.3l.1 51.2c.1 3.5-2.8 6.4-6.3 6.4z"/></defs><use xlink:href="#a" overflow="visible" fill="#A1E1F7"/><clipPath id="b"><use xlink:href="#a" overflow="visible"/></clipPath><g opacity=".5" clip-path="url(#b)" fill="#2BBCEC"><path d="M117.1 4.8l-5.7-5.7c-.2-.1-.4-.4-.4-.7 0-.6.5-1 1-1 .3 0 .5.1.7.3l5.7 5.7 5.7-5.7c.2-.2.4-.3.7-.3.6 0 1 .4 1 1 0 .3-.1.5-.3.7L120 4.8l5.7 5.7c.2.2.3.5.3.7 0 .6-.5 1-1 1-.3 0-.5-.1-.7-.3l-5.7-5.7-5.7 5.7c-.2.2-.5.3-.7.3-.6 0-1-.5-1-1 0-.3.1-.5.3-.7l5.6-5.7zM102.2 4.8c0 1-.8 1.9-1.9 1.9-1 0-1.9-.8-1.9-1.9 0-1 .8-1.9 1.8-1.9 1.2.1 2 .9 2 1.9z"/><path d="M107.9 4.8c0-4.1-3.4-7.5-7.5-7.5S92.9.7 92.9 4.8s3.4 7.5 7.5 7.5 7.5-3.3 7.5-7.5zm-2.1 0c0 3-2.4 5.4-5.4 5.4-3 0-5.4-2.4-5.4-5.4 0-3 2.4-5.4 5.4-5.4 2.9.1 5.3 2.5 5.4 5.4zM80.6 4.9L74.9-.8c-.2-.2-.3-.4-.3-.7 0-.6.5-1 1-1 .3 0 .5.1.7.3L82 3.5l5.7-5.7c.2-.2.4-.3.7-.3.6 0 1 .4 1 1 0 .3-.1.5-.3.7l-5.7 5.7 5.7 5.7c.2.2.3.5.3.7 0 .6-.5 1-1 1-.3 0-.5-.1-.7-.3L82 6.3 76.3 12c-.2.2-.5.3-.7.3-.6 0-1-.5-1-1 0-.3.1-.5.3-.7l5.7-5.7zM65.8 4.9c0 1-.8 1.9-1.9 1.9-1 0-1.9-.8-1.9-1.9 0-1 .8-1.9 1.8-1.9 1.1.1 2 .9 2 1.9z"/><path d="M71.4 4.9c0-4.1-3.4-7.5-7.5-7.5S56.4.8 56.4 4.9s3.4 7.5 7.5 7.5c4.2 0 7.5-3.3 7.5-7.5zm-2.1 0c0 3-2.4 5.4-5.4 5.4-3 0-5.4-2.4-5.4-5.4 0-3 2.4-5.4 5.4-5.4 3 .1 5.4 2.5 5.4 5.4zM44.1 5L38.4-.7c-.2-.2-.3-.4-.3-.7 0-.6.5-1 1-1 .3 0 .5.1.7.3l5.7 5.7 5.7-5.7c.2-.2.4-.3.7-.3.6 0 1 .4 1 1 0 .3-.1.5-.3.7L47.1 5l5.7 5.7c.2.2.3.5.3.7 0 .6-.5 1-1 1-.3 0-.5-.1-.7-.3l-5.7-5.7-5.7 5.7c-.2.2-.5.3-.7.3-.6 0-1-.5-1-1 0-.3.1-.5.3-.7L44.1 5zM29.3 5c0 1-.8 1.9-1.9 1.9-1 0-1.9-.8-1.9-1.9 0-1 .8-1.9 1.8-1.9 1.2.1 2 .9 2 1.9z"/><path d="M35 5c0-4.1-3.4-7.5-7.5-7.5S20 .9 20 5s3.4 7.5 7.5 7.5S35 9.1 35 5zm-2.2 0c0 3-2.4 5.4-5.4 5.4-3 0-5.4-2.4-5.4-5.4 0-3 2.4-5.4 5.4-5.4 3 0 5.4 2.5 5.4 5.4zM7.7 5.1L2-.6c-.2-.2-.3-.4-.3-.7 0-.6.5-1 1-1 .3 0 .5.1.7.3l5.7 5.7L14.8-2c.2-.2.4-.3.7-.3.6 0 1 .4 1 1 0 .3-.1.5-.3.7l-5.7 5.7 5.7 5.7c.2.2.3.5.3.7 0 .6-.5 1-1 1-.3 0-.5-.1-.7-.3L9.1 6.6l-5.7 5.7c-.2.2-.5.3-.7.3-.6 0-1-.5-1-1 0-.3.1-.5.3-.7l5.7-5.8zM120.5 23.1c0 1-.8 1.9-1.9 1.9-1 0-1.9-.8-1.9-1.9 0-1 .8-1.9 1.8-1.9 1.2.1 2 .9 2 1.9z"/><path d="M126.2 23.1c0-4.1-3.4-7.5-7.5-7.5s-7.5 3.4-7.5 7.5 3.4 7.5 7.5 7.5 7.5-3.3 7.5-7.5zm-2.1 0c0 3-2.4 5.4-5.4 5.4-3 0-5.4-2.4-5.4-5.4 0-3 2.4-5.4 5.4-5.4 2.9.1 5.4 2.5 5.4 5.4zM98.9 23.2l-5.7-5.7c-.2-.2-.3-.4-.3-.7 0-.6.5-1 1-1 .3 0 .5.1.7.3l5.7 5.7 5.7-5.7c.2-.2.4-.3.7-.3.6 0 1 .4 1 1 0 .3-.1.5-.3.7l-5.7 5.7 5.7 5.7c.2.2.3.5.3.7 0 .6-.5 1-1 1-.3 0-.5-.1-.7-.3l-5.7-5.7-5.7 5.7c-.2.2-.5.3-.7.3-.6 0-1-.5-1-1 0-.3.1-.5.3-.7l5.7-5.7zM84.1 23.2c0 1-.8 1.9-1.9 1.9-1 0-1.9-.8-1.9-1.9 0-1 .8-1.9 1.8-1.9 1.1.1 2 .9 2 1.9z"/><path d="M89.7 23.2c0-4.1-3.4-7.5-7.5-7.5s-7.5 3.4-7.5 7.5 3.4 7.5 7.5 7.5c4.2 0 7.5-3.3 7.5-7.5zm-2.1 0c0 3-2.4 5.4-5.4 5.4-3 0-5.4-2.4-5.4-5.4 0-3 2.4-5.4 5.4-5.4 3 .1 5.4 2.5 5.4 5.4zM62.5 23.3l-5.7-5.7c-.2-.2-.3-.4-.3-.7 0-.6.5-1 1-1 .3 0 .5.1.7.3l5.7 5.7 5.7-5.7c.2-.2.4-.3.7-.3.6 0 1 .4 1 1 0 .3-.1.5-.3.7l-5.7 5.7L71 29c.2.2.3.5.3.7 0 .6-.5 1-1 1-.3 0-.5-.1-.7-.3l-5.7-5.7-5.7 5.7c-.2.2-.5.3-.7.3-.6 0-1-.5-1-1 0-.3.1-.5.3-.7l5.7-5.7zM47.6 23.3c0 1-.8 1.9-1.9 1.9-1 0-1.9-.8-1.9-1.9 0-1 .8-1.9 1.8-1.9 1.2.1 2 .9 2 1.9z"/><path d="M53.3 23.3c0-4.1-3.4-7.5-7.5-7.5s-7.5 3.4-7.5 7.5 3.4 7.5 7.5 7.5 7.5-3.4 7.5-7.5zm-2.2 0c0 3-2.4 5.4-5.4 5.4-3 0-5.4-2.4-5.4-5.4 0-3 2.4-5.4 5.4-5.4 3 0 5.4 2.5 5.4 5.4zM26 23.4l-5.7-5.7c-.2-.2-.3-.4-.3-.7 0-.6.5-1 1-1 .3 0 .5.1.7.3l5.7 5.7 5.7-5.7c.2-.2.4-.3.7-.3.6 0 1 .4 1 1 0 .3-.1.5-.3.7l-5.7 5.7 5.7 5.7c.2.2.3.5.3.7 0 .6-.5 1-1 1-.3 0-.5-.1-.7-.3l-5.7-5.7-5.7 5.7c-.2.2-.5.3-.7.3-.6 0-1-.5-1-1 0-.3.1-.5.3-.7l5.7-5.7zM11.2 23.4c0 1-.8 1.9-1.9 1.9-1 0-1.9-.8-1.9-1.9 0-1 .8-1.9 1.8-1.9 1.1.1 2 .9 2 1.9z"/><path d="M16.8 23.4c0-4.1-3.4-7.5-7.5-7.5s-7.5 3.4-7.5 7.5 3.4 7.5 7.5 7.5c4.2 0 7.5-3.4 7.5-7.5zm-2.1 0c0 3-2.4 5.4-5.4 5.4-3 0-5.4-2.4-5.4-5.4 0-3 2.4-5.4 5.4-5.4 3 0 5.4 2.4 5.4 5.4zM117.2 41.5l-5.7-5.7c-.2-.2-.3-.4-.3-.7 0-.6.5-1 1-1 .3 0 .5.1.7.3l5.7 5.7 5.7-5.7c.2-.2.4-.3.7-.3.6 0 1 .4 1 1 0 .3-.1.5-.3.7l-5.7 5.7 5.7 5.7c.2.2.3.5.3.7 0 .6-.5 1-1 1-.3 0-.5-.1-.7-.3l-5.7-5.7-5.7 5.7c-.2.2-.5.3-.7.3-.6 0-1-.5-1-1 0-.3.1-.5.3-.7l5.7-5.7zM102.3 41.5c0 1-.8 1.9-1.9 1.9-1 0-1.9-.8-1.9-1.9 0-1 .8-1.9 1.8-1.9 1.2.1 2 .9 2 1.9z"/><path d="M108 41.5c0-4.1-3.4-7.5-7.5-7.5S93 37.4 93 41.5s3.4 7.5 7.5 7.5 7.5-3.3 7.5-7.5zm-2.2 0c0 3-2.4 5.4-5.4 5.4-3 0-5.4-2.4-5.4-5.4 0-3 2.4-5.4 5.4-5.4 3 .1 5.4 2.5 5.4 5.4zM80.7 41.6L75 35.9c-.2-.2-.3-.4-.3-.7 0-.6.5-1 1-1 .3 0 .5.1.7.3l5.7 5.7 5.7-5.7c.2-.2.4-.3.7-.3.6 0 1 .4 1 1 0 .3-.1.5-.3.7l-5.7 5.7 5.7 5.7c.2.2.3.5.3.7 0 .6-.5 1-1 1-.3 0-.5-.1-.7-.3L82.1 43l-5.7 5.7c-.2.2-.5.3-.7.3-.6 0-1-.5-1-1 0-.3.1-.5.3-.7l5.7-5.7zM65.9 41.6c0 1-.8 1.9-1.9 1.9-1 0-1.9-.8-1.9-1.9 0-1 .8-1.9 1.8-1.9 1.1.1 2 .9 2 1.9z"/><path d="M71.5 41.6c0-4.1-3.4-7.5-7.5-7.5s-7.5 3.4-7.5 7.5 3.4 7.5 7.5 7.5c4.2 0 7.5-3.4 7.5-7.5zm-2.1 0c0 3-2.4 5.4-5.4 5.4-3 0-5.4-2.4-5.4-5.4 0-3 2.4-5.4 5.4-5.4 3 0 5.4 2.5 5.4 5.4zM44.2 41.7L38.5 36c-.2-.2-.3-.4-.3-.7 0-.6.5-1 1-1 .3 0 .5.1.7.3l5.7 5.7 5.7-5.7c.2-.2.4-.3.7-.3.6 0 1 .4 1 1 0 .3-.1.5-.3.7L47 41.7l5.7 5.7c.2.2.3.5.3.7 0 .6-.5 1-1 1-.3 0-.5-.1-.7-.3l-5.7-5.7-5.6 5.8c-.2.2-.5.3-.7.3-.6 0-1-.5-1-1 0-.3.1-.5.3-.7l5.6-5.8zM29.4 41.7c0 1-.8 1.9-1.9 1.9-1 0-1.9-.8-1.9-1.9 0-1 .8-1.9 1.8-1.9 1.2.1 2 .9 2 1.9z"/><path d="M35 41.7c0-4.1-3.4-7.5-7.5-7.5S20 37.6 20 41.7s3.4 7.5 7.5 7.5c4.2 0 7.6-3.4 7.5-7.5zm-2.1 0c0 3-2.4 5.4-5.4 5.4-3 0-5.4-2.4-5.4-5.4 0-3 2.4-5.4 5.4-5.4 3 0 5.4 2.4 5.4 5.4zM7.8 41.8l-5.7-5.7c-.2-.2-.3-.4-.3-.7 0-.6.5-1 1-1 .3 0 .5.1.7.3l5.7 5.7 5.7-5.7c.2-.2.4-.3.7-.3.6 0 1 .4 1 1 0 .3-.1.5-.3.7l-5.7 5.7 5.7 5.7c.2.2.3.5.3.7 0 .6-.5 1-1 1-.3 0-.5-.1-.7-.3l-5.7-5.7L3.6 49c-.2.2-.5.3-.7.3-.6 0-1-.5-1-1 0-.3.1-.5.3-.7l5.6-5.8zM120.6 59.8c0 1-.8 1.9-1.9 1.9-1 0-1.9-.8-1.9-1.9 0-1 .8-1.9 1.8-1.9 1.2.1 2 .9 2 1.9z"/><path d="M126.3 59.8c0-4.1-3.4-7.5-7.5-7.5s-7.5 3.4-7.5 7.5 3.4 7.5 7.5 7.5 7.5-3.3 7.5-7.5zm-2.1 0c0 3-2.4 5.4-5.4 5.4-3 0-5.4-2.4-5.4-5.4 0-3 2.4-5.4 5.4-5.4 2.9.1 5.3 2.5 5.4 5.4zM99 59.9l-5.7-5.7c-.2-.2-.3-.4-.3-.7 0-.6.5-1 1-1 .3 0 .5.1.7.3l5.7 5.7 5.7-5.7c.2-.2.4-.3.7-.3.6 0 1 .4 1 1 0 .3-.1.5-.3.7l-5.7 5.7 5.7 5.7c.2.2.3.5.3.7 0 .6-.5 1-1 1-.3 0-.5-.1-.7-.3l-5.7-5.7-5.7 5.7c-.2.2-.5.3-.7.3-.6 0-1-.5-1-1 0-.3.1-.5.3-.7l5.7-5.7zM84.2 59.9c0 1-.8 1.9-1.9 1.9-1 0-1.9-.8-1.9-1.9 0-1 .8-1.9 1.8-1.9 1.1.1 2 .9 2 1.9z"/><path d="M89.8 59.9c0-4.1-3.4-7.5-7.5-7.5s-7.5 3.4-7.5 7.5 3.4 7.5 7.5 7.5c4.2 0 7.5-3.4 7.5-7.5zm-2.1 0c0 3-2.4 5.4-5.4 5.4-3 0-5.4-2.4-5.4-5.4 0-3 2.4-5.4 5.4-5.4 3 0 5.4 2.5 5.4 5.4zM62.6 60l-5.7-5.7c-.2-.2-.3-.4-.3-.7 0-.6.5-1 1-1 .3 0 .5.1.7.3l5.7 5.7 5.7-5.7c.2-.2.4-.3.7-.3.6 0 1 .4 1 1 0 .3-.1.5-.3.7L65.5 60l5.7 5.7c.2.2.3.5.3.7 0 .6-.5 1-1 1-.3 0-.5-.1-.7-.3L64 61.5l-5.7 5.7c-.2.2-.5.3-.7.3-.6 0-1-.5-1-1 0-.3.1-.5.3-.7l5.7-5.8zM47.7 60c0 1-.8 1.9-1.9 1.9-1 0-1.9-.8-1.9-1.9 0-1 .8-1.9 1.8-1.9 1.2.1 2 .9 2 1.9z"/><path d="M53.4 60c0-4.1-3.4-7.5-7.5-7.5s-7.5 3.4-7.5 7.5 3.4 7.5 7.5 7.5 7.5-3.4 7.5-7.5zm-2.2 0c0 3-2.4 5.4-5.4 5.4-3 0-5.4-2.4-5.4-5.4 0-3 2.4-5.4 5.4-5.4 3 0 5.4 2.4 5.4 5.4zM26.1 60.1l-5.7-5.7c-.2-.2-.3-.4-.3-.7 0-.6.5-1 1-1 .3 0 .5.1.7.3l5.7 5.7 5.7-5.7c.2-.2.4-.3.7-.3.6 0 1 .4 1 1 0 .3-.1.5-.3.7L29 60.1l5.7 5.7c.2.2.3.5.3.7 0 .6-.5 1-1 1-.3 0-.5-.1-.7-.3l-5.7-5.7-5.7 5.7c-.2.2-.5.3-.7.3-.6 0-1-.5-1-1 0-.3.1-.5.3-.7l5.6-5.7zM11.3 60.1c0 1-.8 1.9-1.9 1.9-1 0-1.9-.8-1.9-1.9 0-1 .8-1.9 1.8-1.9 1.1.1 1.9.9 2 1.9z"/><path d="M16.9 60.1c0-4.1-3.4-7.5-7.5-7.5S1.9 56 1.9 60.1s3.4 7.5 7.5 7.5c4.2 0 7.5-3.4 7.5-7.5zm-2.1 0c0 3-2.4 5.4-5.4 5.4-3 0-5.4-2.4-5.4-5.4 0-3 2.4-5.4 5.4-5.4 3 0 5.4 2.4 5.4 5.4z"/></g></svg>