<?xml version="1.0" encoding="utf-8"?>
<!-- Generator: Adobe Illustrator 18.1.1, SVG Export Plug-In . SVG Version: 6.00 Build 0)  -->
<svg version="1.1" id="Layer_1" xmlns="http://www.w3.org/2000/svg" xmlns:xlink="http://www.w3.org/1999/xlink" x="0px" y="0px"
	 viewBox="0 0 63.8 30.2" enable-background="new 0 0 63.8 30.2" xml:space="preserve">
<g>
	<g>
		<path fill="#FFFFFF" d="M11.6,10.9c-1.2,2-2.8,3-5.6,3c-3.6,0-6-2.5-6-6.9C0,2.5,2.5,0,6.4,0c2.6,0,4.3,1.2,5.3,3.3L9.1,4.6
			C8.6,3.2,7.8,2.4,6.3,2.4C4.1,2.4,2.8,4.1,2.8,7c0,2.8,1.2,4.5,3.5,4.5c1.4,0,2.4-0.6,3.1-2L11.6,10.9z"/>
		<path fill="#FFFFFF" d="M13.9,13.6V0.3h2.7v5.4h5.5V0.3h2.7v13.3h-2.7V8h-5.5v5.6H13.9z"/>
		<path fill="#FFFFFF" d="M37.2,13.6h-8.7V0.3h8.7v2.4h-5.9v3.1h5.2V8h-5.2v3.2h5.9V13.6z"/>
		<path fill="#FFFFFF" d="M50.9,10.9c-1.2,2-2.8,3-5.6,3c-3.6,0-6-2.5-6-6.9c0-4.5,2.5-6.9,6.4-6.9c2.6,0,4.3,1.2,5.3,3.3l-2.6,1.3
			c-0.5-1.4-1.3-2.2-2.8-2.2c-2.2,0-3.5,1.7-3.5,4.6c0,2.8,1.2,4.5,3.5,4.5c1.4,0,2.4-0.6,3.1-2L50.9,10.9z"/>
		<path fill="#FFFFFF" d="M60.6,13.6L56.8,8h-0.9v5.6h-2.7V0.3h2.7v5.4h0.9l3.5-5.4h3.2l-4.3,6.4l4.7,6.9H60.6z"/>
	</g>
</g>
<g>
	<g>
		<path fill="#FFFFFF" d="M1.9,30v-6l-1.6,0.2v-1.4l3.2-0.5V30H1.9z"/>
		<path fill="#FFFFFF" d="M5.3,26.2c0-2.2,1.2-4,3.1-4s3.1,1.8,3.1,4c0,2.3-1.1,4-3.1,4S5.3,28.4,5.3,26.2z M6.8,26.2
			c0,1.5,0.6,2.6,1.6,2.6c1,0,1.6-1.1,1.6-2.6c0-1.6-0.6-2.6-1.6-2.6C7.4,23.6,6.8,24.6,6.8,26.2z"/>
		<path fill="#FFFFFF" d="M15.7,26.1c1.4,0.1,2.1,0.9,2.1,2c0,1.3-1.2,2.1-2.8,2.1c-1.5,0-2.5-0.7-2.7-1.8l1.5-0.5
			c0.1,0.7,0.5,1.1,1.3,1.1c0.7,0,1.2-0.3,1.2-1c0-0.8-0.5-1.2-2.1-1.2v-1.2c1.7-0.1,1.9-0.6,1.9-1.2c0-0.5-0.4-0.8-0.9-0.8
			c-0.5,0-0.9,0.3-1,0.9l-1.5-0.4c0.2-1.1,1.1-1.9,2.6-1.9c1.4,0,2.5,0.6,2.5,1.9C17.6,25.2,17,25.9,15.7,26.1L15.7,26.1z"/>
		<path fill="#FFFFFF" d="M19.8,28c0.2,0.6,0.7,1,1.4,1c1.5,0,2-1.4,1.9-3.2h-0.1c-0.2,1-0.9,1.5-1.8,1.5c-1.5,0-2.4-1.1-2.4-2.4
			c0-1.5,1-2.6,2.7-2.6c1.9,0,3,1.2,3,3.7c0,2.9-1.3,4.2-3.4,4.2c-1.2,0-2.1-0.5-2.5-1.4L19.8,28z M21.5,23.4
			c-0.7,0-1.2,0.5-1.2,1.3c0,0.8,0.5,1.3,1.2,1.3c0.7,0,1.2-0.5,1.2-1.3C22.8,23.9,22.2,23.4,21.5,23.4z"/>
	</g>
</g>
</svg>
