<?xml version="1.0" encoding="utf-8"?>
<!-- Generator: Adobe Illustrator 18.1.1, SVG Export Plug-In . SVG Version: 6.00 Build 0)  -->
<svg version="1.1" id="Layer_1" xmlns="http://www.w3.org/2000/svg" xmlns:xlink="http://www.w3.org/1999/xlink" x="0px" y="0px"
	 viewBox="0 0 75.3 27.1" enable-background="new 0 0 75.3 27.1" xml:space="preserve">
<g>
	<path fill="#FFFFFF" d="M19.3,22.4c-2.1,3.2-4.7,4.7-9.2,4.7C4.1,27.1,0,22.8,0,15C0,7.1,4.5,2.7,10.8,2.7c4.1,0,7,1.8,8.6,5.5
		l-2.8,1.4c-1-2.9-3.3-4.3-6-4.3c-4.6,0-7.3,3.7-7.3,9.6c0,5.9,2.4,9.4,7,9.4c3.1,0,5.1-1.1,6.9-3.8L19.3,22.4z"/>
	<path fill="#FFFFFF" d="M29,26.7c-0.9,0.2-1.4,0.2-2,0.2c-2.2,0-3.9-1.2-3.9-3.7V0h3v22.7c0,1.2,0.6,1.7,1.6,1.7
		c0.6,0,0.8-0.1,1.2-0.2V26.7z"/>
	<path fill="#FFFFFF" d="M34.9,0c1.2,0,2.2,1,2.2,2.2c0,1.2-1,2.2-2.2,2.2c-1.2,0-2.1-1-2.1-2.2C32.8,1,33.7,0,34.9,0z M36.4,8.2
		v18.4h-3V8.2H36.4z"/>
	<path fill="#FFFFFF" d="M56.1,22.1c-0.6,3.7-3.5,5-7,5c-4.7,0-7.9-3.4-7.9-9.6c0-6.1,3.2-9.8,8.2-9.8c3.8,0,6.2,2,6.5,5.7L53,13.9
		c-0.4-2.4-1.7-3.6-3.8-3.6c-3.3,0-5.1,3-5.1,7.3c0,4.1,2.1,7.1,5.3,7.1c2.1,0,3.5-1,4.1-3.1L56.1,22.1z"/>
	<path fill="#FFFFFF" d="M75.3,26.6h-3.8l-6.9-8.4h-1.1v8.4h-3V0h3v15.8h0.8l6.6-7.6h3.7l-7.7,8.6L75.3,26.6z"/>
</g>
</svg>
