<?xml version="1.0" encoding="utf-8"?>
<!-- Generator: Adobe Illustrator 18.1.1, SVG Export Plug-In . SVG Version: 6.00 Build 0)  -->
<svg version="1.1" id="Layer_1" xmlns="http://www.w3.org/2000/svg" xmlns:xlink="http://www.w3.org/1999/xlink" x="0px" y="0px"
	 viewBox="3.5 302.9 573.2 242" enable-background="new 3.5 302.9 573.2 242" xml:space="preserve">
<g enable-background="new    ">
	<path fill="#FFFFFF" d="M138,339.2c-2.8-4.1-3.1-5.3-3.1-5.3h-0.3c0,0-0.3,1.1-3.1,5.4l-8.5,13h-6.3l15-22l-14.2-21.5h6.6l7.6,11.9
		c3,4.7,3.2,5.6,3.2,5.6h0.2c0,0,0.2-1,3.1-5.5l7.5-12h6.3l-14,20.8l15.1,22.7h-6.3L138,339.2z"/>
	<path fill="#FFFFFF" d="M179.2,342.8l4.9,1.1c-1.3,6.9-6.9,9.2-13.4,9.2c-8.9,0-14.8-6.3-14.8-17.7c0-11.4,6-18.1,15.2-18.1
		c8.6,0,13.2,6,13.2,14.4c0,2-0.3,3.8-0.7,4.7h-22.4c0.4,7.2,3.7,12.3,9.8,12.3C175.3,348.7,178,347,179.2,342.8z M178.9,332
		c0.1-0.6,0.1-1,0.1-1.6c0-4.7-3.2-8.6-8.1-8.6c-5.2,0-8.6,3.5-9.3,10.1H178.9z"/>
	<path fill="#FFFFFF" d="M211.3,323.8c-0.7-0.1-1.8-0.2-2.7-0.2c-5.2,0-9.7,4.4-9.7,10.9v17.8h-5.6v-34.1h4.7l0.7,9.2
		c1.3-6.1,5.8-10.2,13-9.9L211.3,323.8z"/>
	<path fill="#FFFFFF" d="M214.5,335c0-11.6,6-17.6,15.2-17.6c9.2,0,15.2,6.1,15.2,17.6c0,11.7-6,18.2-15.2,18.2
		C220.5,353.1,214.5,346.6,214.5,335z M220,335c0,9.1,3.2,13.7,9.7,13.7s9.7-4.7,9.7-13.7c0-8.9-3.3-13.1-9.7-13.1
		S220,326.1,220,335z"/>
	<path fill="#FFFFFF" d="M272.8,303c2.2,0,4.1,1.8,4.1,4.1c0,2.1-1.8,4-4.1,4c-2.1,0-3.9-1.8-3.9-4C268.9,304.8,270.7,303,272.8,303
		z M275.7,318.2v34.1h-5.6v-34.1H275.7z"/>
	<path fill="#FFFFFF" d="M291.6,324.7c1.8-5.1,5.8-7.4,10.9-7.4c5.8,0,10.5,3.1,10.5,10.5v24.4h-5.6v-23c0-4.4-2.2-7-6.4-7
		c-4.5,0-8.6,2.4-8.6,10.2v19.9h-5.6v-34.1h4.2L291.6,324.7z"/>
	<path fill="#FFFFFF" d="M367,337.3c1.9,6.9,2.3,11.1,2.3,11.1h0.3c0,0,0.1-4.1,1.9-11.1l4.9-19.1h5.7l-9.4,34.1h-6.7l-4.9-17.5
		c-1.9-6.8-2.3-10.7-2.3-10.7h-0.3c0,0-0.4,3.8-2.2,10.7l-4.7,17.5h-6.7l-9.6-34.1h5.8l5,19c1.8,6.9,2.3,11.1,2.3,11.1h0.3
		c0,0,0.2-4.4,2.1-11.1l5.2-19h5.8L367,337.3z"/>
	<path fill="#FFFFFF" d="M391.2,303c2.2,0,4.1,1.8,4.1,4.1c0,2.1-1.8,4-4.1,4c-2.1,0-3.9-1.8-3.9-4C387.2,304.8,389,303,391.2,303z
		 M394,318.2v34.1h-5.6v-34.1H394z"/>
	<path fill="#FFFFFF" d="M422.2,351.2c-2,1.3-4.7,1.9-7.5,1.9c-6,0-9.4-3.2-9.4-9.2v-21.3h-4.9v-4.5h4.9v-7.2l5.7-0.7v8H421v4.5
		h-10.2V343c0,3.8,1.7,5.4,4.6,5.4c2.2,0,3.7-0.5,5.6-1.8L422.2,351.2z"/>
	<path fill="#FFFFFF" d="M434.4,324.6c1.5-4.8,5-7.3,10.2-7.3c5.8,0,10.5,3.1,10.5,10.5v24.4h-5.6v-23.1c0-4.3-2.2-6.9-6.4-6.9
		c-4.5,0-8.6,2.4-8.6,10.2v19.9h-5.6v-49.3h5.6V324.6z"/>
</g>
<g enable-background="new    ">
	<path fill="#FFFFFF" d="M26.7,431.4l4.9,1.1c-1.3,6.9-6.9,9.2-13.4,9.2c-8.9,0-14.8-6.3-14.8-17.7c0-11.4,6-18.1,15.2-18.1
		c8.6,0,13.2,6,13.2,14.4c0,2-0.3,3.8-0.7,4.7H8.9c0.4,7.2,3.7,12.3,9.8,12.3C22.8,437.3,25.5,435.6,26.7,431.4z M26.4,420.5
		c0.1-0.6,0.1-1,0.1-1.6c0-4.7-3.2-8.6-8.1-8.6c-5.2,0-8.6,3.5-9.3,10.1H26.4z"/>
	<path fill="#FFFFFF" d="M64.2,433.5c0,2.7,1.3,3.2,2.6,3.2c0.8,0,1.3-0.1,1.8-0.3v4.5c-0.8,0.2-1.8,0.4-3,0.4
		c-3.8,0-6.2-1.7-6.6-5.5c-1.8,4.3-5.9,5.9-10.1,5.9c-6,0-10.3-3.4-10.3-9.2c0-7.5,5.8-12,20-11.3v-4.6c0-4.6-3-6.2-6.9-6.2
		c-4.1,0-6.6,1.9-6.9,5.7l-5.2-0.7c0.5-7.2,6.9-9.5,12.7-9.5c6,0,11.8,2.4,11.8,10.3V433.5z M58.5,425.3c-9.9-0.2-14.4,1.9-14.4,6.6
		c0,3.1,2,5.5,6,5.5c3.9,0,8.4-2.4,8.4-6.6V425.3z"/>
	<path fill="#FFFFFF" d="M77.8,432c0.4,4,3.3,5.8,7.7,5.8c4.3,0,7.5-1.6,7.5-5.2c0-3-1.3-4.8-5.6-5.9l-5-1.2
		c-6.3-1.5-8.5-4.7-8.5-9.5c0-7.5,6.1-10,12.4-10c6.9,0,11.1,2.5,11.9,9.1l-5.5,0.6c-0.2-3.6-2.4-5.4-6.7-5.4s-6.7,1.9-6.7,5.2
		c0,2.7,1,4.4,5.1,5.3l4.7,1.2c5.8,1.5,9.3,3.9,9.3,10c0,7.2-5.6,9.8-12.8,9.8c-7.5,0-11.8-2.4-12.7-8.5L77.8,432z"/>
	<path fill="#FFFFFF" d="M113.9,426.5c2.1,6.7,2.8,10.7,2.8,10.7h0.3c0,0,0.7-3.9,2.7-10.6l6-19.9h5.8l-12.3,36.8
		c-3.3,9.9-7.6,12.6-13.3,12.6c-1.6,0-3.2-0.3-4.7-0.8l0.4-4.7c1.5,0.7,2.7,1,4.4,1c3.8,0,5.8-2.1,8-8.9l-12.6-36.1h6.1L113.9,426.5
		z"/>
	<path fill="#FFFFFF" d="M155.9,432c0.4,4,3.3,5.8,7.7,5.8c4.3,0,7.5-1.6,7.5-5.2c0-3-1.3-4.8-5.6-5.9l-5-1.2
		c-6.3-1.5-8.5-4.7-8.5-9.5c0-7.5,6.1-10,12.4-10c6.9,0,11.1,2.5,11.9,9.1l-5.5,0.6c-0.2-3.6-2.4-5.4-6.7-5.4s-6.7,1.9-6.7,5.2
		c0,2.7,1,4.4,5.1,5.3l4.7,1.2c5.8,1.5,9.3,3.9,9.3,10c0,7.2-5.6,9.8-12.8,9.8c-7.5,0-11.8-2.4-12.7-8.5L155.9,432z"/>
	<path fill="#FFFFFF" d="M220,405.9c5.8,0,10.2,3.1,10.2,10.1v24.8h-5.6v-23.1c0-4.4-2.1-6.9-6.1-6.9c-4.1,0-8.4,3.1-8.4,10.2v19.9
		h-5.6v-23.1c0-4.4-2.1-6.9-6.1-6.9c-4.1,0-8.4,3.1-8.4,10.2v19.9h-5.6v-34.1h4.2l0.7,6.6c1.8-5.3,6.2-7.4,10.6-7.4
		c5.1,0,8.6,2.2,9.4,7.5C211.1,407.9,215.6,405.9,220,405.9z"/>
	<path fill="#FFFFFF" d="M263.9,433.5c0,2.7,1.3,3.2,2.6,3.2c0.8,0,1.3-0.1,1.8-0.3v4.5c-0.8,0.2-1.8,0.4-3,0.4
		c-3.8,0-6.2-1.7-6.6-5.5c-1.8,4.3-5.9,5.9-10.1,5.9c-6,0-10.3-3.4-10.3-9.2c0-7.5,5.8-12,20-11.3v-4.6c0-4.6-3-6.2-6.9-6.2
		c-4.1,0-6.6,1.9-6.9,5.7l-5.2-0.7c0.5-7.2,6.9-9.5,12.7-9.5c6,0,11.8,2.4,11.8,10.3V433.5z M258.3,425.3
		c-9.9-0.2-14.4,1.9-14.4,6.6c0,3.1,2,5.5,6,5.5c3.9,0,8.4-2.4,8.4-6.6V425.3z"/>
	<path fill="#FFFFFF" d="M286.2,440.9c-1.7,0.4-2.6,0.4-3.6,0.4c-4.1,0-7.2-2.2-7.2-6.9v-42.9h5.6v42c0,2.1,1.2,3.1,3,3.1
		c1,0,1.6-0.1,2.3-0.4V440.9z"/>
	<path fill="#FFFFFF" d="M304.8,440.9c-1.7,0.4-2.6,0.4-3.6,0.4c-4.1,0-7.2-2.2-7.2-6.9v-42.9h5.6v42c0,2.1,1.2,3.1,3,3.1
		c1,0,1.5-0.1,2.3-0.4V440.9z"/>
	<path fill="#FFFFFF" d="M332.8,440.8h-3.5v-49.3h5.6v21.8c1.6-5.1,6.1-7.4,10.9-7.4c8.3,0,13.5,6,13.5,17.1
		c0,10.2-5.4,18.8-14.6,18.8c-5.9,0-9.1-2.7-10.3-5.8L332.8,440.8z M334.8,427.9c0,6.8,4.7,9.5,8.8,9.5c5.4,0,9.8-4.4,9.8-14
		c0-8.6-3.5-12.9-9-12.9c-5.3,0-9.6,3.8-9.6,10.5V427.9z"/>
	<path fill="#FFFFFF" d="M388.5,434.7c-1.8,5.1-5.3,7-10.5,7c-6.2,0-10.3-3.2-10.3-11.4v-23.6h5.6v23.1c0,5.4,2.1,7.8,6.6,7.8
		c3.8,0,8.5-3.5,8.5-10.1v-20.7h5.6v34.1h-4.8L388.5,434.7z"/>
	<path fill="#FFFFFF" d="M406.9,432c0.4,4,3.3,5.8,7.7,5.8c4.3,0,7.5-1.6,7.5-5.2c0-3-1.3-4.8-5.6-5.9l-5-1.2
		c-6.3-1.5-8.5-4.7-8.5-9.5c0-7.5,6.1-10,12.4-10c6.9,0,11.1,2.5,11.9,9.1l-5.5,0.6c-0.2-3.6-2.4-5.4-6.7-5.4
		c-4.3,0-6.7,1.9-6.7,5.2c0,2.7,1,4.4,5.1,5.3l4.7,1.2c5.8,1.5,9.3,3.9,9.3,10c0,7.2-5.6,9.8-12.8,9.8c-7.5,0-11.8-2.4-12.7-8.5
		L406.9,432z"/>
	<path fill="#FFFFFF" d="M438.1,391.6c2.2,0,4.1,1.8,4.1,4.1c0,2.1-1.8,4-4.1,4c-2.1,0-3.9-1.8-3.9-4
		C434.2,393.4,436,391.6,438.1,391.6z M441,406.7v34.1h-5.6v-34.1H441z"/>
	<path fill="#FFFFFF" d="M456.9,413.3c1.8-5.1,5.8-7.4,10.9-7.4c5.8,0,10.5,3.1,10.5,10.5v24.4h-5.6v-23c0-4.4-2.2-7-6.4-7
		c-4.5,0-8.6,2.4-8.6,10.2v19.9h-5.6v-34.1h4.2L456.9,413.3z"/>
	<path fill="#FFFFFF" d="M510,431.4l4.9,1.1c-1.3,6.9-6.9,9.2-13.4,9.2c-8.9,0-14.8-6.3-14.8-17.7c0-11.4,6-18.1,15.2-18.1
		c8.6,0,13.2,6,13.2,14.4c0,2-0.3,3.8-0.7,4.7h-22.4c0.4,7.2,3.7,12.3,9.8,12.3C506.2,437.3,508.8,435.6,510,431.4z M509.7,420.5
		c0.1-0.6,0.1-1,0.1-1.6c0-4.7-3.2-8.6-8.1-8.6c-5.2,0-8.6,3.5-9.3,10.1H509.7z"/>
	<path fill="#FFFFFF" d="M525.9,432c0.4,4,3.3,5.8,7.7,5.8c4.3,0,7.5-1.6,7.5-5.2c0-3-1.3-4.8-5.6-5.9l-5-1.2
		c-6.3-1.5-8.5-4.7-8.5-9.5c0-7.5,6.1-10,12.4-10c6.9,0,11.1,2.5,11.9,9.1l-5.5,0.6c-0.2-3.6-2.4-5.4-6.7-5.4
		c-4.3,0-6.7,1.9-6.7,5.2c0,2.7,1,4.4,5.1,5.3l4.7,1.2c5.8,1.5,9.3,3.9,9.3,10c0,7.2-5.6,9.8-12.8,9.8c-7.5,0-11.8-2.4-12.7-8.5
		L525.9,432z"/>
	<path fill="#FFFFFF" d="M556.3,432c0.4,4,3.3,5.8,7.7,5.8c4.3,0,7.5-1.6,7.5-5.2c0-3-1.3-4.8-5.6-5.9l-5-1.2
		c-6.3-1.5-8.5-4.7-8.5-9.5c0-7.5,6.1-10,12.4-10c6.9,0,11.1,2.5,11.9,9.1l-5.5,0.6c-0.2-3.6-2.4-5.4-6.7-5.4
		c-4.3,0-6.7,1.9-6.7,5.2c0,2.7,1,4.4,5.1,5.3l4.7,1.2c5.8,1.5,9.3,3.9,9.3,10c0,7.2-5.6,9.8-12.8,9.8c-7.5,0-11.8-2.4-12.7-8.5
		L556.3,432z"/>
</g>
<g enable-background="new    ">
	<path fill="#FFFFFF" d="M163.4,522.1c0,2.7,1.3,3.2,2.6,3.2c0.8,0,1.3-0.1,1.8-0.3v4.5c-0.8,0.2-1.8,0.4-3,0.4
		c-3.8,0-6.2-1.7-6.6-5.5c-1.8,4.3-5.9,5.9-10.1,5.9c-6,0-10.3-3.4-10.3-9.2c0-7.5,5.8-12,20-11.3v-4.6c0-4.6-3-6.2-6.9-6.2
		c-4.1,0-6.6,1.9-6.9,5.7l-5.2-0.7c0.5-7.2,6.9-9.5,12.7-9.5c6,0,11.8,2.4,11.8,10.3V522.1z M157.8,513.8
		c-9.9-0.2-14.4,1.9-14.4,6.6c0,3.1,2,5.5,6,5.5c3.9,0,8.4-2.4,8.4-6.6V513.8z"/>
	<path fill="#FFFFFF" d="M200.6,521c-1.1,6.9-6.5,9.3-13,9.3c-8.6,0-14.6-6.3-14.6-17.7c0-11.4,6-18.1,15.2-18.1
		c7,0,11.5,3.6,12,10.5l-5.2,0.8c-0.7-4.4-3.2-6.6-7.1-6.6c-6.2,0-9.4,5.6-9.4,13.5c0,7.5,3.8,13.1,9.8,13.1c3.9,0,6.6-1.8,7.7-5.8
		L200.6,521z"/>
	<path fill="#FFFFFF" d="M234.2,521c-1.1,6.9-6.5,9.3-13,9.3c-8.6,0-14.6-6.3-14.6-17.7c0-11.4,6-18.1,15.2-18.1
		c7,0,11.5,3.6,12,10.5l-5.2,0.8c-0.7-4.4-3.2-6.6-7.1-6.6c-6.2,0-9.4,5.6-9.4,13.5c0,7.5,3.8,13.1,9.8,13.1c3.9,0,6.6-1.8,7.7-5.8
		L234.2,521z"/>
	<path fill="#FFFFFF" d="M240.1,512.1c0-11.6,6-17.6,15.2-17.6s15.2,6.1,15.2,17.6c0,11.7-6,18.2-15.2,18.2S240.1,523.8,240.1,512.1
		z M245.6,512.1c0,9.1,3.2,13.7,9.7,13.7s9.7-4.7,9.7-13.7c0-8.9-3.3-13.1-9.7-13.1S245.6,503.3,245.6,512.1z"/>
	<path fill="#FFFFFF" d="M299.8,523.3c-1.8,5.1-5.3,7-10.5,7c-6.2,0-10.3-3.2-10.3-11.4v-23.6h5.6v23.1c0,5.4,2.1,7.8,6.6,7.8
		c3.8,0,8.5-3.5,8.5-10.1v-20.7h5.6v34.1h-4.8L299.8,523.3z"/>
	<path fill="#FFFFFF" d="M321.2,501.9c1.8-5.1,5.8-7.4,10.9-7.4c5.8,0,10.5,3.1,10.5,10.5v24.4H337v-23c0-4.4-2.2-7-6.4-7
		c-4.5,0-8.6,2.4-8.6,10.2v19.9h-5.6v-34.1h4.2L321.2,501.9z"/>
	<path fill="#FFFFFF" d="M370.3,528.4c-2,1.3-4.7,1.9-7.5,1.9c-6,0-9.4-3.2-9.4-9.2v-21.3h-4.9v-4.5h4.9v-7.2l5.7-0.7v8h10.1v4.5
		h-10.2v20.3c0,3.8,1.7,5.4,4.6,5.4c2.2,0,3.7-0.5,5.6-1.8L370.3,528.4z"/>
	<path fill="#FFFFFF" d="M379.7,480.2c2.2,0,4.1,1.8,4.1,4.1c0,2.1-1.8,4-4.1,4c-2.1,0-3.9-1.8-3.9-4
		C375.8,482,377.6,480.2,379.7,480.2z M382.6,495.3v34.1H377v-34.1H382.6z"/>
	<path fill="#FFFFFF" d="M398.5,501.9c1.8-5.1,5.8-7.4,10.9-7.4c5.8,0,10.5,3.1,10.5,10.5v24.4h-5.6v-23c0-4.4-2.2-7-6.4-7
		c-4.5,0-8.6,2.4-8.6,10.2v19.9h-5.6v-34.1h4.2L398.5,501.9z"/>
	<path fill="#FFFFFF" d="M451.7,497.5c1.7-0.7,2.3-2.7,2.7-5.2l5,1.8c-0.5,3.2-2.7,5.5-5.5,6.1c1.1,1.8,1.6,4,1.6,6.5
		c0,8-6.2,11.8-13.5,11.8c-1.8,0-3.5-0.2-4.5-0.6c-1.8,1-2.6,2.1-2.6,3.8c0,2.1,1.4,3.1,4,3.1h7.9c7.7,0,11.7,3.1,11.7,9.3
		c0,8.7-9.4,11-18,11c-7.3,0-14.6-1.9-14.6-9.1c0-4.5,3.3-7.7,8.7-8.1c-3-0.4-4.5-2.4-4.5-5.1c0-2.7,1.3-4.8,4.9-5.7
		c-4.1-1.8-6.5-5.5-6.5-10.4c0-7.5,5.4-12.1,13.4-12.1C445.9,494.5,449.3,495.5,451.7,497.5z M440.9,540.9c6.9,0,12.2-1.4,12.2-6.2
		c0-2.8-1.5-5.1-6.3-5.1h-7c-5.5,0-8.5,1.8-8.5,5.9C431.2,539.5,435.5,540.9,440.9,540.9z M441.8,514.3c4.9,0,8.1-2.4,8.1-7.8
		c0-5.2-3.2-7.9-8.1-7.8c-4.9,0.1-7.9,2.8-7.9,7.8C433.9,511.2,436.9,514.3,441.8,514.3z"/>
</g>
</svg>
