<?xml version="1.0" encoding="utf-8"?>
<!-- Generator: Adobe Illustrator 18.1.1, SVG Export Plug-In . SVG Version: 6.00 Build 0)  -->
<svg version="1.1" id="Layer_1" xmlns="http://www.w3.org/2000/svg" xmlns:xlink="http://www.w3.org/1999/xlink" x="0px" y="0px"
	 viewBox="0 0 70.2 49.8" enable-background="new 0 0 70.2 49.8" xml:space="preserve" width="68px" height="50px">
<path id="XMLID_239_" fill="#FFFFFF" d="M63.8,49.8H6.3c-3.5,0-6.3-2.8-6.3-6.3V6.3C0,2.8,2.8,0,6.3,0h57.5c3.5,0,6.3,2.8,6.3,6.3
	v37.1C70.2,46.9,67.3,49.8,63.8,49.8z"/>
<g>
	<g>
		<path fill="#18B4E9" d="M23.5,24.7c0-4.6,2.4-7.1,6.4-7.1c3.9,0,6.4,2.5,6.4,7.1c0,4.6-2.4,7.1-6.4,7.1
			C25.9,31.7,23.5,29.2,23.5,24.7z M26.4,24.7c0,2.9,1.2,4.6,3.5,4.6s3.4-1.7,3.4-4.6c0-2.9-1.2-4.6-3.4-4.6
			C27.6,20,26.4,21.8,26.4,24.7z"/>
		<path fill="#18B4E9" d="M46.6,31.5l-3.9-5.7h-0.9v5.7H39V17.8h2.8v5.5h1l3.6-5.5h3.2l-4.5,6.6l4.8,7H46.6z"/>
	</g>
</g>
</svg>
