<?xml version="1.0" encoding="utf-8"?>
<!-- Generator: Adobe Illustrator 18.1.1, SVG Export Plug-In . SVG Version: 6.00 Build 0)  -->
<svg version="1.1" id="Layer_1" xmlns="http://www.w3.org/2000/svg" xmlns:xlink="http://www.w3.org/1999/xlink" x="0px" y="0px"
	 viewBox="0 0 85.9 13.6" enable-background="new 0 0 85.9 13.6" xml:space="preserve">
<g>
	<g>
		<path fill="#18B4E9" d="M6.6,13.4c-0.3-0.3-0.4-0.6-0.5-1.1l-0.5-2c-0.3-1.4-1-1.6-2.2-1.6H1.8v4.8H0V1.6h4.1c2.7,0,4,1.1,4,3.4
			c0,1.9-1.2,2.8-2.7,2.9V8c1.1,0.1,1.7,0.6,2,1.9L8,12.2c0.1,0.5,0.3,0.9,0.6,1.2H6.6z M1.8,7.1H4c1.5,0,2.2-0.6,2.2-2
			c0-1.2-0.7-2-2.2-2H1.8V7.1z"/>
		<path fill="#18B4E9" d="M16.3,10.7l1.6,0.4c-0.4,1.9-1.9,2.5-3.7,2.5c-2.5,0-4.1-1.7-4.1-4.8c0-3.1,1.6-4.9,4.2-4.9
			c2.4,0,3.7,1.6,3.7,3.9c0,0.5-0.1,1-0.2,1.3h-6c0.1,1.8,0.9,3.1,2.5,3.1C15.3,12.2,16,11.8,16.3,10.7z M16.2,7.9
			c0-0.1,0-0.3,0-0.4c0-1.2-0.8-2.1-2-2.1c-1.3,0-2.2,0.9-2.3,2.5H16.2z"/>
		<path fill="#18B4E9" d="M27.3,11.1c-0.3,1.9-1.8,2.6-3.6,2.6c-2.4,0-4.1-1.7-4.1-4.8c0-3.1,1.7-4.9,4.2-4.9c2,0,3.2,1,3.4,2.9
			l-1.6,0.3c-0.2-1.2-0.8-1.7-1.8-1.7c-1.6,0-2.4,1.4-2.4,3.4c0,2,1,3.4,2.5,3.4c1,0,1.6-0.5,1.9-1.5L27.3,11.1z"/>
		<path fill="#18B4E9" d="M28.8,8.7c0-3.1,1.7-4.8,4.2-4.8c2.6,0,4.2,1.6,4.2,4.8c0,3.2-1.7,4.9-4.2,4.9
			C30.5,13.6,28.8,11.9,28.8,8.7z M30.6,8.7c0,2.3,0.8,3.5,2.4,3.5c1.6,0,2.4-1.2,2.4-3.5c0-2.3-0.8-3.3-2.4-3.3
			C31.4,5.4,30.6,6.5,30.6,8.7z"/>
		<path fill="#18B4E9" d="M41.1,5.9c0.5-1.4,1.6-2,3-2c1.5,0,2.8,0.8,2.8,2.9v6.6h-1.8V7.3c0-1.1-0.5-1.8-1.6-1.8
			c-1.1,0-2.2,0.6-2.2,2.6v5.3h-1.8V4.2h1.4L41.1,5.9z"/>
		<path fill="#18B4E9" d="M56.8,11.1c-0.3,1.9-1.8,2.6-3.6,2.6c-2.4,0-4.1-1.7-4.1-4.8c0-3.1,1.7-4.9,4.2-4.9c2,0,3.2,1,3.4,2.9
			L55,7.2c-0.2-1.2-0.8-1.7-1.8-1.7c-1.6,0-2.4,1.4-2.4,3.4c0,2,1,3.4,2.5,3.4c1,0,1.6-0.5,1.9-1.5L56.8,11.1z"/>
		<path fill="#18B4E9" d="M59.7,0C60.4,0,61,0.5,61,1.2c0,0.7-0.6,1.2-1.3,1.2c-0.6,0-1.2-0.5-1.2-1.2C58.5,0.5,59.1,0,59.7,0z
			 M60.6,4.2v9.2h-1.8V4.2H60.6z"/>
		<path fill="#18B4E9" d="M66.6,13.4c-0.5,0.1-0.8,0.2-1.1,0.2c-1.2,0-2.1-0.6-2.1-2V0h1.8v11.1c0,0.6,0.3,0.8,0.8,0.8
			c0.3,0,0.4,0,0.6-0.1L66.6,13.4z"/>
		<path fill="#18B4E9" d="M74.2,10.7l1.6,0.4c-0.4,1.9-1.9,2.5-3.7,2.5c-2.5,0-4.1-1.7-4.1-4.8c0-3.1,1.6-4.9,4.2-4.9
			c2.4,0,3.7,1.6,3.7,3.9c0,0.5-0.1,1-0.2,1.3h-6c0.1,1.8,0.9,3.1,2.5,3.1C73.2,12.2,73.9,11.8,74.2,10.7z M74,7.9
			c0-0.1,0-0.3,0-0.4c0-1.2-0.8-2.1-2-2.1c-1.3,0-2.2,0.9-2.3,2.5H74z"/>
		<path fill="#18B4E9" d="M84.1,0h1.8v13.4h-1.6l-0.2-1.6c-0.5,1.4-1.6,1.8-2.9,1.8c-1.9,0-3.7-1.6-3.7-4.7c0-3.1,1.5-5,4.1-5
			c1.2,0,2.2,0.7,2.4,1.5V0z M84.1,7.7c0-1.6-1.2-2.3-2.3-2.3c-1.4,0-2.5,0.9-2.5,3.5c0,2.2,1,3.3,2.5,3.3c1,0,2.3-0.8,2.3-2.5V7.7z
			"/>
	</g>
</g>
</svg>
