<?xml version="1.0" encoding="utf-8"?>
<!-- Generator: Adobe Illustrator 18.1.1, SVG Export Plug-In . SVG Version: 6.00 Build 0)  -->
<svg version="1.1" id="Layer_1" xmlns="http://www.w3.org/2000/svg" xmlns:xlink="http://www.w3.org/1999/xlink" x="0px" y="0px"
	 viewBox="0 0 65.6 33" enable-background="new 0 0 65.6 33" xml:space="preserve">
<g>
	<path fill="#FFFFFF" d="M8.2,4.4H0V1.4h19.9v2.9h-8.2v23.9H8.2V4.4z"/>
	<path fill="#FFFFFF" d="M26.2,3.6c0,1.2-0.8,2.2-2.2,2.2c-1.2,0-2.1-1-2.1-2.2c0-1.2,0.9-2.2,2.2-2.2C25.3,1.4,26.2,2.4,26.2,3.6z
		 M22.3,28.3V9h3.5v19.3H22.3z"/>
	<path fill="#FFFFFF" d="M45.3,27.6c-0.9,0.5-2.9,1.1-5.5,1.1c-5.8,0-9.6-3.9-9.6-9.8c0-5.9,4.1-10.2,10.4-10.2c2.1,0,3.9,0.5,4.9,1
		l-0.8,2.7c-0.8-0.5-2.2-0.9-4.1-0.9c-4.4,0-6.8,3.3-6.8,7.3c0,4.5,2.9,7.2,6.7,7.2c2,0,3.3-0.5,4.3-1L45.3,27.6z"/>
	<path fill="#FFFFFF" d="M52.9,17.8L52.9,17.8c0.6-0.7,1.2-1.5,1.8-2.2L60.4,9h4.2l-7.5,7.9l8.5,11.4h-4.3L54.7,19l-1.8,2v7.3h-3.5
		V0h3.5V17.8z"/>
</g>
</svg>
