<?xml version="1.0" encoding="utf-8"?>
<!-- Generator: Adobe Illustrator 17.0.0, SVG Export Plug-In . SVG Version: 6.00 Build 0)  -->
<!DOCTYPE svg PUBLIC "-//W3C//DTD SVG 1.1//EN" "http://www.w3.org/Graphics/SVG/1.1/DTD/svg11.dtd">
<svg version="1.1" id="Layer_1" xmlns="http://www.w3.org/2000/svg" xmlns:xlink="http://www.w3.org/1999/xlink" x="0px" y="0px"
	 width="73px" height="13.905px" viewBox="0 0 73 13.905" enable-background="new 0 0 73 13.905" xml:space="preserve">
<g>
	<path fill="#FFFFFF" d="M4,12.927V2.296h6.479v1.678H5.93v3.014h3.989V8.63H5.93v4.296H4z"/>
	<path fill="#FFFFFF" d="M17.009,6.519c-0.234-0.072-0.506-0.109-0.812-0.109c-1.101,0-2.238,0.776-2.238,2.436v4.08h-1.896V4.588
		h1.606l0.234,2.274c0.343-1.481,1.299-2.563,3.285-2.455L17.009,6.519z"/>
	<path fill="#FFFFFF" d="M23.431,10.382l1.642,0.487c-0.378,1.697-1.805,2.274-3.411,2.274c-2.274,0-3.826-1.551-3.826-4.295
		c0-2.815,1.498-4.457,3.898-4.457c2.22,0,3.375,1.498,3.375,3.61c0,0.433-0.073,0.848-0.144,1.118h-5.306
		c0.072,1.516,0.776,2.545,2.076,2.545C22.565,11.663,23.161,11.338,23.431,10.382z M23.268,7.891
		c0.018-0.109,0.018-0.216,0.018-0.325c0-0.956-0.613-1.733-1.642-1.733c-1.101,0-1.805,0.776-1.931,2.058H23.268z"/>
	<path fill="#FFFFFF" d="M32.108,10.382l1.642,0.487c-0.378,1.697-1.805,2.274-3.41,2.274c-2.274,0-3.826-1.551-3.826-4.295
		c0-2.815,1.498-4.457,3.898-4.457c2.221,0,3.376,1.498,3.376,3.61c0,0.433-0.072,0.848-0.145,1.118h-5.306
		c0.072,1.516,0.776,2.545,2.075,2.545C31.242,11.663,31.838,11.338,32.108,10.382z M31.946,7.891
		c0.018-0.109,0.018-0.216,0.018-0.325c0-0.956-0.613-1.733-1.642-1.733c-1.101,0-1.805,0.776-1.931,2.058H31.946z"/>
	<path fill="#FFFFFF" d="M44.574,12.638c-0.596,0.343-1.353,0.504-2.202,0.504c-1.551,0-2.508-0.794-2.508-2.454v-4.62h-1.209v-1.48
		h1.209V2.82l1.913-0.234v2.003h2.472v1.48h-2.49v4.224c0,0.884,0.378,1.246,1.065,1.246c0.541,0,0.938-0.163,1.407-0.488
		L44.574,12.638z"/>
	<path fill="#FFFFFF" d="M51.033,6.519c-0.236-0.072-0.507-0.109-0.813-0.109c-1.101,0-2.238,0.776-2.238,2.436v4.08h-1.896V4.588
		h1.606l0.234,2.274c0.344-1.481,1.299-2.563,3.286-2.455L51.033,6.519z"/>
	<path fill="#FFFFFF" d="M53.682,0.762c0.704,0,1.246,0.451,1.246,1.191c0,0.703-0.54,1.191-1.246,1.191
		c-0.667,0-1.209-0.488-1.209-1.191C52.473,1.213,53.015,0.762,53.682,0.762z M54.639,4.588v8.339h-1.895V4.588H54.639z"/>
	<path fill="#FFFFFF" d="M63.174,10.779c0,0.596,0.271,0.759,0.613,0.759c0.199,0,0.362-0.037,0.488-0.09v1.426
		c-0.271,0.126-0.614,0.199-1.047,0.199c-0.992,0-1.606-0.415-1.805-1.336c-0.415,1.047-1.353,1.407-2.454,1.407
		c-1.461,0-2.472-0.848-2.472-2.274c0-1.841,1.443-2.888,4.801-2.726V7.205c0-0.938-0.524-1.335-1.337-1.335
		c-0.811,0-1.299,0.451-1.353,1.299l-1.84-0.306c0.126-1.769,1.66-2.473,3.319-2.473c1.787,0,3.086,0.74,3.086,2.636L63.174,10.779
		L63.174,10.779z M61.298,9.299c-2.058-0.054-2.907,0.434-2.907,1.372c0,0.613,0.416,1.083,1.191,1.083
		c0.795,0,1.716-0.451,1.716-1.371V9.299z"/>
	<path fill="#FFFFFF" d="M68.946,12.908c-0.434,0.109-0.776,0.163-1.137,0.163c-1.101,0-2.039-0.559-2.039-1.913V0.871h1.895v9.836
		c0,0.523,0.306,0.721,0.74,0.721c0.234,0,0.415-0.036,0.596-0.09L68.946,12.908z"/>
</g>
</svg>
