<?xml version="1.0" encoding="utf-8"?>
<!-- Generator: Adobe Illustrator 18.1.1, SVG Export Plug-In . SVG Version: 6.00 Build 0)  -->
<svg version="1.1" id="Layer_1" xmlns="http://www.w3.org/2000/svg" xmlns:xlink="http://www.w3.org/1999/xlink" x="0px" y="0px"
	 viewBox="0 0 121.1 22" enable-background="new 0 0 121.1 22" xml:space="preserve">
<g>
	<g>
		<path fill="#FFFFFF" d="M11.4,21.6H0v-19h11.4v2.2H2.5V11h7.8v2.2H2.5v6.2h8.8V21.6z"/>
		<path fill="#FFFFFF" d="M20.9,17.9c-1.2-1.9-1.2-2.3-1.2-2.3h-0.1c0,0,0,0.4-1.3,2.3l-2.4,3.7h-2.6l5-7.5l-4.7-7.4h2.8l2.1,3.5
			c1.2,2,1.3,2.3,1.3,2.3h0.1c0,0,0-0.4,1.2-2.3l2.1-3.5h2.6L21,14l5,7.6h-2.7L20.9,17.9z"/>
		<path fill="#FFFFFF" d="M39.4,17.9c-0.5,3-2.8,4.1-5.7,4.1c-3.8,0-6.4-2.7-6.4-7.7c0-5,2.6-7.9,6.7-7.9c3.1,0,5,1.6,5.2,4.6
			l-2.3,0.4c-0.3-1.9-1.4-2.9-3.1-2.9c-2.7,0-4.1,2.5-4.1,5.9c0,3.3,1.7,5.7,4.3,5.7c1.7,0,2.9-0.8,3.4-2.6L39.4,17.9z"/>
		<path fill="#FFFFFF" d="M52.1,17.4l2.2,0.5c-0.5,3-3,4-5.8,4c-3.9,0-6.5-2.7-6.5-7.7c0-5,2.6-7.9,6.7-7.9c3.7,0,5.8,2.6,5.8,6.3
			c0,0.9-0.1,1.7-0.3,2.1h-9.8c0.2,3.1,1.6,5.4,4.3,5.4C50.4,20,51.6,19.3,52.1,17.4z M51.9,12.7c0-0.3,0-0.5,0-0.7
			c0-2.1-1.4-3.7-3.6-3.7c-2.3,0-3.7,1.5-4.1,4.4H51.9z"/>
		<path fill="#FFFFFF" d="M62.8,21.6c-0.7,0.2-1.1,0.2-1.6,0.2c-1.8,0-3.2-1-3.2-3V0h2.5v18.4c0,0.9,0.5,1.4,1.3,1.4
			c0.5,0,0.7-0.1,1-0.2V21.6z"/>
		<path fill="#FFFFFF" d="M72.5,14c0-5.1,2.6-7.7,6.7-7.7c4,0,6.7,2.6,6.7,7.7c0,5.1-2.6,7.9-6.7,7.9C75.2,22,72.5,19.1,72.5,14z
			 M75,14c0,4,1.4,6,4.2,6c2.8,0,4.2-2,4.2-6c0-3.9-1.5-5.7-4.2-5.7C76.4,8.3,75,10.1,75,14z"/>
		<path fill="#FFFFFF" d="M98.7,18.9c-0.8,2.2-2.3,3.1-4.6,3.1c-2.7,0-4.5-1.4-4.5-5V6.7H92v10.1c0,2.4,0.9,3.4,2.9,3.4
			c1.7,0,3.7-1.5,3.7-4.4V6.7h2.5v14.9h-2.1L98.7,18.9z"/>
		<path fill="#FFFFFF" d="M113.3,21.1c-0.9,0.5-2.1,0.8-3.3,0.8c-2.6,0-4.1-1.4-4.1-4V8.6h-2.2v-2h2.2V3.5l2.5-0.3v3.5h4.4v2h-4.5
			v8.9c0,1.6,0.7,2.4,2,2.4c1,0,1.6-0.2,2.5-0.8L113.3,21.1z"/>
		<path fill="#FFFFFF" d="M119.1,17.8c1.1,0,2,0.9,2,2c0,1.1-0.9,2-2,2s-2-0.9-2-2C117.1,18.6,117.9,17.8,119.1,17.8z"/>
	</g>
</g>
</svg>
