<?xml version="1.0" encoding="utf-8"?>
<!-- Generator: Adobe Illustrator 18.1.1, SVG Export Plug-In . SVG Version: 6.00 Build 0)  -->
<svg version="1.1" id="Layer_1" xmlns="http://www.w3.org/2000/svg" xmlns:xlink="http://www.w3.org/1999/xlink" x="0px" y="0px"
	 viewBox="0 0 217 34.4" enable-background="new 0 0 217 34.4" xml:space="preserve">
<rect x="0" y="0" fill="#FFFFFF" width="217" height="34.4"/>
<g>
	<g>
		<path fill="#18B4E9" d="M7.8,26.9v-19h2.5v8.3h9.6V7.9h2.5v19h-2.5v-8.6h-9.6v8.6H7.8z"/>
		<path fill="#18B4E9" d="M26.6,22.1c0-2.5,1.5-4,3.6-4.8v-0.2C28,16.4,27,14.8,27,12.6c0-3.1,2.5-5.1,6-5.1s6,2,6,5.1
			c0,2.2-1,3.8-3.2,4.5v0.2c2.1,0.7,3.6,2.3,3.6,4.8c0,3.3-2.6,5.2-6.4,5.2S26.6,25.3,26.6,22.1z M29,21.8c0,2.3,1.5,3.6,3.9,3.6
			s3.9-1.4,3.9-3.6c0-2.4-1.7-3.6-3.9-3.6S29,19.4,29,21.8z M29.5,12.6c0,2.5,1.5,3.6,3.5,3.6s3.5-1.1,3.5-3.6c0-2-1.2-3.3-3.5-3.3
			C30.7,9.3,29.5,10.6,29.5,12.6z"/>
		<path fill="#18B4E9" d="M42.2,15.9v-1.5h13.2v1.5H42.2z M42.2,20v-1.5h13.2V20H42.2z"/>
		<path fill="#18B4E9" d="M60.2,21.8c0.4,2.5,1.9,3.5,4.1,3.5c2.2,0,3.7-1,3.7-3c0-1.8-0.9-2.7-4.2-4c-2.5-0.9-5.3-2-5.3-5.7
			c0-3.8,3-5.3,5.8-5.3c3.4,0,5.9,1.4,6.2,5l-2.5,0.4c-0.2-2.2-1.6-3.5-3.7-3.5c-2,0-3.4,1.1-3.4,3.1c0,2.1,1.7,2.8,4.5,3.8
			c2.6,1,5.1,2.1,5.1,5.6c0,3.6-2.9,5.3-6.4,5.3c-3.8,0-5.9-1.5-6.4-5L60.2,21.8z"/>
		<path fill="#18B4E9" d="M88.3,7.9v12.8c0,4.9-3.6,6.6-7.2,6.6S74,25.6,74,20.7V7.9h2.5v12.2c0,3.7,1.9,5.1,4.6,5.1
			c2.8,0,4.6-1.5,4.6-5V7.9H88.3z"/>
		<path fill="#18B4E9" d="M100.9,22.1L97,14.8c-1.2-2.2-1.4-3.4-1.4-3.4h-0.1c0,0,0.2,1.2,0.2,3.5v11.9h-2.5v-19h3.1l4.8,9.6
			c0.6,1.3,0.8,2.1,0.8,2.1h0.1c0,0,0.2-0.8,0.8-2.1l4.8-9.6h2.9v19h-2.5V14.9c0-2.3,0.2-3.5,0.2-3.5h-0.1c0,0-0.3,1.2-1.4,3.4
			l-3.9,7.3H100.9z"/>
		<path fill="#18B4E9" d="M121,5.3h2.8c-3.5,3.7-5.8,6.9-5.8,12c0,5.1,2.3,8.4,5.8,12.1H121c-3-3.1-5.4-6.8-5.4-12.1
			C115.6,12.1,118,8.4,121,5.3z"/>
		<path fill="#18B4E9" d="M136.9,21.3h-8l-2,5.6h-2.6l6.9-19h3.4l6.9,19h-2.7L136.9,21.3z M129.6,19.2h6.5l-1.7-4.9
			c-1-2.9-1.5-4.9-1.5-4.9h-0.1c0,0-0.5,1.9-1.5,4.8L129.6,19.2z"/>
		<path fill="#18B4E9" d="M154.9,26.9h-12v-1.9c5.1-4.1,9.2-7,9.2-11.6c0-2.6-1.4-3.9-3.6-3.9c-2.2,0-3.5,1.3-3.5,3.3
			c0,1.3,0.8,2.6,1.8,3.4l-2,1c-0.8-0.6-2.1-2.2-2.1-4.4c0-2.6,1.9-5.3,5.9-5.3c3.2,0,6,1.7,6,5.8c0,5.6-5.6,9.6-8.8,11.3v0.1h9.2
			V26.9z"/>
		<path fill="#18B4E9" d="M162.3,11.1l2.8-1.4l0.7,2l-3.2,0.5l2.2,2.5l-1.7,1.2l-1.6-2.8l-1.5,2.9l-1.7-1.3l2.2-2.4l-3.2-0.5l0.7-2
			l2.8,1.4l-0.4-3.2h2.2L162.3,11.1z"/>
		<path fill="#18B4E9" d="M178.2,17.2c2.3,0.2,4.2,1.5,4.2,4.4c0,3.3-2.1,5.4-6.7,5.4H170v-19h5.7c3.8,0,5.9,1.6,5.9,4.8
			C181.6,15.3,180.2,16.7,178.2,17.2L178.2,17.2z M175.6,16.3c2.1,0,3.5-1,3.5-3.2c0-2.2-1.4-3.1-3.7-3.1h-2.8v6.4H175.6z
			 M172.5,24.8h3.5c2.4,0,3.8-1.1,3.8-3.4c0-1.8-1-3-3.9-3h-3.5V24.8z"/>
		<path fill="#18B4E9" d="M196.3,12.1c-0.6-1.8-1.8-2.6-3.4-2.6c-3.3,0-5.1,3.2-5.1,9.4h0.1c0.6-2.7,2.4-4,4.8-4
			c3.9,0,6.1,2.7,6.1,6.2c0,3.4-2.3,6.3-6.5,6.3s-6.9-3.1-6.9-9.4c0-7.1,3.5-10.4,7.6-10.4c2.6,0,4.5,1.3,5.5,3.7L196.3,12.1z
			 M192.4,25.4c2.3,0,4-1.6,4-4.2c0-2.7-1.7-4.3-4-4.3c-2.2,0-4,1.6-4,4.3C188.4,23.7,190.1,25.4,192.4,25.4z"/>
		<path fill="#18B4E9" d="M203,29.4h-2.8c3.5-3.7,5.8-7,5.8-12.1c0-5.1-2.3-8.4-5.8-12h2.8c3,3.1,5.4,6.7,5.4,12
			C208.4,22.7,206.1,26.3,203,29.4z"/>
	</g>
</g>
</svg>
