<?xml version="1.0" encoding="utf-8"?>
<!-- Generator: Adobe Illustrator 18.1.1, SVG Export Plug-In . SVG Version: 6.00 Build 0)  -->
<svg version="1.1" id="Layer_1" xmlns="http://www.w3.org/2000/svg" xmlns:xlink="http://www.w3.org/1999/xlink" x="0px" y="0px"
	 viewBox="0 359.3 630 73.5" enable-background="new 0 359.3 630 73.5" xml:space="preserve">
<g>
	<g>
		<path fill="#FFFFFF" d="M0,425.1v-57.9h7.6v25.3h29.3v-25.3h7.6v57.9h-7.6v-26.2H7.6v26.2H0z"/>
		<path fill="#FFFFFF" d="M57.6,410.5c0-7.6,4.6-12.2,11-14.6v-0.6c-6.7-2.1-9.8-7.3-9.8-13.7c0-9.5,7.6-15.6,18.3-15.6
			s18.3,6.1,18.3,15.6c0,6.7-3,11.6-9.8,13.7v0.6c6.4,2.1,11,7,11,14.6c0,10.1-7.9,15.9-19.5,15.9S57.6,420.2,57.6,410.5z M65,409.6
			c0,7,4.6,11,11.9,11c7.3,0,11.9-4.3,11.9-11c0-7.3-5.2-11-11.9-11C70.1,398.6,65,402.3,65,409.6z M66.2,381.5
			c0,7.6,4.6,11,10.7,11c6.1,0,10.7-3.4,10.7-11c0-6.1-3.7-10.1-10.7-10.1C69.8,371.5,66.2,375.4,66.2,381.5z"/>
		<path fill="#FFFFFF" d="M105.2,391.6V387h40.3v4.6H105.2z M105.2,404.1v-4.6h40.3v4.6H105.2z"/>
		<path fill="#FFFFFF" d="M160.1,409.6c1.2,7.6,5.8,10.7,12.5,10.7c6.7,0,11.3-3,11.3-9.1c0-5.5-2.7-8.2-12.8-12.2
			c-7.6-2.7-16.2-6.1-16.2-17.4c0-11.6,9.1-16.2,17.7-16.2c10.4,0,18,4.3,18.9,15.2l-7.6,1.2c-0.6-6.7-4.9-10.7-11.3-10.7
			c-6.1,0-10.4,3.4-10.4,9.5c0,6.4,5.2,8.5,13.7,11.6c7.9,3,15.6,6.4,15.6,17.1c0,11-8.8,16.2-19.5,16.2c-11.6,0-18-4.6-19.5-15.2
			L160.1,409.6z"/>
		<path fill="#FFFFFF" d="M245.5,367.2v39c0,14.9-11,20.1-22,20.1c-11,0-21.7-5.2-21.7-20.1v-39h7.6v37.2c0,11.3,5.8,15.6,14,15.6
			c8.5,0,14-4.6,14-15.2v-37.5H245.5z"/>
		<path fill="#FFFFFF" d="M283.9,410.5L272,388.2c-3.7-6.7-4.3-10.4-4.3-10.4h-0.3c0,0,0.6,3.7,0.6,10.7v36.3h-7.6v-57.9h9.5
			l14.6,29.3c1.8,4,2.4,6.4,2.4,6.4h0.3c0,0,0.6-2.4,2.4-6.4l14.6-29.3h8.8v57.9h-7.6v-36.3c0-7,0.6-10.7,0.6-10.7h-0.3
			c0,0-0.9,3.7-4.3,10.4l-11.9,22.3H283.9z"/>
		<path fill="#FFFFFF" d="M345.2,359.3h8.5c-10.7,11.3-17.7,21-17.7,36.6s7,25.6,17.7,36.9h-8.5c-9.1-9.5-16.5-20.7-16.5-36.9
			C329,379.7,336,368.7,345.2,359.3z"/>
		<path fill="#FFFFFF" d="M405.7,408h-24.4l-6.1,17.1h-7.9l21-57.9h10.4l21,57.9h-8.2L405.7,408z M383.4,401.6h19.8l-5.2-14.9
			c-3-8.8-4.6-14.9-4.6-14.9h-0.3c0,0-1.5,5.8-4.6,14.6L383.4,401.6z"/>
		<path fill="#FFFFFF" d="M460.6,425.1H424v-5.8C439.5,406.8,452,398,452,384c0-7.9-4.3-11.9-11-11.9c-6.7,0-10.7,4-10.7,10.1
			c0,4,2.4,7.9,5.5,10.4l-6.1,3c-2.4-1.8-6.4-6.7-6.4-13.4c0-7.9,5.8-16.2,18-16.2c9.8,0,18.3,5.2,18.3,17.7
			c0,17.1-17.1,29.3-26.8,34.5v0.3h28.1v6.7H460.6z"/>
		<path fill="#FFFFFF" d="M483.1,376.6l8.5-4.3l2.1,6.1L484,380l6.7,7.6l-5.2,3.7l-4.9-8.5l-4.6,8.8l-5.2-4l6.7-7.3l-9.8-1.5
			l2.1-6.1l8.5,4.3l-1.2-9.8h6.7L483.1,376.6z"/>
		<path fill="#FFFFFF" d="M531.6,395.2c7,0.6,12.8,4.6,12.8,13.4c0,10.1-6.4,16.5-20.4,16.5h-17.4v-57.9H524c11.6,0,18,4.9,18,14.6
			C542.3,389.4,537.7,394,531.6,395.2L531.6,395.2z M523.7,392.8c6.4,0,10.7-3,10.7-9.8s-4.3-9.5-11.3-9.5h-8.5v19.2H523.7z
			 M514.5,418.7h10.7c7.3,0,11.6-3.4,11.6-10.4c0-5.5-3-9.1-11.9-9.1h-10.7v19.5H514.5z"/>
		<path fill="#FFFFFF" d="M586.8,380c-1.8-5.5-5.5-7.9-10.4-7.9c-10.1,0-15.6,9.8-15.6,28.7h0.3c1.8-8.2,7.3-12.2,14.6-12.2
			c11.9,0,18.6,8.2,18.6,18.9c0,10.4-7,19.2-19.8,19.2s-21-9.5-21-28.7c0-21.7,10.7-31.7,23.2-31.7c7.9,0,13.7,4,16.8,11.3
			L586.8,380z M574.9,420.5c7,0,12.2-4.9,12.2-12.8c0-8.2-5.2-13.1-12.2-13.1c-6.7,0-12.2,4.9-12.2,13.1
			C562.7,415.4,568.2,420.5,574.9,420.5z"/>
		<path fill="#FFFFFF" d="M613.5,432.7H605c10.7-11.3,17.7-21.3,17.7-36.9s-7-25.6-17.7-36.6h8.5c9.1,9.5,16.5,20.4,16.5,36.6
			S622.7,423.3,613.5,432.7z"/>
	</g>
</g>
</svg>
