<?xml version="1.0" encoding="utf-8"?>
<!-- Generator: Adobe Illustrator 18.1.1, SVG Export Plug-In . SVG Version: 6.00 Build 0)  -->
<svg version="1.1" id="Layer_1" xmlns="http://www.w3.org/2000/svg" xmlns:xlink="http://www.w3.org/1999/xlink" x="0px" y="0px"
	 viewBox="0 0 229.9 28.1" enable-background="new 0 0 229.9 28.1" xml:space="preserve">
<g>
	<g>
		<path fill="#FFFFFF" d="M2.4,16.5C2.8,19,4.3,20,6.5,20c2.2,0,3.7-1,3.7-3c0-1.8-0.9-2.7-4.2-4c-2.5-0.9-5.3-2-5.3-5.7
			c0-3.8,3-5.3,5.8-5.3c3.4,0,5.9,1.4,6.2,5l-2.5,0.4c-0.2-2.2-1.6-3.5-3.7-3.5c-2,0-3.4,1.1-3.4,3.1c0,2.1,1.7,2.8,4.5,3.8
			c2.6,1,5.1,2.1,5.1,5.6c0,3.6-2.9,5.3-6.4,5.3c-3.8,0-5.9-1.5-6.4-5L2.4,16.5z"/>
		<path fill="#FFFFFF" d="M18.9,28.1h-2.5V6.7h1.9l0.3,2.9c0.9-2.4,3.2-3.2,5-3.2c3.6,0,5.9,2.6,5.9,7.5c0,4.5-2.3,8.2-6.5,8.2
			c-2.3,0-3.6-1.1-4.2-2.4V28.1z M18.9,15.9c0,3,2.1,4.2,3.8,4.2c2.4,0,4.3-1.9,4.3-6.1c0-3.8-1.5-5.7-3.9-5.7
			c-2.3,0-4.2,1.7-4.2,4.6V15.9z"/>
		<path fill="#FFFFFF" d="M41.3,9.1C41,9,40.5,9,40.1,9c-2.3,0-4.2,1.9-4.2,4.8v7.8h-2.5V6.7h2l0.3,4c0.6-2.7,2.6-4.5,5.7-4.3
			L41.3,9.1z"/>
		<path fill="#FFFFFF" d="M52.9,17.4l2.2,0.5c-0.5,3-3,4-5.8,4c-3.9,0-6.5-2.7-6.5-7.7c0-5,2.6-7.9,6.7-7.9c3.7,0,5.8,2.6,5.8,6.3
			c0,0.9-0.1,1.7-0.3,2.1h-9.8c0.2,3.1,1.6,5.4,4.3,5.4C51.2,20,52.4,19.3,52.9,17.4z M52.8,12.7c0-0.3,0-0.5,0-0.7
			c0-2.1-1.4-3.7-3.6-3.7c-2.3,0-3.7,1.5-4.1,4.4H52.8z"/>
		<path fill="#FFFFFF" d="M69.3,18.4c0,1.2,0.5,1.4,1.1,1.4c0.4,0,0.6,0,0.8-0.1v2c-0.4,0.1-0.8,0.2-1.3,0.2c-1.6,0-2.7-0.7-2.9-2.4
			c-0.8,1.9-2.6,2.6-4.4,2.6c-2.6,0-4.5-1.5-4.5-4c0-3.3,2.5-5.2,8.8-4.9v-2c0-2-1.3-2.7-3-2.7c-1.8,0-2.9,0.8-3,2.5l-2.3-0.3
			c0.2-3.2,3-4.2,5.6-4.2c2.6,0,5.2,1,5.2,4.5V18.4z M66.8,14.8c-4.3-0.1-6.3,0.8-6.3,2.9c0,1.4,0.9,2.4,2.6,2.4
			c1.7,0,3.7-1.1,3.7-2.9V14.8z"/>
		<path fill="#FFFFFF" d="M84.1,0h2.5v21.6h-2.2L84.1,19c-0.9,2.3-2.7,3-4.8,3c-3,0-5.9-2.5-5.9-7.6c0-5.1,2.4-8,6.7-8
			c1.9,0,3.6,1.1,3.9,2.4V0z M84.1,12.2c0-2.8-2.2-4-3.9-4c-2.4,0-4.3,1.6-4.3,6.1c0,3.7,1.6,5.7,4.2,5.7c1.7,0,4-1.4,4-4.3V12.2z"
			/>
		<path fill="#FFFFFF" d="M92.2,17.7c0.2,1.7,1.5,2.5,3.4,2.5c1.9,0,3.3-0.7,3.3-2.3c0-1.3-0.5-2.1-2.5-2.6l-2.2-0.5
			c-2.7-0.6-3.7-2-3.7-4.2c0-3.3,2.7-4.4,5.4-4.4c3,0,4.9,1.1,5.2,4l-2.4,0.3c-0.1-1.6-1.1-2.4-2.9-2.4s-2.9,0.8-2.9,2.3
			c0,1.2,0.4,1.9,2.2,2.3l2,0.5c2.5,0.6,4.1,1.7,4.1,4.4c0,3.1-2.5,4.3-5.6,4.3c-3.3,0-5.2-1-5.6-3.7L92.2,17.7z"/>
		<path fill="#FFFFFF" d="M107.1,9.5c0.7-2.1,2.2-3.2,4.5-3.2c2.5,0,4.6,1.4,4.6,4.6v10.7h-2.5V11.5c0-1.9-1-3-2.8-3
			c-2,0-3.8,1-3.8,4.5v8.7h-2.5V0h2.5V9.5z"/>
		<path fill="#FFFFFF" d="M130,17.4l2.2,0.5c-0.5,3-3,4-5.8,4c-3.9,0-6.5-2.7-6.5-7.7c0-5,2.6-7.9,6.7-7.9c3.7,0,5.8,2.6,5.8,6.3
			c0,0.9-0.1,1.7-0.3,2.1h-9.8c0.2,3.1,1.6,5.4,4.3,5.4C128.4,20,129.5,19.3,130,17.4z M129.9,12.7c0-0.3,0-0.5,0-0.7
			c0-2.1-1.4-3.7-3.6-3.7c-2.3,0-3.7,1.5-4.1,4.4H129.9z"/>
		<path fill="#FFFFFF" d="M145.4,17.4l2.2,0.5c-0.5,3-3,4-5.8,4c-3.9,0-6.5-2.7-6.5-7.7c0-5,2.6-7.9,6.7-7.9c3.7,0,5.8,2.6,5.8,6.3
			c0,0.9-0.1,1.7-0.3,2.1h-9.8c0.2,3.1,1.6,5.4,4.3,5.4C143.7,20,144.9,19.3,145.4,17.4z M145.2,12.7c0-0.3,0-0.5,0-0.7
			c0-2.1-1.4-3.7-3.6-3.7c-2.3,0-3.7,1.5-4.1,4.4H145.2z"/>
		<path fill="#FFFFFF" d="M159,21.1c-0.9,0.5-2.1,0.8-3.3,0.8c-2.6,0-4.1-1.4-4.1-4V8.6h-2.2v-2h2.2V3.5l2.5-0.3v3.5h4.4v2h-4.5v8.9
			c0,1.6,0.7,2.4,2,2.4c1,0,1.6-0.2,2.5-0.8L159,21.1z"/>
		<path fill="#FFFFFF" d="M162.7,17.7c0.2,1.7,1.5,2.5,3.4,2.5c1.9,0,3.3-0.7,3.3-2.3c0-1.3-0.5-2.1-2.5-2.6l-2.2-0.5
			c-2.7-0.6-3.7-2-3.7-4.2c0-3.3,2.7-4.4,5.4-4.4c3,0,4.9,1.1,5.2,4l-2.4,0.3c-0.1-1.6-1.1-2.4-2.9-2.4s-2.9,0.8-2.9,2.3
			c0,1.2,0.4,1.9,2.2,2.3l2,0.5c2.5,0.6,4.1,1.7,4.1,4.4c0,3.1-2.5,4.3-5.6,4.3c-3.3,0-5.2-1-5.6-3.7L162.7,17.7z"/>
		<path fill="#FFFFFF" d="M181.3,14c0-5.1,2.6-7.7,6.7-7.7s6.7,2.6,6.7,7.7c0,5.1-2.6,7.9-6.7,7.9S181.3,19.1,181.3,14z M183.8,14
			c0,4,1.4,6,4.2,6c2.8,0,4.2-2,4.2-6c0-3.9-1.5-5.7-4.2-5.7C185.2,8.3,183.8,10.1,183.8,14z"/>
		<path fill="#FFFFFF" d="M207.4,18.9c-0.8,2.2-2.3,3.1-4.6,3.1c-2.7,0-4.5-1.4-4.5-5V6.7h2.5v10.1c0,2.4,0.9,3.4,2.9,3.4
			c1.7,0,3.7-1.5,3.7-4.4V6.7h2.5v14.9h-2.1L207.4,18.9z"/>
		<path fill="#FFFFFF" d="M222.1,21.1c-0.9,0.5-2.1,0.8-3.3,0.8c-2.6,0-4.1-1.4-4.1-4V8.6h-2.2v-2h2.2V3.5l2.5-0.3v3.5h4.4v2h-4.5
			v8.9c0,1.6,0.7,2.4,2,2.4c1,0,1.6-0.2,2.5-0.8L222.1,21.1z"/>
		<path fill="#FFFFFF" d="M227.8,17.8c1.1,0,2,0.9,2,2c0,1.1-0.9,2-2,2s-2-0.9-2-2C225.8,18.6,226.7,17.8,227.8,17.8z"/>
	</g>
</g>
</svg>
