<?xml version="1.0" encoding="utf-8"?>
<!-- Generator: Adobe Illustrator 17.0.0, SVG Export Plug-In . SVG Version: 6.00 Build 0)  -->
<!DOCTYPE svg PUBLIC "-//W3C//DTD SVG 1.1//EN" "http://www.w3.org/Graphics/SVG/1.1/DTD/svg11.dtd">
<svg version="1.1" id="Layer_1" xmlns="http://www.w3.org/2000/svg" xmlns:xlink="http://www.w3.org/1999/xlink" x="0px" y="0px"
	 width="300px" height="250px" viewBox="0 0 300 250" enable-background="new 0 0 300 250" xml:space="preserve">
<g>
	<g>
		<g>
			<path fill="#FFFFFF" d="M110.827,97.732c-1.228-1.809-1.356-2.325-1.356-2.325h-0.129c0,0-0.129,0.484-1.356,2.357l-3.713,5.683
				h-2.776l6.554-9.622l-6.231-9.396h2.906l3.325,5.198c1.324,2.066,1.389,2.454,1.389,2.454h0.097c0,0,0.097-0.42,1.356-2.422
				l3.293-5.23h2.745l-6.103,9.105l6.586,9.912h-2.776L110.827,97.732z"/>
			<path fill="#FFFFFF" d="M128.84,99.315l2.164,0.484c-0.549,3.035-3.003,4.036-5.845,4.036c-3.874,0-6.457-2.745-6.457-7.749
				c0-4.973,2.615-7.911,6.651-7.911c3.745,0,5.779,2.616,5.779,6.297c0,0.871-0.129,1.679-0.291,2.066h-9.783
				c0.162,3.132,1.615,5.359,4.295,5.359C127.161,101.898,128.323,101.155,128.84,99.315z M128.711,94.568
				c0.032-0.259,0.032-0.452,0.032-0.678c0-2.066-1.388-3.746-3.552-3.746c-2.292,0-3.745,1.55-4.068,4.424
				C121.123,94.568,128.711,94.568,128.711,94.568z"/>
			<path fill="#FFFFFF" d="M142.883,90.984c-0.291-0.064-0.775-0.097-1.194-0.097c-2.261,0-4.23,1.904-4.23,4.778v7.781h-2.453
				V88.53h2.034l0.29,4.004c0.581-2.68,2.551-4.456,5.683-4.327L142.883,90.984z"/>
			<path fill="#FFFFFF" d="M144.302,95.892c0-5.068,2.615-7.717,6.651-7.717c4.035,0,6.651,2.648,6.651,7.717
				c0,5.102-2.616,7.943-6.651,7.943C146.917,103.835,144.302,100.993,144.302,95.892z M146.723,95.892
				c0,3.972,1.421,6.006,4.23,6.006c2.809,0,4.229-2.034,4.229-6.006c0-3.874-1.453-5.715-4.229-5.715
				C148.176,90.177,146.723,92.018,146.723,95.892z"/>
			<path fill="#FFFFFF" d="M169.806,81.911c0.969,0,1.775,0.775,1.775,1.776c0,0.937-0.807,1.743-1.775,1.743
				c-0.937,0-1.711-0.807-1.711-1.743C168.095,82.687,168.869,81.911,169.806,81.911z M171.065,88.53v14.917h-2.453V88.53H171.065z"
				/>
			<path fill="#FFFFFF" d="M178.038,91.404c0.807-2.229,2.519-3.229,4.778-3.229c2.519,0,4.585,1.356,4.585,4.585v10.688h-2.454
				V93.373c0-1.904-0.969-3.066-2.809-3.066c-1.97,0-3.778,1.033-3.778,4.455v8.686h-2.453V88.53h1.84L178.038,91.404z"/>
			<path fill="#FFFFFF" d="M194.243,99.638c1.13,0,2.002,0.871,2.002,2.001c0,1.131-0.872,2.002-2.002,2.002
				s-2.002-0.871-2.002-2.002C192.241,100.509,193.113,99.638,194.243,99.638z"/>
		</g>
	</g>
</g>
</svg>
