<svg xmlns="http://www.w3.org/2000/svg" width="283.464" height="283.468"><path fill="#FFF" d="M140.938.004C62.663.45-.437 64.272.002 142.54c.452 78.274 64.266 141.38 142.536 140.926 78.276-.44 141.372-64.264 140.924-142.54C283.022 62.93 219.648 0 141.745 0c-.27 0-.545.004-.807.004"/><path fill="#00338D" d="M39.268 184.434h5.926v18.264h-5.926zm19.547 0l8.698 9.596v-9.596h4.018v18.263h-4.01L58 192.227v10.47h-4.03v-18.263m39.466 3.628c-1.553-.584-3.053-.96-4.352-.96-1.817 0-3.074.753-3.074 2.11 0 1.015.876 1.596 2.876 1.835l.527.058c3.87.477 5.65 2.147 5.65 5.146 0 3.8-3.2 6.75-8.6 6.75-1.842 0-4.47-.37-6.395-.79v-3.73c1.8.807 3.854 1.43 5.798 1.43 2 0 3.25-.97 3.25-2.07 0-1.056-.796-1.753-2.942-2.02l-.553-.05c-3.625-.48-5.77-2.506-5.77-5.48 0-3.992 2.793-6.137 8.998-6.137 2.022 0 4.595.393 4.595.393v3.526zm15.818 7.538c0 2.23 1.07 3.1 2.354 3.1 1.868 0 3.918-1.77 3.918-5.69v-8.575h5.85V202.7h-5.87v-2.07c-2.23 1.525-4.31 2.37-6.554 2.37-3.296 0-5.625-1.926-5.625-5.843v-12.722h5.928V195.6zm20.915-11.166v18.272h5.92v-7.204l3.95 7.204h6.55l-4.82-8.782c2.674-1.024 4.323-2.774 4.323-5.087 0-2.44-1.954-4.403-7.278-4.403h-8.648zm5.92 7.945v-4.9h1.205c1.68 0 2.623.97 2.623 2.22 0 1.7-1.553 2.67-3.144 2.67h-.685zm23.82-7.95l-7.015 18.26h3.675l1.55-3.994h6.167l1.63 3.993h6.347l-7.28-18.264h-5.08zm-.678 11.27l1.934-5.47 1.963 5.47h-3.898zm25.315-11.27l8.707 9.592v-9.597h4.02v18.263h-4.018l-9.522-10.47v10.47h-4.03v-18.26m42.18 3.42c-1.374-.5-2.75-.867-4.147-.867-3.297 0-5.925 2.167-5.925 6.247 0 4.467 3.004 6.89 6.728 6.89 1.07 0 2.272-.27 3.347-.57v3.153c-1.03.167-2.473.29-3.948.29-7.853 0-12.367-3.895-12.367-10.092 0-5.32 3.974-8.77 11.517-8.77 1.95 0 3.23.2 4.802.474v3.246zm22.317-3.42v3.15h-8v4.19h8v3.056h-8v4.723h8v3.142h-13.92v-18.26m-108.36-19.003c6.044 1.876 12.48 2.74 18.75 2.74 7.19 0 13.747-.915 19.58-2.74h-38.33zm42.423-1.508c1.818-.76 3.556-1.6 5.21-2.56h-57.22c1.706.96 3.48 1.81 5.3 2.553h46.705zm19.34-16.48c.504-.854 1-1.732 1.45-2.637h-15.57c-.363.913-.79 1.8-1.26 2.637h15.38zm-18.39 4.125c.737-.8 1.414-1.66 2.028-2.565h15.39c-.562.884-1.19 1.737-1.826 2.563h-15.59zm-4.87 4.12c1.177-.78 2.287-1.634 3.32-2.57h15.86c-.79.91-1.61 1.74-2.48 2.57h-16.71zm-9.24 4.124c2.312-.64 4.53-1.477 6.593-2.55h17.63c-1.055.9-2.187 1.76-3.344 2.55h-20.88zm-20.605 0c-2.257-.64-4.42-1.504-6.444-2.55H106.3c1.123.92 2.295 1.76 3.5 2.55h20.772zm-9.17-4.124c-1.18-.783-2.31-1.64-3.354-2.57h-16.07c.787.884 1.614 1.77 2.475 2.57h16.94zm-4.957-4.12c-.77-.814-1.482-1.66-2.134-2.563h-15.5c.588.89 1.21 1.742 1.86 2.562h15.77zm-3.144-4.122c-.512-.846-.97-1.714-1.38-2.638h-15.5c.444.9.908 1.8 1.405 2.637h15.47zm-13.78-47.59c-.81.856-1.58 1.734-2.302 2.637h16.05c.695-.91 1.43-1.8 2.2-2.637H99.52zm17.464-1.56c.934-.905 1.92-1.76 2.946-2.553h-15.98c-1.015.83-1.99 1.66-2.916 2.555h15.956zm5.105-4.097c1.45-.964 2.993-1.85 4.584-2.57H109.8c-1.358.82-2.666 1.646-3.918 2.57h16.204zm43.79 5.657c.776.838 1.514 1.718 2.208 2.638h16.028c-.72-.892-1.47-1.8-2.262-2.638h-15.97zm14.4-1.557c-.91-.873-1.862-1.746-2.855-2.555h-16c1.025.783 1.994 1.653 2.93 2.554h15.92zm-4.9-4.1c-1.236-.906-2.52-1.77-3.856-2.57h-16.92c1.62.73 3.157 1.597 4.643 2.57h16.126zm-49.603-18.44c2.63-1.755 7.89 1.222 3.505 4.548-.385-.35-1.265-1.466-1.405-1.678 1.646-.768 1.087-2.416-.772-1.157-.35-.343-1.126-1.33-1.33-1.71m-2.735-2.56c-2.315.63-4.59 1.03-5.505 1.02-1.33-.02-1.962 1.89.562 2.377 2.72.535 4.805-.665 6.312-1.33-.465-.668-1.12-1.605-1.37-2.062m1.925 2.945c-1.36.584-4.006 1.435-4.94 1.356-1.337-.095-2.14.375-.598 1.304 2.156 1.3 5.323.138 6.838-.8-.354-.53-1.117-1.654-1.3-1.86m1.995 2.797c-1.644.673-3.99 1.33-4.9 1.308-1.34-.052-1.187.83.21 1.4 1.404.554 4.554.105 6.173-.84-.388-.498-1.23-1.48-1.48-1.867m1.97 2.49c-1.576.77-3.758 1.395-4.596 1.34-.98-.076-1.16.8.385 1.53 1.63.783 4.288-.446 5.578-1.432-.31-.31-1.117-1.12-1.36-1.436m1.957 2.033c-1.437.918-2.696 1.33-3.536 1.756-.876.45-.237 2.422 1.397 1.92 1.36-.412 2.458-1.404 3.72-2.526-.314-.24-1.23-.838-1.58-1.157m2.394 1.614c-1.237 1.208-2.468 2.15-3.27 2.537-1.066.5.087 1.8 1.754 1.45 1.487-.306 2.21-2.49 3.614-3.22-.367-.16-1.677-.543-2.1-.763m-15.526-6.512c-1.658.345-4.98.296-5.58.06-1.425-.557-1.725.36-.354 1.262 2.918 1.93 6.822 1.592 8.476 1.092l-.027-.81c-1.19-.218-2.35-1.335-2.52-1.61m3.183 3.25c-1.787.534-5.458.46-6.31.143-1.76-.65-1.59.13-.39 1.083 2.13 1.697 6.482 1.363 8.543.428l-.165-.816c-.59-.1-1.3-.458-1.684-.844"/><path fill="#00338D" d="M123.214 84.272c-1.61.7-4.907 1.195-6.064.74-.95-.376-2.156-.133-.212 1.367 2.423 1.86 8.066.17 9.397-1.09-.988.1-2.804-.53-3.12-1.02"/><path fill="#00338D" d="M126.02 86.488c-1.398 1.018-4.18 1.746-5.644 1.57-1.612-.19-2.9.442-.252 1.714.574.28 4.037 1.55 8.768-1.676-1.293.212-2.344-.18-2.873-1.608m-10.66-11.706c-2.316.064-4.495-.207-5.375-.46-1.64-.475-2.144.816-.59 2.385 1.37 1.39 6.62 1.33 8.306.798-2.245-.97-2.342-1.887-2.342-2.723m-7.888.198c-3.2-.443-4.91-.8-6.45-1.573-1.54-.775-3.19.288-.53 2.63 2.315 2.046 7.47 1.997 9.464 1.963-1.193-.735-2.315-1.788-2.486-3.02m2.27 3.962c-3.014 0-5.703-.277-7.04-.802-1.333-.52-1.93.146-.28 1.58 1.646 1.43 6.066 2.527 9.64 2.034l.034-.645c-.944-.61-2.032-1.46-2.352-2.17m2.7 3.58c-3.113.32-5.36.17-7.005-.49-1.643-.67-1.51.42-.142 1.65 1.368 1.22 4.174 2.24 9.643 1.33l.246-.427c-.6-.28-2.312-1.22-2.738-2.07m2.636 3.295c-1.966.46-3.504.472-4.242.35-1.42-.217-1.926.32-.352 1.47 1.58 1.162 4.91 1.513 7.15.566l.038-.38c-.81-.42-2.11-1.302-2.592-2.002m40.31-10.057c-2.637-1.755-7.89 1.222-3.51 4.55.39-.35 1.268-1.468 1.407-1.68-1.643-.768-1.084-2.416.77-1.157.354-.343 1.126-1.33 1.335-1.71m2.736-2.56c2.31.63 4.59 1.03 5.5 1.02 1.335-.02 1.964 1.887-.56 2.374-2.723.535-4.81-.665-6.32-1.33.465-.668 1.125-1.605 1.38-2.062m-1.933 2.945c1.37.586 4.005 1.437 4.947 1.358 1.337-.095 2.14.375.596 1.304-2.166 1.3-5.327.133-6.84-.806.35-.53 1.125-1.652 1.297-1.86m-1.997 2.8c1.647.674 3.995 1.33 4.91 1.31 1.334-.054 1.19.83-.205 1.397-1.407.556-4.563.107-6.165-.84.375-.496 1.215-1.48 1.463-1.865m-1.965 2.49c1.574.77 3.756 1.395 4.59 1.34.98-.076 1.155.8-.383 1.53-1.63.783-4.274-.446-5.575-1.432.322-.31 1.12-1.12 1.367-1.436m-1.97 2.034c1.445.917 2.706 1.33 3.546 1.755.883.45.233 2.427-1.394 1.926-1.36-.41-2.46-1.407-3.73-2.53.31-.24 1.23-.837 1.57-1.156m-2.384 1.613c1.237 1.21 2.47 2.15 3.283 2.537 1.053.5-.095 1.8-1.773 1.45-1.48-.31-2.207-2.494-3.61-3.22.373-.16 1.682-.546 2.097-.766m15.54-6.513c1.644.344 4.972.295 5.57.06 1.42-.558 1.723.36.355 1.26-2.93 1.93-6.828 1.593-8.47 1.093l.02-.807c1.193-.215 2.344-1.332 2.52-1.607m-3.19 3.25c1.79.533 5.453.46 6.31.142 1.75-.647 1.59.13.383 1.085-2.126 1.697-6.478 1.363-8.536.428l.163-.817c.595-.1 1.297-.456 1.68-.842"/><path fill="#00338D" d="M157.96 84.272c1.61.7 4.907 1.195 6.06.74.95-.376 2.16-.133.216 1.367-2.433 1.86-8.066.17-9.4-1.09.977.1 2.81-.53 3.125-1.02"/><path fill="#00338D" d="M155.148 86.488c1.403 1.018 4.186 1.746 5.637 1.57 1.632-.19 2.908.442.252 1.714-.57.28-4.028 1.55-8.76-1.676 1.288.212 2.343-.18 2.87-1.608m10.656-11.706c2.32.064 4.486-.207 5.37-.46 1.647-.475 2.14.816.59 2.385-1.373 1.39-6.616 1.33-8.304.798 2.23-.97 2.34-1.887 2.34-2.723m7.9.198c3.17-.443 4.9-.8 6.44-1.573 1.54-.775 3.18.288.52 2.63-2.307 2.046-7.46 1.997-9.46 1.963 1.193-.735 2.31-1.788 2.492-3.02m-2.28 3.962c3.014 0 5.708-.277 7.04-.802 1.34-.52 1.928.146.28 1.58-1.647 1.43-6.057 2.527-9.643 2.034l-.028-.645c.943-.61 2.02-1.46 2.35-2.17m-2.706 3.58c3.12.32 5.363.17 7.014-.49 1.645-.67 1.51.42.145 1.65-1.367 1.22-4.176 2.24-9.65 1.33l-.23-.427c.59-.28 2.304-1.22 2.725-2.07m-2.63 3.295c1.966.46 3.493.472 4.24.35 1.42-.217 1.93.32.36 1.47-1.588 1.162-4.915 1.513-7.16.566l-.034-.38c.81-.42 2.1-1.302 2.59-2.002m-76.525 22.4v30.336c0 1.2-1.46 2.634-2.92 2.634h-5.57c-1.455 0-2.636-.404-3.71-1.665-.845-1-18.63-23.37-18.63-23.37v22.4c0 1.525-.876 2.634-2.104 2.634h-3.27c-1.213 0-2.2-1.165-2.2-2.63v-30.337c0-1.38 1.622-2.29 2.352-2.29h13.217c.87 0 1.568.305 2.074.953.51.65 12.9 16.18 12.9 16.18s-.01-13.32-.01-14.847c0-1.088.682-2.284 2.31-2.29h3.38c1.08 0 2.18 1.35 2.18 2.29m110.66 18.483h11.53l-5.78-14.19-5.748 14.19zm-48.26-20.848c1.615 0 2.747 1.04 3.28 2.335l6.85 17.623 6.947-17.67c.56-1.453 1.73-2.29 3.023-2.29h12.87c1.79 0 2.74 1.924 2.74 3.744v28.278s11.494-28.2 12.18-29.858c.69-1.653 2.07-2.165 3.156-2.165h13.55c1.207 0 2.373 1.32 2.985 2.9 0 0 10.45 25.54 11.664 28.602 1.21 3.067-.936 3.82-2.142 3.82h-8.96c-1.87 0-3.015-1.526-3.463-2.575 0 0-1.77-4.105-2.308-5.645h-16.65s-1.496 3.8-2.343 5.813c-.847 2.017-1.835 2.41-3.19 2.41h-16.3c-1.98 0-3.23-1.603-3.23-3.097v-19.12s-6.86 17.504-7.755 19.725c-.886 2.222-2.585 2.493-3.63 2.493h-5.847c-1.783 0-2.873-1.437-3.315-2.493l-7.903-19.725v20.09c0 1.62-1.373 2.127-2.52 2.127h-2.84c-1.257 0-2.23-1.043-2.23-2.247v-30.26c0-1.045.694-2.816 3.152-2.816h12.23zm-38.684 4.56c-1.155-.017-2.755 0-4.5 0v28.145c0 1.305-1.02 2.626-2.62 2.626H96.58c-1.31 0-2.84-1.463-2.84-2.627V108.6c0-1.143 1.28-2.74 3.274-2.76 1.447-.01 20.687 0 20.687 0h3.72c9.365 0 12.528 5.6 12.38 9.44-.14 3.417-2.65 6.63-7.733 8.903 0 0 6.59 12.416 7.25 13.723.653 1.31-.31 3.274-1.76 3.274H120.94c-.943 0-2.295-1.21-2.95-2.378-.644-1.16-7.842-14.69-7.842-14.69-1.124-1.964-.072-3.225 1.894-2.96 1.616.22 7.03-1.158 6.96-5.66-.037-2.69-2.155-5.13-5.73-5.087m35.64-28.91c-4.03-3.26-.353-11.845 8.375-8.617-.224.398-.604 1.077-1.188 1.873-4.85-2.31-9.74 3.15-4.65 6.27-1.97 2.28-4.2 3.78-6.4 3.85l-.55.146v2.726c0 1.25-1.93 2.196-3.86 2.2-1.95.015-3.93-.935-3.93-2.2v-2.69l-.6-.182c-2.19-.064-4.43-1.57-6.39-3.845 5.08-3.12.184-8.58-4.655-6.265-.583-.795-.964-1.474-1.184-1.872 8.72-3.227 12.4 5.357 8.375 8.617 1.3 1.643 3.35 2.007 4.455 1.77V70.85c0-.953 1.954-1.988 3.9-1.988 1.945 0 3.89 1.073 3.89 1.987v12.42c1.124.23 3.134-.157 4.41-1.776m-5.683-9.59l-2.59 2.58-2.67-2.66v2.422l2.67 2.66v-.987l2.59-2.583v-1.43zm0 3.397l-2.59 2.58-2.67-2.66v2.42l2.67 2.66v-.978l2.59-2.588v-1.43zm0 3.4l-2.59 2.59-2.67-2.665v2.417l2.67 2.664v-.978l2.59-2.59v-1.43zm0 3.4l-2.59 2.59-2.67-2.67v2.423l2.67 2.657v-.972l2.59-2.587V82.1zm0 3.397l-2.59 2.587-2.67-2.66v1.66c0 .857 1.33 1.52 2.65 1.51 1.313-.01 2.61-.662 2.61-1.51V85.5zm-2.63-15.32c-1.04 0-2.06.333-2.447.847l2.487 2.484v-.98l1.9-1.908c-.505-.28-1.22-.444-1.944-.444"/></svg>