<svg xmlns="http://www.w3.org/2000/svg" width="122.3" height="39.1"><path d="M.3.5h3.2v12.2c0 .7.3.9.6.9h.4l.4 2.4c-.4 0-.9.1-1.7.1-2.2 0-3-1.5-3-3.7V.5zm6 1.2C6.3.7 7.1 0 8.2 0 9.3 0 10 .7 10 1.7s-.8 1.7-1.9 1.7c-1 0-1.8-.7-1.8-1.7zM6.6 5h3.2v10.9H6.6V5zm6.5 2.5h-1.5V5.1l1.6-.1.4-2.9h2.7V5h2.6v2.5h-2.6v4.4c0 1.2.6 1.7 1.4 1.7.4 0 .7-.1 1-.2l.5 2.4c-.6.2-1.4.4-2.4.4-2.7 0-3.8-1.7-3.8-4.2V7.5zm8.4 0H20V5.1l1.7-.1.3-2.9h2.7V5h2.6v2.5h-2.6v4.4c0 1.2.6 1.7 1.4 1.7.4 0 .7-.1 1-.2l.5 2.4c-.6.2-1.4.4-2.4.4-2.7 0-3.8-1.7-3.8-4.2V7.5zm8-7h3.2v12.2c0 .7.3.9.6.9h.4l.4 2.4c-.4.2-.9.3-1.6.3-2.2 0-3-1.5-3-3.7V.5zm10.8 4.2c3.1 0 4.6 2.3 4.6 5.2 0 .6-.1 1.1-.1 1.4h-6.5c.3 1.7 1.4 2.4 2.8 2.4.8 0 1.6-.2 2.4-.7l1.1 2c-1.1.8-2.6 1.2-3.9 1.2-3.1 0-5.5-2.1-5.5-5.7-.1-3.6 2.5-5.8 5.1-5.8zm1.9 4.6c0-1.3-.5-2.1-1.8-2.1-1 0-1.9.7-2.1 2.1h3.9zM51.7 5h2.6l.2 1.4h.1c.9-.9 2-1.7 3.5-1.7 2.4 0 3.4 1.7 3.4 4.4v6.8h-3.2V9.5c0-1.6-.4-2.1-1.3-2.1-.8 0-1.3.4-2 1.1v7.4h-3.2V5zm18.4 3.9c-.1-1-.5-1.6-1.7-1.6-.9 0-1.8.4-2.9 1l-1.1-2.1c1.4-.8 2.9-1.4 4.7-1.4 2.8 0 4.3 1.6 4.3 4.9v6.2h-2.6l-.2-1.1h-.1c-.9.8-2 1.4-3.2 1.4-2 0-3.2-1.5-3.2-3.3-.2-2.3 1.7-3.6 6-4zm-1.8 4.7c.7 0 1.2-.4 1.8-.9v-1.9c-2.3.3-3.1 1-3.1 1.8 0 .7.5 1 1.3 1zM76.1 5h2.6l.2 1.4h.1c.9-.9 1.9-1.7 3.3-1.7 1.5 0 2.5.7 3 1.8 1-1 2-1.8 3.4-1.8 2.4 0 3.4 1.7 3.4 4.4v6.8h-3.2V9.5c0-1.6-.4-2.1-1.3-2.1-.5 0-1.2.4-1.9 1.1v7.4h-3.2V9.5c0-1.6-.4-2.1-1.3-2.1-.5 0-1.2.4-1.8 1.1v7.4h-3.2V5zm23.3-.3c3.1 0 4.6 2.3 4.6 5.2 0 .6-.1 1.1-.1 1.4h-6.5c.3 1.7 1.4 2.4 2.8 2.4.8 0 1.6-.2 2.4-.7l1.1 2c-1.1.8-2.6 1.2-3.9 1.2-3.1 0-5.5-2.1-5.5-5.7s2.5-5.8 5.1-5.8zm1.9 4.6c0-1.3-.5-2.1-1.8-2.1-1 0-1.9.7-2.1 2.1h3.9zM0 24.7c0-1 .8-1.7 1.9-1.7 1.1 0 1.9.7 1.9 1.7s-.8 1.7-1.9 1.7c-1.1 0-1.9-.7-1.9-1.7zM.3 28h3.2v10.9H.3V28zm6 0H9l.2 1.4h.1c.9-.9 2-1.7 3.5-1.7 2.4 0 3.4 1.7 3.4 4.4v6.8H13v-6.4c0-1.6-.4-2.1-1.3-2.1-.8 0-1.3.4-2 1.1v7.4H6.3V28zm17.4-3.5H27v14.3h-3.3V24.5zm6.4 3.5h2.6l.2 1.4h.1c.9-.9 2-1.7 3.5-1.7 2.4 0 3.4 1.7 3.4 4.4v6.8h-3.2v-6.4c0-1.6-.4-2.1-1.3-2.1-.8 0-1.3.4-2 1.1v7.4h-3.2V28zm13.1 7.6c1 .7 1.9 1.1 2.8 1.1 1 0 1.4-.4 1.4-.9 0-.7-1.1-1.1-2.2-1.5-1.3-.5-2.9-1.4-2.9-3.2 0-2 1.7-3.4 4.2-3.4 1.7 0 2.9.7 3.9 1.4L48.8 31c-.8-.6-1.5-.9-2.3-.9-.8 0-1.2.3-1.2.9 0 .7 1 1 2.1 1.4 1.4.5 2.9 1.3 2.9 3.3 0 2-1.6 3.5-4.5 3.5-1.4 0-3.1-.6-4.2-1.5l1.6-2.1zm9.1-7.6h3.2v6.4c0 1.6.4 2.1 1.4 2.1.8 0 1.3-.4 1.9-1.2V28H62v10.9h-2.6l-.2-1.5h-.1c-.9 1.1-1.9 1.8-3.4 1.8-2.4 0-3.4-1.7-3.4-4.4V28zm12.6 0h2.6l.2 1.9h.1c.8-1.5 2-2.2 3.1-2.2.6 0 1 .1 1.3.2l-.5 2.8c-.4-.1-.7-.2-1.2-.2-.8 0-1.8.5-2.4 2v6.3h-3.2V28zm13.9 3.9c-.1-1-.5-1.6-1.7-1.6-.9 0-1.8.4-2.9 1L73 29.1c1.4-.8 2.9-1.4 4.7-1.4 2.8 0 4.3 1.6 4.3 4.9v6.2h-2.6l-.2-1.1h-.1c-.9.8-2 1.4-3.2 1.4-2 0-3.2-1.5-3.2-3.3-.1-2.2 1.8-3.5 6.1-3.9zM77 36.6c.7 0 1.2-.4 1.8-.9v-1.9c-2.3.3-3.1 1-3.1 1.8 0 .7.5 1 1.3 1zm7.8-8.6h2.6l.2 1.4h.1c.9-.9 2-1.7 3.5-1.7 2.4 0 3.4 1.7 3.4 4.4v6.8h-3.2v-6.4c0-1.6-.4-2.1-1.3-2.1-.8 0-1.3.4-2 1.1v7.4h-3.2V28zm17.6-.3c1.3 0 2.5.5 3.2 1.3l-1.5 2c-.5-.4-1-.6-1.5-.6-1.6 0-2.6 1.2-2.6 3.1 0 1.9 1 3.1 2.4 3.1.8 0 1.4-.4 2-.8l1.3 2c-1.1.9-2.4 1.4-3.6 1.4-3 0-5.4-2.1-5.4-5.7 0-3.7 2.7-5.8 5.7-5.8zm9.1 0c3.1 0 4.6 2.3 4.6 5.2 0 .6-.1 1.1-.1 1.4h-6.5c.3 1.6 1.4 2.4 2.8 2.4.8 0 1.6-.2 2.4-.7l1.1 2c-1.1.8-2.6 1.2-3.9 1.2-3.1 0-5.5-2.1-5.5-5.7s2.5-5.8 5.1-5.8zm1.9 4.6c0-1.3-.5-2.1-1.8-2.1-1 0-1.9.7-2.1 2.1h3.9zm6.9 2.8c1.1 0 2 .9 2 2s-.8 2-2 2-2-.9-2-2 .9-2 2-2z" fill="#592C82"/></svg>