<svg xmlns="http://www.w3.org/2000/svg" width="111.2" height="20.5"><path d="M4 4.3H0V1.5h11.1v2.7H7.2v11.6H4V4.3zM13.1.5h3.2v3.8l-.2 2c.8-.7 1.9-1.5 3.4-1.5 2.4 0 3.4 1.7 3.4 4.4V16h-3.2V9.5c0-1.6-.4-2.1-1.3-2.1-.8 0-1.3.4-2 1.1v7.4h-3.2V.5zm17.1 4.2c3.1 0 4.6 2.3 4.6 5.2 0 .6-.1 1.1-.1 1.4h-6.5c.3 1.7 1.4 2.4 2.8 2.4.8 0 1.6-.2 2.4-.7l1.1 2c-1.1.8-2.6 1.2-3.9 1.2-3.1 0-5.5-2.1-5.5-5.7-.1-3.6 2.5-5.8 5.1-5.8zm1.9 4.6c0-1.3-.5-2.1-1.8-2.1-1 0-1.9.7-2.1 2.1h3.9zM41.6.5h3.2v3.8L44.7 6c.8-.7 1.9-1.2 2.9-1.2 2.6 0 4.3 2.2 4.3 5.5 0 3.8-2.2 5.9-4.6 5.9-1 0-2-.5-2.8-1.4h-.1l-.3 1.1h-2.5V.5zm5 13c1.1 0 2-1 2-3.2 0-2-.6-2.9-1.9-2.9-.7 0-1.3.3-1.9 1v4.5c.7.4 1.3.6 1.8.6zM54 1.7c0-1 .8-1.7 1.9-1.7 1.1 0 1.9.7 1.9 1.7s-.8 1.7-1.9 1.7c-1.1 0-1.9-.7-1.9-1.7zm.3 3.3h3.2v10.9h-3.2V5zm6.9 10.6c-.6-.5-1-1-1-1.9 0-.8.5-1.6 1.2-2v-.1c-.8-.5-1.5-1.6-1.5-2.8 0-2.6 2.2-3.9 4.5-3.9.6 0 1.2.1 1.7.3h4v2.4h-1.7c.2.3.4.9.4 1.4 0 2.5-1.9 3.7-4.3 3.7-.4 0-.8-.1-1.3-.2-.3.2-.4.4-.4.8 0 .5.4.8 1.7.8h1.8c2.7 0 4.2.8 4.2 2.8 0 2.3-2.4 3.9-6.1 3.9-2.6 0-4.6-.8-4.6-2.8-.2-1.1.4-1.9 1.4-2.4zm3.5 2.9c1.5 0 2.5-.6 2.5-1.3 0-.7-.6-.9-1.7-.9h-1.1c-.7 0-1.2 0-1.5-.1-.4.4-.6.7-.6 1.1 0 .8 1 1.2 2.4 1.2zM66 8.6c0-1.1-.6-1.8-1.5-1.8S63 7.4 63 8.6c0 1.2.6 1.8 1.5 1.8.8.1 1.5-.5 1.5-1.8zm7 7c-.6-.5-1-1-1-1.9 0-.8.5-1.6 1.2-2v-.1c-.8-.5-1.5-1.6-1.5-2.8 0-2.6 2.2-3.9 4.5-3.9.6 0 1.2.1 1.7.3h4v2.4h-1.7c.2.3.4.9.4 1.4 0 2.5-1.9 3.7-4.3 3.7-.4 0-.8-.1-1.3-.2-.3.2-.4.4-.4.8 0 .5.4.8 1.7.8h1.8c2.7 0 4.2.8 4.2 2.8 0 2.3-2.4 3.9-6.1 3.9-2.6 0-4.6-.8-4.6-2.8-.2-1.1.3-1.9 1.4-2.4zm3.5 2.9c1.5 0 2.5-.6 2.5-1.3 0-.7-.6-.9-1.7-.9h-1.1c-.7 0-1.2 0-1.5-.1-.4.4-.6.7-.6 1.1 0 .8.9 1.2 2.4 1.2zm1.2-9.9c0-1.1-.6-1.8-1.5-1.8s-1.5.6-1.5 1.8c0 1.2.6 1.8 1.5 1.8.9.1 1.5-.5 1.5-1.8zm10.2-3.9c3.1 0 4.6 2.3 4.6 5.2 0 .6-.1 1.1-.1 1.4h-6.5c.3 1.7 1.4 2.4 2.8 2.4.8 0 1.6-.2 2.4-.7l1.1 2c-1.1.8-2.6 1.2-3.9 1.2-3.1 0-5.5-2.1-5.5-5.7s2.5-5.8 5.1-5.8zm1.9 4.6c0-1.3-.5-2.1-1.8-2.1-1 0-1.9.7-2.1 2.1h3.9zm5.5 3.3c1 .7 1.9 1.1 2.8 1.1 1 0 1.4-.4 1.4-.9 0-.7-1.1-1.1-2.2-1.5-1.3-.5-2.9-1.4-2.9-3.2 0-2 1.7-3.4 4.2-3.4 1.7 0 2.9.7 3.9 1.4L101 8c-.8-.6-1.5-.9-2.3-.9-.8 0-1.2.3-1.2.9 0 .7 1 1 2.1 1.4 1.4.5 2.9 1.3 2.9 3.3 0 2-1.6 3.5-4.5 3.5-1.4 0-3.1-.6-4.2-1.5l1.5-2.1zm9.7-5.1h-1.5V5.1l1.7-.1.4-2.9h2.7V5h2.6v2.5h-2.6v4.4c0 1.2.6 1.7 1.4 1.7.4 0 .7-.1 1-.2l.5 2.4c-.6.2-1.4.4-2.4.4-2.7 0-3.8-1.7-3.8-4.2V7.5z" fill="#592C82"/></svg>