<svg xmlns="http://www.w3.org/2000/svg" width="254.5" height="15.9"><path d="M6.6 9.6H3.2l-.7 2.6H0l3.5-11h3L10 12.3H7.3l-.7-2.7zm-.5-1.9l-.3-1c-.3-1.1-.5-2.5-.9-3.6-.3 1.2-.6 2.5-.9 3.6l-.3 1h2.4zm4.7-3.9h2.5v4.9c0 1.2.3 1.6 1.1 1.6.6 0 1-.3 1.5-.9V3.8h2.5v8.4h-2l-.2-1.2h-.1c-.7.9-1.5 1.4-2.7 1.4-1.8 0-2.6-1.3-2.6-3.4V3.8zM21 9.7c.8.6 1.5.9 2.2.9.7 0 1.1-.3 1.1-.7 0-.6-.8-.8-1.7-1.2-1-.4-2.2-1.1-2.2-2.5 0-1.6 1.3-2.6 3.2-2.6 1.3 0 2.2.5 3 1.1l-1.1 1.5c-.6-.4-1.2-.7-1.8-.7-.6 0-1 .2-1 .7 0 .5.8.7 1.6 1.1 1.1.4 2.3 1 2.3 2.5s-1.2 2.7-3.5 2.7c-1.1 0-2.4-.5-3.2-1.2L21 9.7zm7.5-3.9h-1.2V3.9l1.3-.1.3-2.2H31v2.2h2v2h-2v3.4c0 1 .4 1.3 1.1 1.3.3 0 .6-.1.8-.2l.4 1.8c-.4.1-1.1.3-1.9.3-2.1 0-2.9-1.3-2.9-3.3V5.8zm6.1-2h2l.2 1.5h.1c.6-1.1 1.5-1.7 2.4-1.7.5 0 .8.1 1 .2L39.9 6c-.3-.1-.6-.1-.9-.1-.6 0-1.4.4-1.9 1.5v4.9h-2.5V3.8zm10.7 3.1c-.1-.7-.4-1.2-1.3-1.2-.7 0-1.4.3-2.2.8l-.9-1.6c1.1-.6 2.3-1.1 3.6-1.1 2.2 0 3.3 1.2 3.3 3.8v4.8h-2l-.2-.9h-.1c-.7.6-1.5 1.1-2.5 1.1-1.5 0-2.5-1.1-2.5-2.5.1-1.9 1.5-2.9 4.8-3.2zm-1.4 3.6c.6 0 1-.3 1.4-.7V8.3c-1.7.3-2.3.8-2.3 1.4 0 .6.3.8.9.8zM50 .4h2.5v9.4c0 .5.2.7.4.7h.3l.3 1.9c-.3.1-.7.2-1.3.2-1.7 0-2.3-1.1-2.3-2.8V.4zm4.6.9c0-.8.6-1.3 1.4-1.3.8 0 1.4.5 1.4 1.3s-.6 1.3-1.4 1.3c-.8 0-1.4-.5-1.4-1.3zm.2 2.5h2.5v8.4h-2.5V3.8zM64 6.9c-.1-.7-.4-1.2-1.3-1.2-.7 0-1.4.3-2.2.8l-.9-1.6c1.1-.6 2.3-1.1 3.6-1.1 2.2 0 3.3 1.2 3.3 3.8v4.8h-2l-.2-.9h-.1c-.7.6-1.5 1.1-2.5 1.1-1.5 0-2.5-1.1-2.5-2.5 0-1.9 1.4-2.9 4.8-3.2zm-1.4 3.6c.6 0 1-.3 1.4-.7V8.3c-1.8.2-2.4.7-2.4 1.4 0 .6.4.8 1 .8zm5.7-5.3c1-.5 1.5-1.1 1.5-2.2h-.2c-.7 0-1.3-.5-1.3-1.2 0-.8.5-1.4 1.3-1.4 1 0 1.6.8 1.6 2.2 0 1.6-.8 2.8-2.4 3.6l-.5-1zM73 9.7c.8.6 1.5.9 2.2.9.7 0 1.1-.3 1.1-.7 0-.6-.8-.8-1.7-1.2-1-.4-2.2-1.1-2.2-2.5 0-1.6 1.3-2.6 3.2-2.6 1.3 0 2.2.5 3 1.1l-1.1 1.5c-.6-.4-1.2-.7-1.8-.7-.6 0-1 .2-1 .7 0 .5.8.7 1.6 1.1 1.1.4 2.3 1 2.3 2.5s-1.2 2.7-3.5 2.7c-1.1 0-2.4-.5-3.2-1.2L73 9.7zM83.7.4h2.5v9.4c0 .5.2.7.4.7h.3l.3 1.9c-.3.1-.7.2-1.3.2-1.7 0-2.3-1.1-2.3-2.8V.4zM93 6.9c-.1-.7-.4-1.2-1.3-1.2-.7 0-1.4.3-2.2.8l-.9-1.6c1.1-.6 2.3-1.1 3.6-1.1 2.2 0 3.3 1.2 3.3 3.8v4.8h-2l-.2-.9h-.1c-.7.6-1.5 1.1-2.5 1.1-1.5 0-2.5-1.1-2.5-2.5.1-1.9 1.5-2.9 4.8-3.2zm-1.4 3.6c.6 0 1-.3 1.4-.7V8.3c-1.8.2-2.4.7-2.4 1.4.1.6.5.8 1 .8zm6.1-6.7h2l.2 1.5h.1c.6-1.1 1.5-1.7 2.4-1.7.5 0 .8.1 1 .2L103 6c-.3-.1-.6-.1-.9-.1-.6 0-1.4.4-1.9 1.5v4.9h-2.5V3.8zM105 12c-.4-.4-.8-.8-.8-1.5 0-.6.4-1.2 1-1.6-.6-.4-1.1-1.2-1.1-2.2 0-2 1.7-3 3.5-3 .5 0 .9.1 1.3.2h3.1v1.8h-1.3c.2.3.3.7.3 1.1 0 1.9-1.5 2.8-3.3 2.8-.3 0-.6-.1-1-.2-.2.2-.3.3-.3.6 0 .4.3.6 1.3.6h1.4c2.1 0 3.2.6 3.2 2.1 0 1.8-1.8 3-4.7 3-2 0-3.5-.6-3.5-2.1-.3-.6.1-1.1.9-1.6zm2.7 2.3c1.1 0 1.9-.5 1.9-1s-.5-.7-1.3-.7h-.9c-.6 0-.9 0-1.2-.1-.3.3-.5.5-.5.8.1.7.9 1 2 1zm.9-7.6c0-.9-.5-1.4-1.2-1.4s-1.2.5-1.2 1.4c0 .9.5 1.4 1.2 1.4s1.2-.5 1.2-1.4zm7.9-3.1c2.4 0 3.6 1.8 3.6 4 0 .4-.1.8-.1 1.1h-5c.2 1.3 1.1 1.8 2.2 1.8.6 0 1.2-.2 1.8-.6l.8 1.5c-.9.6-2 1-3 1-2.4 0-4.3-1.6-4.3-4.4.1-2.7 2-4.4 4-4.4zm1.5 3.6c0-1-.4-1.6-1.4-1.6-.8 0-1.5.5-1.6 1.6h3zm4.2 2.5c.8.6 1.5.9 2.2.9.7 0 1.1-.3 1.1-.7 0-.6-.8-.8-1.7-1.2-1-.4-2.2-1.1-2.2-2.5 0-1.6 1.3-2.6 3.2-2.6 1.3 0 2.2.5 3 1.1l-1.1 1.5c-.6-.4-1.2-.7-1.8-.7-.6 0-1 .2-1 .7 0 .5.8.7 1.6 1.1 1.1.4 2.3 1 2.3 2.5s-1.2 2.7-3.5 2.7c-1.1 0-2.4-.5-3.2-1.2l1.1-1.6zm7.5-3.9h-1.2V3.9l1.3-.1.3-2.2h2.1v2.2h2v2h-2v3.4c0 1 .4 1.3 1.1 1.3.3 0 .6-.1.8-.2l.4 1.8c-.4.1-1.1.3-1.9.3-2.1 0-2.9-1.3-2.9-3.3V5.8zm10.4 6.2c-.4-.4-.8-.8-.8-1.5 0-.6.4-1.2 1-1.6-.6-.4-1.1-1.2-1.1-2.2 0-2 1.7-3 3.5-3 .5 0 .9.1 1.3.2h3.1v1.8h-1.3c.2.3.3.7.3 1.1 0 1.9-1.5 2.8-3.3 2.8-.3 0-.6-.1-1-.2-.2.2-.3.3-.3.6 0 .4.3.6 1.3.6h1.4c2.1 0 3.2.6 3.2 2.1 0 1.8-1.8 3-4.7 3-2 0-3.5-.6-3.5-2.1-.3-.6.1-1.1.9-1.6zm2.7 2.3c1.1 0 1.9-.5 1.9-1s-.5-.7-1.3-.7h-.9c-.6 0-.9 0-1.2-.1-.3.3-.5.5-.5.8.2.7.9 1 2 1zm1-7.6c0-.9-.5-1.4-1.2-1.4s-1.2.5-1.2 1.4c0 .9.5 1.4 1.2 1.4s1.2-.5 1.2-1.4zm7.9-3.1c2.4 0 3.6 1.8 3.6 4 0 .4-.1.8-.1 1.1h-5c.2 1.3 1.1 1.8 2.2 1.8.6 0 1.2-.2 1.8-.6l.8 1.5c-.9.6-2 1-3 1-2.4 0-4.3-1.6-4.3-4.4 0-2.7 2-4.4 4-4.4zm1.5 3.6c0-1-.4-1.6-1.4-1.6-.8 0-1.5.5-1.6 1.6h3zm3.8-3.4h2l.2 1.1h.1c.7-.7 1.6-1.3 2.7-1.3 1.8 0 2.6 1.3 2.6 3.4v5.2h-2.5V7.4c0-1.2-.3-1.6-1-1.6-.6 0-1 .3-1.6.8v5.7H157V3.8zm13.2-.2c2.4 0 3.6 1.8 3.6 4 0 .4-.1.8-.1 1.1h-5c.2 1.3 1.1 1.8 2.2 1.8.6 0 1.2-.2 1.8-.6l.8 1.5c-.9.6-2 1-3 1-2.4 0-4.3-1.6-4.3-4.4 0-2.7 2-4.4 4-4.4zm1.5 3.6c0-1-.4-1.6-1.4-1.6-.8 0-1.5.5-1.6 1.6h3zm3.8-3.4h2l.2 1.5h.1c.6-1.1 1.5-1.7 2.4-1.7.5 0 .8.1 1 .2l-.4 2.2c-.3-.1-.6-.1-.9-.1-.6 0-1.4.4-1.9 1.5v4.9h-2.5V3.8zm10.7 3.1c-.1-.7-.4-1.2-1.3-1.2-.7 0-1.4.3-2.2.8l-.9-1.6c1.1-.6 2.3-1.1 3.6-1.1 2.2 0 3.3 1.2 3.3 3.8v4.8h-2l-.2-.9h-.1c-.7.6-1.5 1.1-2.5 1.1-1.5 0-2.5-1.1-2.5-2.5.1-1.9 1.5-2.9 4.8-3.2zm-1.3 3.6c.6 0 1-.3 1.4-.7V8.3c-1.8.2-2.4.7-2.4 1.4 0 .6.4.8 1 .8zm6-10.1h2.5v9.4c0 .5.2.7.4.7h.3l.3 1.9c-.3.1-.7.2-1.3.2-1.7 0-2.3-1.1-2.3-2.8V.4zm8.2.9c0-.8.6-1.3 1.4-1.3.8 0 1.4.5 1.4 1.3s-.6 1.3-1.4 1.3c-.8 0-1.4-.5-1.4-1.3zm.2 2.5h2.5v8.4h-2.5V3.8zm4.7 0h2l.2 1.1h.1c.7-.7 1.6-1.3 2.7-1.3 1.8 0 2.6 1.3 2.6 3.4v5.2h-2.5V7.4c0-1.2-.3-1.6-1-1.6-.6 0-1 .3-1.6.8v5.7H204V3.8zm10.1 5.9c.8.6 1.5.9 2.2.9.7 0 1.1-.3 1.1-.7 0-.6-.8-.8-1.7-1.2-1-.4-2.2-1.1-2.2-2.5 0-1.6 1.3-2.6 3.2-2.6 1.3 0 2.2.5 3 1.1l-1.1 1.5c-.6-.4-1.2-.7-1.8-.7-.6 0-1 .2-1 .7 0 .5.8.7 1.6 1.1 1.1.4 2.3 1 2.3 2.5s-1.2 2.7-3.5 2.7c-1.1 0-2.4-.5-3.2-1.2l1.1-1.6zm7.1-5.9h2.5v4.9c0 1.2.3 1.6 1.1 1.6.6 0 1-.3 1.5-.9V3.8h2.5v8.4h-2l-.2-1.2h-.1c-.7.9-1.5 1.4-2.7 1.4-1.8 0-2.6-1.3-2.6-3.4V3.8zm9.7 0h2l.2 1.5h.1c.6-1.1 1.5-1.7 2.4-1.7.5 0 .8.1 1 .2l-.4 2.2c-.3-.1-.6-.1-.9-.1-.6 0-1.4.4-1.9 1.5v4.9h-2.5V3.8zm10.1-.2c2.4 0 3.6 1.8 3.6 4 0 .4-.1.8-.1 1.1h-5c.2 1.3 1.1 1.8 2.2 1.8.6 0 1.2-.2 1.8-.6l.8 1.5c-.9.6-2 1-3 1-2.4 0-4.3-1.6-4.3-4.4 0-2.7 1.9-4.4 4-4.4zm1.4 3.6c0-1-.4-1.6-1.4-1.6-.8 0-1.5.5-1.6 1.6h3zm3.9-3.4h2l.2 1.5h.1c.6-1.1 1.5-1.7 2.4-1.7.5 0 .8.1 1 .2l-.4 2.2c-.3-.1-.6-.1-.9-.1-.6 0-1.4.4-1.9 1.5v4.9h-2.5V3.8zm6.7 5.5c.9 0 1.5.7 1.5 1.6 0 .9-.6 1.6-1.5 1.6s-1.5-.7-1.5-1.6c0-.9.6-1.6 1.5-1.6z" fill="#FFF"/></svg>