<svg xmlns="http://www.w3.org/2000/svg" width="94.6" height="13.5"><path d="M0 0h3v10.7h5.2v2.5H0V0zm13.5 2.9c2.9 0 4.3 2.1 4.3 4.8 0 .5-.1 1-.1 1.3h-6c.3 1.5 1.3 2.2 2.6 2.2.8 0 1.4-.2 2.2-.7l1 1.8c-1 .7-2.4 1.1-3.6 1.1-2.9 0-5.1-1.9-5.1-5.3 0-3.2 2.3-5.2 4.7-5.2zm1.8 4.3c0-1.2-.5-2-1.7-2-.9 0-1.7.6-1.9 2h3.6zm9.1-.4c-.1-.9-.5-1.5-1.6-1.5-.9 0-1.7.3-2.7.9l-1.1-2c1.3-.8 2.7-1.3 4.3-1.3 2.6 0 4 1.5 4 4.5v5.8h-2.4l-.2-1h-.1c-.9.8-1.8 1.3-2.9 1.3-1.8 0-3-1.3-3-3 0-2.2 1.7-3.3 5.7-3.7zm-1.7 4.4c.7 0 1.1-.3 1.7-.9V8.5c-2.1.3-2.8.9-2.8 1.7-.1.7.4 1 1.1 1zm6.6-8h2.4l.3 1.7c.7-1.4 1.8-2 2.9-2 .6 0 .9.1 1.2.2l-.5 2.6c-.4-.1-.7-.2-1.1-.2-.8 0-1.7.5-2.2 1.8v5.8h-3V3.2zm7.5 0h2.4l.2 1.3h.1c.9-.8 1.9-1.5 3.2-1.5 2.2 0 3.1 1.5 3.1 4.1v6.3h-3v-6c0-1.5-.4-1.9-1.2-1.9-.8 0-1.2.3-1.9 1v6.8h-3V3.2zm14.6 0h2.4l.2 1.3h.1c.8-.8 1.7-1.5 3-1.5 1.4 0 2.3.6 2.8 1.7.9-.9 1.8-1.7 3.2-1.7 2.2 0 3.1 1.5 3.1 4.1v6.3h-3v-6c0-1.5-.4-1.9-1.2-1.9-.5 0-1.1.3-1.7 1v6.8h-3V7.4c0-1.5-.4-1.9-1.2-1.9-.5 0-1.1.3-1.7 1v6.8h-3V3.2zm21.2-.3c2.5 0 4.9 1.9 4.9 5.3s-2.4 5.3-4.9 5.3c-2.6 0-4.9-1.9-4.9-5.3s2.3-5.3 4.9-5.3zm0 8.2c1.2 0 1.8-1.1 1.8-2.9 0-1.7-.6-2.9-1.8-2.9-1.2 0-1.8 1.1-1.8 2.9-.1 1.7.5 2.9 1.8 2.9zm6.3-7.9h2.4l.2 1.8h.1c.7-1.4 1.8-2 2.9-2 .6 0 .9.1 1.2.2l-.5 2.6c-.4-.1-.7-.2-1.1-.2-.8 0-1.7.5-2.2 1.8v5.8h-3v-10zm11.4-.3c2.9 0 4.3 2.1 4.3 4.8 0 .5-.1 1-.1 1.3h-6c.3 1.5 1.3 2.2 2.6 2.2.8 0 1.4-.2 2.2-.7l1 1.8c-1 .7-2.4 1.1-3.6 1.1-2.9 0-5.1-1.9-5.1-5.3 0-3.2 2.3-5.2 4.7-5.2zm1.8 4.3c0-1.2-.5-2-1.7-2-.9 0-1.7.6-1.9 2h3.6z" fill="#4B2F91"/></svg>