<svg xmlns="http://www.w3.org/2000/svg" width="47.6" height="32.5"><path fill="#FFF" d="M0 28.2h1.4v4.2H0zm6.6 0v2.2l-2.1-2.2H3.4v4.2h.9V30l2.3 2.4h.9v-4.2m5.1.8c-.4-.1-.7-.2-1-.2-.4 0-.7.2-.7.5 0 .2.2.4.7.4h.1c.9.1 1.3.5 1.3 1.2 0 .9-.7 1.6-2 1.6-.4 0-1-.1-1.5-.2v-.9c.4.2.9.3 1.3.3.5 0 .8-.2.8-.5 0-.2-.2-.4-.7-.5h-.1c-.8-.1-1.3-.6-1.3-1.3 0-.9.6-1.4 2.1-1.4.5 0 1.1.1 1.1.1v.9zm3.6 1.8c0 .5.2.7.5.7.4 0 .9-.4.9-1.3v-2H19v4.2h-1.4v-.5c-.5.4-1 .6-1.5.6-.8 0-1.3-.4-1.3-1.4v-3h1.4v2.7zm4.9-2.6v4.2h1.4v-1.7l.9 1.7h1.5l-1.1-2c.6-.2 1-.6 1-1.2s-.5-1-1.7-1h-2zm1.4 1.8v-1.1h.3c.4 0 .6.2.6.5 0 .4-.4.6-.7.6h-.2zm5.5-1.8l-1.6 4.2h.9l.4-.9H29l.4.9h1.5l-1.7-4.2H28zm-.2 2.6l.4-1.3.5 1.3h-.9zm5.9-2.6l2 2.2v-2.2h1v4.2h-1L33.5 30v2.4h-.9v-4.2m9.8.8c-.3-.1-.6-.2-1-.2-.8 0-1.4.5-1.4 1.5s.7 1.6 1.6 1.6c.2 0 .5-.1.8-.1v.7c-.2 0-.6.1-.9.1-1.8 0-2.9-.9-2.9-2.3 0-1.2.9-2 2.7-2 .5 0 .7 0 1.1.1v.6zm5.2-.8v.7h-1.9v1h1.9v.7h-1.9v1.1h1.9v.7h-3.3v-4.2M19 23.3c1.5.5 3 .7 4.5.7 1.7 0 3.3-.2 4.7-.7H19zm10.2-.4c.4-.2.9-.4 1.3-.6H16.7c.4.2.8.4 1.3.6h11.2zm4.7-4l.3-.6h-3.8l-.3.6h3.8zm-4.4 1c.2-.2.3-.4.5-.6h3.7c-.1.2-.3.4-.4.6h-3.8zm-1.2 1c.3-.2.6-.4.8-.6h3.8l-.6.6h-4zm-2.2 1c.6-.2 1.1-.4 1.6-.6H32c-.3.2-.5.4-.8.6h-5.1zm-5 0c-.5-.2-1.1-.4-1.6-.6h-4.3c.3.2.6.4.8.6h5.1zm-2.2-1c-.3-.2-.6-.4-.8-.6h-3.9l.6.6h4.1zm-1.2-1c-.2-.2-.4-.4-.5-.6h-3.7c.1.2.3.4.4.6h3.8zm-.8-1l-.3-.6h-3.7l.3.6h3.7zM13.6 7.5l-.6.6h3.9c.2-.2.3-.4.5-.6h-3.8zm4.2-.4c.2-.2.5-.4.7-.6h-3.9c-.2.2-.5.4-.7.6h3.9zm1.2-1c.4-.2.7-.4 1.1-.6H16l-.9.6H19zm10.6 1.4c.2.2.4.4.5.6H34c-.2-.2-.4-.4-.5-.6h-3.9zm3.5-.4c-.2-.2-.4-.4-.7-.6h-3.9c.2.2.5.4.7.6h3.9zm-1.2-1l-.9-.6h-4.1c.4.2.8.4 1.1.6h3.9zm-12-4.4c.6-.4 1.9.3.8 1.1l-.3-.4c.4-.2.3-.6-.2-.3l-.3-.4zm-.6-.7c-.6.2-1.1.2-1.3.2-.3 0-.5.5.1.6.7.1 1.2-.2 1.5-.3l-.3-.5zm.4.8c-.3.1-1 .3-1.2.3-.3 0-.5.1-.1.3.5.3 1.3 0 1.6-.2l-.3-.4zm.5.6c-.4.2-1 .3-1.2.3-.3 0-.3.2 0 .3.3.1 1.1 0 1.5-.2l-.3-.4zm.5.6c-.4.2-.9.3-1.1.3-.2 0-.3.2.1.4s1-.1 1.3-.3l-.3-.4zm.5.5c-.3.2-.7.3-.9.4-.2.1-.1.6.3.5.3-.1.6-.3.9-.6l-.3-.3zm.5.4c-.3.3-.6.5-.8.6-.3.1 0 .4.4.3.4-.1.5-.6.9-.8l-.5-.1zM18 2.3c-.4.1-1.2.1-1.3 0-.3-.1-.4.1-.1.3.7.5 1.6.4 2 .3v-.2c-.3 0-.6-.3-.6-.4"/><path fill="#FFF" d="M18.8 3.1c-.4.1-1.3.1-1.5 0-.4-.2-.4 0-.1.3.5.4 1.6.3 2.1.1v-.2l-.5-.2zm.5.6c-.4.2-1.2.3-1.5.2-.2-.1-.5 0-.1.3.6.4 1.9 0 2.3-.3-.2.1-.6-.1-.7-.2m.7.5c-.3.2-1 .4-1.4.4-.4 0-.7.1-.1.4.1.1 1 .4 2.1-.4-.2.1-.5 0-.6-.4m-2.6-2.8c-.6 0-1.1 0-1.3-.1-.4-.1-.5.2-.1.6.3.3 1.6.3 2 .2-.5-.3-.6-.5-.6-.7m-1.9.1c-.8-.1-1.2-.2-1.6-.4-.4-.2-.8.1-.1.6.6.5 1.8.5 2.3.5-.3-.2-.5-.4-.6-.7m.6.9c-.7 0-1.4-.1-1.7-.2-.3-.1-.5 0-.1.4.4.3 1.5.6 2.3.5v-.2c-.2-.1-.5-.3-.5-.5m.6.9c-.8.1-1.3 0-1.7-.1-.4-.2-.4.1 0 .4.3.3 1 .5 2.3.3l.1-.1c-.2-.1-.6-.3-.7-.5m.7.8c-.5.1-.8.1-1 .1-.3-.1-.5.1-.1.4.4.3 1.2.4 1.7.1v-.1c-.2-.1-.5-.3-.6-.5m9.7-2.4c-.6-.4-1.9.3-.8 1.1l.3-.4c-.4-.2-.3-.6.2-.3l.3-.4zm.6-.7c.6.2 1.1.2 1.3.2.3 0 .5.5-.1.6-.7.1-1.2-.2-1.5-.3l.3-.5zm-.4.8c.3.1 1 .3 1.2.3.3 0 .5.1.1.3-.5.3-1.3 0-1.6-.2l.3-.4zm-.5.6c.4.2 1 .3 1.2.3.3 0 .3.2 0 .3-.3.1-1.1 0-1.5-.2l.3-.4zm-.5.6c.4.2.9.3 1.1.3.2 0 .3.2-.1.4s-1-.1-1.3-.3l.3-.4zm-.5.5c.3.2.6.3.9.4.2.1.1.6-.3.5-.3-.1-.6-.3-.9-.6l.3-.3zm-.5.4c.3.3.6.5.8.6.3.1 0 .4-.4.3-.4-.1-.5-.6-.9-.8l.5-.1zM29 2.3c.4.1 1.2.1 1.3 0 .3-.1.4.1.1.3-.7.5-1.6.4-2 .3v-.2c.3 0 .6-.3.6-.4"/><path fill="#FFF" d="M28.2 3.1c.4.1 1.3.1 1.5 0 .4-.2.4 0 .1.3-.5.4-1.6.3-2.1.1v-.2l.5-.2zm-.5.6c.4.2 1.2.3 1.5.2.2-.1.5 0 .1.3-.6.4-1.9 0-2.3-.3.2.1.6-.1.7-.2m-.7.5c.3.2 1 .4 1.4.4.4 0 .7.1.1.4-.1.1-1 .4-2.1-.4.2.1.5 0 .6-.4m2.6-2.8c.6 0 1.1 0 1.3-.1.4-.1.5.2.1.6-.3.3-1.6.3-2 .2.6-.3.6-.5.6-.7m1.9.1c.8-.1 1.2-.2 1.6-.4.4-.2.8.1.1.6-.6.5-1.8.5-2.3.5.3-.2.5-.4.6-.7m-.6.9c.7 0 1.4-.1 1.7-.2.3-.1.5 0 .1.4-.4.3-1.5.6-2.3.5v-.2c.2-.1.5-.3.5-.5m-.6.9c.8.1 1.3 0 1.7-.1.4-.2.4.1 0 .4-.3.3-1 .5-2.3.3l-.1-.1c.2-.1.6-.3.7-.5m-.6.8c.5.1.8.1 1 .1.3-.1.5.1.1.4-.4.3-1.2.4-1.7.1v-.1c.1-.1.4-.3.6-.5M11.2 9.5v7.3c0 .3-.4.6-.7.6H9.2c-.4 0-.6-.1-.9-.4-.2-.2-4.5-5.6-4.5-5.6v5.4c0 .4-.2.6-.5.6h-.8c-.3 0-.5-.3-.5-.6V9.5c0-.3.4-.6.6-.6h3.2c.2 0 .4.1.5.2L9.4 13V9.4c0-.3.2-.6.6-.6h.8c.1.1.4.5.4.7m26.7 4.4h2.8l-1.4-3.4-1.4 3.4zm-11.7-5c.4 0 .7.3.8.6l1.7 4.2s1.5-3.9 1.7-4.3c.1-.3.4-.6.7-.6h3.1c.4 0 .7.5.7.9v6.8s2.8-6.8 2.9-7.2c.2-.3.5-.4.8-.4h3.3c.3 0 .6.3.7.7 0 0 2.5 6.2 2.8 6.9.3.7-.2.9-.5.9h-2.2c-.5 0-.7-.4-.8-.6 0 0-.4-1-.6-1.4h-4s-.4.9-.6 1.4c-.2.5-.4.6-.8.6H32c-.5 0-.8-.4-.8-.7v-4.6s-1.7 4.2-1.9 4.8c-.2.5-.6.6-.9.6H27c-.4 0-.7-.3-.8-.6l-1.9-4.8v4.8c0 .4-.3.5-.6.5H23c-.3 0-.5-.2-.5-.5V9.6c0-.3.2-.7.8-.7h2.9zM16.9 10h-1.1v6.8c0 .3-.2.6-.6.6h-2.3c-.3 0-.7-.4-.7-.6V9.6c0-.3.3-.7.8-.7h5.9c2.3 0 3 1.3 3 2.3 0 .8-.6 1.6-1.9 2.1 0 0 1.6 3 1.7 3.3.2.3-.1.8-.4.8h-2.6c-.2 0-.6-.3-.7-.6-.2-.3-1.9-3.5-1.9-3.5-.3-.5 0-.8.5-.7.4.1 1.7-.3 1.7-1.4 0-.6-.5-1.2-1.4-1.2m7.2-8.9l-.6.6v.2l-.6-.6V.7l.6.6.6-.6v.4zm0 .8l-.6.6v.2l-.6-.6v-.6l.6.6.6-.6v.4zm0 .8l-.6.6v.2l-.6-.6v-.5l.6.6.6-.6v.3zm0 .8l-.6.6v.2l-.6-.6v-.5l.6.6.6-.6v.3zm0 .9c0 .2-.3.4-.6.4s-.6-.2-.6-.4V4l.6.6.6-.6v.4zM23.5.3l.5.1-.5.5v.2l-.6-.6c.1-.1.4-.2.6-.2m2 2.7c-.3.4-.8.5-1.1.4v-3c.1-.1-.4-.4-.9-.4s-.9.2-.9.5v3c-.3.1-.8 0-1.1-.4 1-.8.1-2.9-2-2.1.1.1.1.3.3.5 1.2-.6 2.3.8 1.1 1.5.5.5 1 .9 1.5.9h.1v.6c0 .3.5.5.9.5.5 0 .9-.2.9-.5v-.6h.1c.5 0 1.1-.4 1.5-.9-1.2-.8 0-2.1 1.1-1.5.1-.2.2-.4.3-.5-1.9-.8-2.8 1.3-1.8 2"/></svg>