<svg id="Layer_1" xmlns="http://www.w3.org/2000/svg" width="970" height="250"><style>.st0{fill:#ED1A6F;}</style><path class="st0" d="M250.6 87.5V58.9c-1.9 1.9-4.9 2.7-8.4 3v-6.5c4.6-.6 8-2.1 10.7-8.1h6.4v40.1h-8.7zm12.5 0v-8.3h8.2v8.3h-8.2zm22.7.6c-5.2 0-10-2.3-12.9-4.9l4.7-5.9c2.3 1.9 5.2 3.1 8.1 3.1 3.6 0 6.8-3 6.8-7.1 0-4.5-3.2-6.8-6.3-6.8-2.4 0-5.1 1.4-6.9 4.2l-5.1-1.9 2.2-21.5h22v7.1H283l-.8 7.1c2.3-1.8 4.2-2.1 7.1-2.1 6.9 0 11.9 5.3 11.9 13.9.2 8.5-6.9 14.8-15.4 14.8zm25.1-20.7c-3.9 0-8.2-3.4-8.2-10.3 0-5.9 3.6-10.4 8.4-10.4 5 0 8.3 4.7 8.3 10.2 0 5.9-3.6 10.5-8.5 10.5zm1 20.1h-7.7l27.4-40.1h7.7l-27.4 40.1zm-.9-36c-2 0-2.7 2.7-2.7 5.5s.5 5.5 2.6 5.5c2.2 0 2.7-2.7 2.7-5.5 0-2.6-.6-5.5-2.6-5.5zm21.8 36.6c-3.9 0-8.2-3.4-8.2-10.3 0-5.9 3.6-10.4 8.4-10.4 5 0 8.3 4.7 8.3 10.2 0 5.9-3.6 10.5-8.5 10.5zm.1-15.9c-2 0-2.7 2.7-2.7 5.5s.5 5.5 2.6 5.5c2.2 0 2.7-2.7 2.7-5.5.1-2.6-.5-5.5-2.6-5.5z"/><path d="M359.5 64.1c-4.7 0-8.9-3.7-8.9-9 0-4.8 3.9-9 9-9 3 0 5.2 1 6.7 2.7l-1.3 1.1c-1.3-1.4-3.1-2.2-5.4-2.2-4.1 0-7.2 3.3-7.2 7.3 0 4.5 3.4 7.4 7.2 7.4 2.3 0 4.2-.9 5.8-2.6l1.3 1c-1.5 1.7-3.9 3.3-7.2 3.3zm17.7 0c-5.2 0-9.2-3.9-9.2-9s4-8.9 9.2-8.9c5.4 0 9.3 3.9 9.3 8.9-.1 5-4.2 9-9.3 9zm0-16.4c-4.2 0-7.4 3.2-7.4 7.3 0 4.2 3.3 7.4 7.4 7.4s7.4-3.1 7.4-7.4c0-4.1-3.1-7.3-7.4-7.3zm27.2 16.1V49.2l-6.2 8.4h-.9l-6.2-8.4v14.6h-1.7V46.4h1.7l6.6 9 6.5-9h1.8v17.4h-1.6zm10.6-7.2h-3.2v7.2h-1.7V46.4h4.7c3.9 0 6.1 2.1 6.1 5s-2.4 5.2-5.9 5.2zm-.5-8.6h-2.7v7h3c2.8 0 4.2-1.5 4.2-3.6 0-2.2-1.4-3.4-4.5-3.4zm18.8 15.8l-2.4-6.2h-6.4l-2.4 6.2h-1.9l6.9-17.5h1.1l6.9 17.5h-1.8zm-5.6-14.6l-2.6 6.9h5.2l-2.6-6.9zm20.1 14.6l-7.7-8.2v8.2h-1.7V46.4h5.1c3.3 0 5.8 2 5.8 4.9 0 3-2.6 5-5.7 5h-.5l7 7.4h-2.3zM443.3 48h-3.2v7h3c2.4 0 4.3-1.3 4.3-3.6.1-2-1.7-3.4-4.1-3.4zm9.5 15.8V46.4h1.7v17.4h-1.7zm9.9.3c-1.8 0-3.6-.6-5.1-1.8l1.1-1.2c1.1.9 2.5 1.4 4 1.4 2 0 3.6-1.1 3.6-2.9 0-2-1.8-2.9-3.7-3.9-2.4-1.1-4.8-2.3-4.8-5.2 0-2.6 2.1-4.3 4.9-4.3 1.9 0 3.4.5 4.8 1.7l-1.1 1.3c-1.1-1-2.2-1.4-3.7-1.4-1.6 0-3.1.9-3.1 2.6 0 2.1 1.7 2.8 4 3.9 2.2 1.1 4.5 2.2 4.5 5.2 0 2.8-2.5 4.6-5.4 4.6zm16.5 0c-5.2 0-9.2-3.9-9.2-9s4-8.9 9.2-8.9c5.4 0 9.3 3.9 9.3 8.9-.1 5-4.2 9-9.3 9zm-.1-16.4c-4.2 0-7.4 3.2-7.4 7.3 0 4.2 3.3 7.4 7.4 7.4s7.4-3.1 7.4-7.4c.1-4.1-3.1-7.3-7.4-7.3zm25.1 16.1l-11-14.5v14.5h-1.7V46.4h1.7l10.9 14.4V46.4h1.8v17.4h-1.7zm19.5 0l-7.7-8.2v8.2h-1.7V46.4h5.1c3.3 0 5.8 2 5.8 4.9 0 3-2.6 5-5.7 5h-.5l7 7.4h-2.3zM519.2 48H516v7h3c2.4 0 4.3-1.3 4.3-3.6.1-2-1.6-3.4-4.1-3.4zm21.5 15.8l-2.4-6.2H532l-2.4 6.2h-1.9l6.9-17.5h1.1l6.9 17.5h-1.9zm-5.5-14.6l-2.6 6.9h5.2l-2.6-6.9zm13.5-1.2v15.8h-1.8V48h-4.3v-1.5H553V48h-4.3zm7.1 15.8V46.4h9.7V48h-8v6.2h7.5v1.5h-7.5v6.6h8.5v1.5h-10.2zm28.4.3c-5.2 0-9.2-3.9-9.2-9s4-8.9 9.2-8.9c5.4 0 9.3 3.9 9.3 8.9-.1 5-4.2 9-9.3 9zm-.1-16.4c-4.2 0-7.3 3.2-7.3 7.3 0 4.2 3.3 7.4 7.4 7.4 4.1 0 7.4-3.1 7.4-7.4 0-4.1-3.2-7.3-7.5-7.3zm25.1 16.1l-11-14.5v14.5h-1.7V46.4h1.7l10.9 14.4V46.4h1.8v17.4h-1.7zm13.4.3c-1.8 0-3.6-.6-5.1-1.8l1.1-1.2c1.1.9 2.5 1.4 4 1.4 2 0 3.6-1.1 3.6-2.9 0-2-1.8-2.9-3.7-3.9-2.4-1.1-4.8-2.3-4.8-5.2 0-2.6 2.1-4.3 4.9-4.3 1.9 0 3.4.5 4.8 1.7l-1.1 1.3c-1.1-1-2.2-1.4-3.7-1.4-1.6 0-3.1.9-3.1 2.6 0 2.1 1.7 2.8 4 3.9 2.2 1.1 4.5 2.2 4.5 5.2 0 2.8-2.6 4.6-5.4 4.6zm8.3-.3V46.4h9.7V48h-8v6.2h7.5v1.5h-7.5v6.6h8.5v1.5h-10.2zm13.4 0V46.4h1.7v15.8h7.8v1.5h-9.5zm12.2 0V46.4h9.7V48h-8v6.2h7.5v1.5h-7.5v6.6h8.5v1.5h-10.2zm21.5.3c-4.7 0-8.9-3.7-8.9-9 0-4.8 3.9-9 9-9 3 0 5.2 1 6.7 2.7l-1.3 1.1c-1.3-1.4-3.1-2.2-5.4-2.2-4.1 0-7.2 3.3-7.2 7.3 0 4.5 3.4 7.4 7.2 7.4 2.3 0 4.2-.9 5.8-2.6l1.3 1c-1.5 1.7-3.9 3.3-7.2 3.3zM692.5 48v15.8h-1.8V48h-4.3v-1.5h10.3V48h-4.2zm7.1 15.8V46.4h9.7V48h-8v6.2h7.5v1.5h-7.5v6.6h8.5v1.5h-10.2zm17.5 0H713V46.4h4.2c5.7 0 9.7 3.4 9.7 8.6 0 5.2-4 8.8-9.8 8.8zm.3-15.9h-2.6v14.4h2.4c5 0 7.9-3.2 7.9-7.3-.1-4.2-3.3-7.1-7.7-7.1zM366.3 88.3V73.7l-6.2 8.4h-.9l-6.2-8.4v14.6h-1.7V71h1.7l6.6 9 6.5-9h1.8v17.4h-1.6zm14.1.3c-5.2 0-9.2-3.9-9.2-9s4-8.9 9.2-8.9c5.4 0 9.3 3.9 9.3 8.9-.1 5.1-4.2 9-9.3 9zm0-16.3c-4.2 0-7.4 3.2-7.4 7.3 0 4.2 3.3 7.4 7.4 7.4s7.4-3.1 7.4-7.4c0-4.2-3.1-7.3-7.4-7.3zm16.4 16h-4.1V71h4.2c5.7 0 9.7 3.4 9.7 8.6 0 5.1-4 8.7-9.8 8.7zm.2-15.9h-2.6v14.4h2.4c5 0 7.9-3.2 7.9-7.3 0-4.2-3.2-7.1-7.7-7.1zm12.6 15.9V71h9.7v1.5h-8v6.2h7.5v1.5h-7.5v6.6h8.5v1.5h-10.2zm13.5 0V71h1.7v15.8h7.8v1.5h-9.5zm16.4.3c-1.8 0-3.6-.6-5.1-1.8l1.1-1.2c1.1.9 2.5 1.4 4 1.4 2 0 3.6-1.1 3.6-2.9 0-2-1.8-2.9-3.7-3.9-2.4-1.1-4.8-2.3-4.8-5.2 0-2.6 2.1-4.3 4.9-4.3 1.9 0 3.4.5 4.8 1.7l-1.1 1.3c-1.1-1-2.2-1.4-3.7-1.4-1.6 0-3.1.9-3.1 2.6 0 2.1 1.7 2.8 4 3.9 2.2 1.1 4.5 2.2 4.5 5.2-.1 2.8-2.6 4.6-5.4 4.6zm24.5-.3l-2.4-6.2h-6.4l-2.4 6.2h-1.9l6.9-17.5h1.1l6.9 17.5H464zm-5.5-14.6l-2.6 6.9h5.2l-2.6-6.9zm13.5-1.2v15.8h-1.8V72.5H466V71h10.3v1.5H472zm18.5 7.6v8.2h-1.8v-8.2l-6.5-9.2h2l5.4 7.6 5.4-7.6h2l-6.5 9.2zm16.1 8.5c-5.2 0-9.2-3.9-9.2-9s4-8.9 9.2-8.9c5.4 0 9.3 3.9 9.3 8.9-.1 5.1-4.2 9-9.3 9zm-.1-16.3c-4.2 0-7.4 3.2-7.4 7.3 0 4.2 3.3 7.4 7.4 7.4s7.4-3.1 7.4-7.4c.1-4.2-3.1-7.3-7.4-7.3zm19.1 16.3c-3.9 0-6.8-2.6-6.8-6.7V71h1.8v10.9c0 3.3 2.3 5.2 5.1 5.2 2.7 0 5.1-1.9 5.1-5.2V71h1.7v10.9c-.1 4-3.1 6.7-6.9 6.7zm20.1-.3l-7.7-8.2v8.2h-1.7V71h5.1c3.3 0 5.8 2 5.8 4.9 0 3-2.6 5-5.7 5h-.5l7 7.4h-2.3zm-4.5-15.8H538v7h3c2.4 0 4.3-1.3 4.3-3.6 0-2-1.7-3.4-4.1-3.4zm14 15.8V71h1.7v15.8h7.8v1.5h-9.5zm12.1 0V71h9.7v1.5h-8v6.2h7.5v1.5H569v6.6h8.5v1.5h-10.2zm25.8 0l-5.7-7.9-5.8 7.9h-2l6.8-9.3-5.8-8h2.1l4.8 6.5 4.8-6.5h2l-5.8 8 6.8 9.4h-2.2zm10.9.3c-3.9 0-6.8-2.6-6.8-6.7V71h1.8v10.9c0 3.3 2.3 5.2 5.1 5.2 2.7 0 5.1-1.9 5.1-5.2V71h1.7v10.9c-.1 4-3.1 6.7-6.9 6.7zm14.9 0c-1.8 0-3.6-.6-5.1-1.8l1.1-1.2c1.1.9 2.5 1.4 4 1.4 2 0 3.6-1.1 3.6-2.9 0-2-1.8-2.9-3.7-3.9-2.4-1.1-4.8-2.3-4.8-5.2 0-2.6 2.1-4.3 4.9-4.3 1.9 0 3.4.5 4.8 1.7l-1.1 1.3c-1.1-1-2.2-1.4-3.7-1.4-1.6 0-3.1.9-3.1 2.6 0 2.1 1.7 2.8 4 3.9 2.2 1.1 4.5 2.2 4.5 5.2 0 2.8-2.6 4.6-5.4 4.6zm16.9-.3h-4.1V71h4.2c5.7 0 9.7 3.4 9.7 8.6 0 5.1-4 8.7-9.8 8.7zm.3-15.9h-2.6v14.4h2.4c5 0 7.9-3.2 7.9-7.3-.1-4.2-3.3-7.1-7.7-7.1zm12.6 15.9V71h9.7v1.5h-8v6.2h7.5v1.5h-7.5v6.6h8.5v1.5h-10.2zm25.1 0l-2.4-6.2H665l-2.4 6.2h-1.9l6.9-17.5h1.1l6.9 17.5h-1.8zm-5.5-14.6l-2.6 6.9h5.2l-2.6-6.9zm10.6 14.6V71h1.7v15.8h7.8v1.5h-9.5zm12.2 0V71h9.7v1.5h-8v6.2h7.5v1.5h-7.5v6.6h8.5v1.5h-10.2zm22.8 0l-7.7-8.2v8.2h-1.7V71h5.1c3.3 0 5.8 2 5.8 4.9 0 3-2.6 5-5.7 5h-.5l7 7.4h-2.3zm-4.5-15.8h-3.2v7h3c2.4 0 4.3-1.3 4.3-3.6.1-2-1.6-3.4-4.1-3.4zM571 48.7l.8 1.2-.4.3-.9-1.2-.9 1.2-.4-.3.9-1.2-1.4-.5.2-.5 1.4.4v-1.5h.5v1.5l1.4-.4.2.5-1.4.5zM241.2 30h488v2.5h-488zm0 72.3h488v2.5h-488z"/></svg>