<svg xmlns="http://www.w3.org/2000/svg" width="970" height="250"><path d="M310.1 223.8c-1.8 0-3.4-1.5-3.4-3.7 0-2 1.5-3.7 3.5-3.7 1.2 0 2 .4 2.6 1.1l-.5.4c-.5-.6-1.2-.9-2.1-.9-1.6 0-2.8 1.3-2.8 3 0 1.8 1.3 3 2.8 3 .9 0 1.6-.4 2.2-1l.5.4c-.6.7-1.5 1.4-2.8 1.4zm5.6-6.6v6.5h-.7v-6.5h-1.6v-.6h4v.6h-1.7zm151.1 6.5v-7.1h.7v7.1h-.7zm3.8.1c-.7 0-1.4-.2-2-.7l.4-.5c.4.4 1 .6 1.5.6.8 0 1.4-.4 1.4-1.2 0-.8-.7-1.2-1.4-1.6-.9-.5-1.8-.9-1.8-2.1 0-1 .8-1.8 1.9-1.8.7 0 1.3.2 1.9.7l-.4.5c-.4-.4-.8-.6-1.4-.6-.6 0-1.2.4-1.2 1.1 0 .8.7 1.1 1.5 1.6.9.4 1.7.9 1.7 2.1 0 1.1-1 1.9-2.1 1.9zM632.3 223.7l-3-3.4v3.4h-.7v-7.1h2c1.3 0 2.2.8 2.2 2s-1 2-2.2 2h-.2l2.7 3h-.8zm-1.7-6.5h-1.2v2.9h1.2c.9 0 1.7-.5 1.7-1.5-.1-.8-.8-1.4-1.7-1.4zm8.4 6.5l-2.2-3.2-2.2 3.2h-.8l2.6-3.8-2.2-3.3h.8l1.8 2.7 1.8-2.7h.8l-2.2 3.3 2.6 3.8h-.8z"/></svg>