<svg xmlns="http://www.w3.org/2000/svg" xmlns:xlink="http://www.w3.org/1999/xlink" width="970" height="250"><image width="970" height="250" xlink:href="place.png" transform="translate(-502 -316.667)" overflow="visible"/><path d="M27 215c-3.5 0-6.7-2.8-6.7-6.8 0-3.7 2.9-6.8 6.7-6.8 2.2 0 3.9.8 5 2.1l-1 .8c-1-1-2.3-1.7-4-1.7-3.1 0-5.4 2.5-5.4 5.5 0 3.4 2.6 5.6 5.4 5.6 1.8 0 3.1-.7 4.3-1.9l.9.8c-.9 1.3-2.7 2.4-5.2 2.4zm7.6-.2v-13.2h1.3v12h5.8v1.2h-7.1zm9.1 0v-13.2H45v13.2h-1.3zm10.3.2c-3.5 0-6.7-2.8-6.7-6.8 0-3.7 2.9-6.8 6.7-6.8 2.2 0 3.9.8 5 2.1l-1 .8c-1-1-2.3-1.7-4-1.7-3.1 0-5.4 2.5-5.4 5.5 0 3.4 2.6 5.6 5.4 5.6 1.8 0 3.1-.7 4.3-1.9l.9.8c-.9 1.3-2.7 2.4-5.2 2.4zm15.2-.2l-5.5-6.5-.8.8v5.7h-1.3v-13.2h1.3v5.8l5.6-5.8h1.7l-5.6 5.7 6.3 7.4h-1.7zm10.6-12v12h-1.3v-12h-3.2v-1.2H83v1.2h-3.2zM90.3 215c-3.9 0-6.9-2.9-6.9-6.8 0-3.8 3-6.8 6.9-6.8 4 0 6.9 3 6.9 6.8 0 3.9-3 6.8-6.9 6.8zm0-12.3c-3.2 0-5.5 2.4-5.5 5.6 0 3.2 2.5 5.6 5.5 5.6 3.1 0 5.5-2.3 5.5-5.6 0-3.2-2.3-5.6-5.5-5.6zm-69.4 30.8v-13.2h7.3v1.2h-6v4.7h5.6v1.2h-5.6v5h6.3v1.2h-7.6zm19.3 0l-4.3-6-4.3 6h-1.5l5.1-7.1-4.3-6.1h1.6l3.6 5 3.6-5H41l-4.3 6.1 5.1 7.1h-1.6zm7.3-5.5h-2.4v5.5h-1.3v-13.2h3.5c2.9 0 4.5 1.6 4.5 3.8 0 2.2-1.7 3.9-4.3 3.9zm-.4-6.5h-2v5.4h2.2c2.1 0 3.1-1.2 3.1-2.7.1-1.8-1-2.7-3.3-2.7zm14 12l-1.8-4.7h-4.8l-1.8 4.7h-1.4l5.2-13.3h.8l5.2 13.3h-1.4zM57 222.4l-1.9 5.2H59l-2-5.2zm17.4 11.1l-8.2-11v11h-1.3v-13.2h1.3l8.1 10.9v-10.9h1.3v13.2h-1.2zm7.2 0h-3v-13.2h3.1c4.3 0 7.2 2.6 7.2 6.5 0 4-3 6.7-7.3 6.7zm.2-12.1h-1.9v10.9h1.8c3.7 0 5.9-2.5 5.9-5.5-.1-3.2-2.4-5.4-5.8-5.4zm12.3 10.2v-1.4l4-2.6-4-2.6v-1.4l5.1 3.5v1l-5.1 3.5z"/></svg>