<svg id="Layer_1" xmlns="http://www.w3.org/2000/svg" width="970" height="250"><style>.st0{fill:#ED1A6F;}</style><path d="M244.7 97.5V53.2h6.1v38.5h16.9v5.7h-23zm36-31.1H277c.6-1.2 1.7-3.9 1.7-6.4v-6.7h6.4v3.9c0 3.8-3.1 7.7-4.4 9.2zm22.9 31.1V53.2h25v5.7h-18.8V73h18.4v5.7h-18.4v13h20v5.7h-26.2zm73.5 0l-10-15.1c-.7-1.1-1.9-3.1-1.9-3.1s-1.2 1.9-2 3.2l-9.9 15h-7.1l15.5-23.3-13.7-21h7.5l8.6 13.1 1.4 2.3c0-.1.7-1.3 1.5-2.4l8.6-13h7L369 73.8l15.5 23.6h-7.4zm52.9 0v-19h-21.4v19h-6.1V53.2h6.1v19.5H430V53.2h6.1v44.2H430zm26.8 0V53.2h6.1v44.2h-6.1zm40.1 0h-13.4V53.2h11.8c7.6 0 13 4.6 13 11.5 0 5.1-2.3 8.4-5.1 10.2 3.5 1 7.5 5.1 7.5 10.5 0 5.6-3.9 12.1-13.8 12.1zm-2.6-38.6h-4.6v14h4.1c6.7 0 8.2-4 8.2-7.7-.1-3.9-2.7-6.3-7.7-6.3zm2.6 19.7h-7.2v13.2h6.6c5.5 0 8.1-2.7 8.1-6.8-.1-3.8-3-6.4-7.5-6.4zm32.4 18.9V53.2h6.1v44.2h-6.1zM569 58.9v38.5h-6.1V58.9h-9.1v-5.7h24.7v5.7H569zm27.9 38.6V53.2h6.1v44.2h-6.1zm47.9.7c-12.8 0-22.9-9.6-22.9-23 0-12.9 9.7-22.7 22.6-22.7 13.8 0 23.1 10 23.1 22.8 0 12.9-10.2 22.9-22.8 22.9zm-.2-39.8c-9.7 0-16.3 7.1-16.3 16.8 0 9.8 7.8 17 16.6 17 8.7 0 16.5-6.5 16.5-17.2-.1-9.5-7-16.6-16.8-16.6zm72.1 39.1l-23.4-32.1c-.2-.4-.8-1.2-.8-1.2s.1 1 .1 1.5v31.8h-6.1V53.2h5.2l23.1 31.5.8 1.2c-.1-.1-.1-.9-.1-1.4V53.2h6.1v44.2h-4.9zm-472.6 19.2h477.3v5.6H244.1zM262 163.4l-11.8-16.3c-.1-.2-.4-.6-.4-.6s.1.5.1.7v16.2h-3.1v-22.5h2.6l11.6 16 .4.6c0-.1-.1-.5-.1-.7v-15.9h3.1v22.5H262zm23.4.3c-6.4 0-11.5-4.9-11.5-11.7 0-6.6 4.9-11.5 11.4-11.5 6.9 0 11.6 5.1 11.6 11.6s-5.1 11.6-11.5 11.6zm-.1-20.2c-4.9 0-8.2 3.6-8.2 8.5 0 5 3.9 8.7 8.3 8.7s8.3-3.3 8.3-8.7c0-4.9-3.4-8.5-8.4-8.5zm38.3 19.9h-2.1l-4.5-15c-.2-.5-.3-1-.3-1.1l-.3 1.1-4.6 15h-2l-5.9-22.5h3l3.9 14.7c.1.4.2 1 .2 1s.1-.6.2-1l4.6-14.7h2l4.5 14.8c.1.3.2.9.2.9s.1-.6.2-.9l4.2-14.8h3l-6.3 22.5zm36.4.3c-6.4 0-11.5-4.9-11.5-11.7 0-6.6 4.9-11.5 11.4-11.5 6.9 0 11.6 5.1 11.6 11.6s-5.1 11.6-11.5 11.6zm-.1-20.2c-4.9 0-8.2 3.6-8.2 8.5 0 5 3.9 8.7 8.3 8.7s8.3-3.3 8.3-8.7c0-4.9-3.4-8.5-8.4-8.5zm36.2 19.9l-11.8-16.3c-.1-.2-.4-.6-.4-.6s.1.5.1.7v16.2h-3v-22.5h2.6l11.6 16 .4.6c0-.1-.1-.5-.1-.7v-15.9h3.1v22.5h-2.5z"/><path class="st0" d="M571.2 163v-17.5c-.8.7-3.1 1.8-4.7 1.9v-2.9c1.8-.3 4.5-1.6 5.7-3.8h2.1V163h-3.1zm12.6-5.1v-2.6h6.6v2.6h-6.6zm22.7 5.5c-3.6 0-6.5-1-8.1-2.2l1.7-2.4c1.6 1.1 3.8 1.9 6.3 1.9 3.7 0 5.3-2.2 5.3-4.2 0-3-2.5-4-4.8-4h-2.8v-2.7h2.9c2.2 0 4.1-1.3 4.1-3.4 0-1-.8-3.2-4.2-3.2-2.7 0-4.3 1.6-5.1 3l-2.6-1.3c.8-1.8 3.1-4.4 7.7-4.4 6.2 0 7.2 3.9 7.2 6s-1.3 3.7-2.8 4.5c2 .9 3.6 2.7 3.6 5.5 0 2.9-1.7 6.9-8.4 6.9zm21.2-.4v-17.5c-.8.7-3.1 1.8-4.7 1.9v-2.9c1.8-.3 4.5-1.6 5.7-3.8h2.1V163h-3.1zm34.8.4c-6.5 0-11.7-4.8-11.7-11.5 0-6.5 5-11.4 11.6-11.4 7.1 0 11.8 5 11.8 11.5 0 6.4-5.2 11.4-11.7 11.4zm-.1-20c-4.9 0-8.3 3.6-8.3 8.4 0 4.9 4 8.5 8.5 8.5s8.4-3.3 8.4-8.6c0-4.7-3.6-8.3-8.6-8.3zm31.7 20c-5.6 0-11.2-4.4-11.2-11.5 0-6.4 4.8-11.5 11.3-11.5 4.1 0 6.6 1.4 8.4 3.5l-2.3 2c-1.6-1.6-3.6-2.5-6.1-2.5-4.4 0-8.1 3.3-8.1 8.4 0 5.7 4.5 8.5 8 8.5 2.2 0 4.8-.9 6.7-3.1l2.3 1.9c-1.8 2.5-5 4.3-9 4.3zm25.1-19.7V163H716v-19.3h-4.7v-2.9H724v2.9h-4.8z"/></svg>