<svg xmlns="http://www.w3.org/2000/svg" viewBox="-241 383 128.9 27"><path fill="#FFF" stroke="#000" stroke-width="1.5" stroke-miterlimit="10" d="M-240.1 384h127v25.2h-127z"/><path d="M-226.9 393.6v3h3.4v1.2h-3.4v4h-1.4v-9.4h5v1.2h-3.6zm5.3 8.2v-9.4h1.4v9.4h-1.4zm10.3 0l-5.3-6.8c-.1-.1-.2-.3-.2-.3v7h-1.4v-9.3h1.2l5.2 6.7.2.3v-7h1.4v9.4h-1.1zm5.7 0h-2.5v-9.4h2.6c3.5 0 5.4 2.1 5.4 4.7 0 2.5-2 4.7-5.5 4.7zm.1-8.3h-1.2v7.1h.9c3 0 4.3-1.8 4.3-3.5 0-2-1.6-3.6-4-3.6zm14 8.4c-2.9 0-5.2-2-5.2-4.9 0-2.7 2.2-4.8 5.1-4.8 3.1 0 5.2 2.1 5.2 4.8 0 2.8-2.3 4.9-5.1 4.9zm-.1-8.4c-2.2 0-3.7 1.5-3.7 3.6s1.8 3.6 3.8 3.6 3.7-1.4 3.7-3.6c0-2.1-1.6-3.6-3.8-3.6zm10.8 8.4c-2.3 0-4-1.4-4-3.7v-5.8h1.4v5.8c0 1.8 1.2 2.5 2.6 2.5 1.3 0 2.6-.7 2.6-2.5v-5.8h1.4v5.8c-.1 2.2-1.8 3.7-4 3.7zm8.9-8.3v8.2h-1.4v-8.2h-2.1v-1.2h5.6v1.2h-2.1zm14.3 8.2v-7.2s-.1.1-.1.2l-3.2 4h-.6l-3.2-3.9c-.1-.1-.1-.2-.1-.2v7.1h-1.4v-9.4h1.2l3.8 4.6 3.7-4.6h1.2v9.4h-1.3zm8.3.1c-2.9 0-5.2-2-5.2-4.9 0-2.7 2.2-4.8 5.1-4.8 3.1 0 5.2 2.1 5.2 4.8.1 2.8-2.2 4.9-5.1 4.9zm-.1-8.4c-2.2 0-3.7 1.5-3.7 3.6s1.8 3.6 3.8 3.6 3.7-1.4 3.7-3.6c0-2.1-1.5-3.6-3.8-3.6zm12.4 8.3l-4.1-4.4v4.4h-1.4v-9.4h3.3c1.9 0 3.1 1.2 3.1 2.8 0 1.5-1.4 2.7-2.9 2.7l3.7 3.9h-1.7zm-2.4-8.2h-1.6v3.2h1.6c1.2 0 2-.7 2-1.7-.1-.6-.7-1.5-2-1.5zm5.4 8.2v-9.4h5.7v1.2h-4.3v3h4.2v1.2h-4.2v2.8h4.5v1.2h-5.9zm9.5-1.4V399l2.6-1.5-2.6-1.5v-1.3l3.8 2.3v1l-3.8 2.4z"/></svg>