<svg xmlns="http://www.w3.org/2000/svg" width="73.6" height="16.8"><path d="M2 10c.2 1.1.9 1.6 1.9 1.6.9 0 1.6-.4 1.6-1.2 0-.8-.4-1.1-1.8-1.6C2 8.2.9 7.6.9 5.8c0-2 1.6-2.7 3.1-2.7 1.8 0 3.2.7 3.3 2.5l-1.8.3c-.1-1-.8-1.5-1.6-1.5s-1.4.4-1.4 1.2c0 .8.7 1.1 1.9 1.6 1.6.6 2.8 1.2 2.8 2.9 0 1.9-1.5 2.7-3.4 2.7s-3-.7-3.4-2.4L2 10zm11.2 2.5c-.5.3-1.2.4-2 .4-1.4 0-2.2-.7-2.2-2.2V6.6H8V5.3h1.1V3.7l1.7-.2v1.8H13v1.3h-2.2v3.7c0 .8.3 1.1.9 1.1.5 0 .8-.1 1.2-.4l.3 1.5zm6.8-1.7c0 .5.2.7.5.7.2 0 .3 0 .4-.1v1.3c-.2.1-.5.2-.9.2-.9 0-1.4-.4-1.6-1.2-.4.9-1.2 1.2-2.2 1.2-1.3 0-2.2-.8-2.2-2 0-1.6 1.3-2.6 4.3-2.4v-.9c0-.8-.5-1.2-1.2-1.2s-1.2.4-1.2 1.2l-1.6-.3c.1-1.6 1.5-2.2 2.9-2.2 1.6 0 2.7.7 2.7 2.3v3.4zm-1.7-1.3c-1.8 0-2.6.4-2.6 1.2 0 .5.4 1 1.1 1 .7 0 1.5-.4 1.5-1.2v-1zM26.8 7c-.3 0-.5-.1-.8-.1-1 0-2 .7-2 2.2v3.6h-1.7V5.3h1.4l.2 2c.3-1.3 1.2-2.3 2.9-2.2V7zm5.8 5.5c-.5.3-1.2.4-2 .4-1.4 0-2.2-.7-2.2-2.2V6.6h-1.1V5.3h1.1V3.7l1.7-.2v1.8h2.2v1.3h-2.2v3.7c0 .8.3 1.1.9 1.1.5 0 .8-.1 1.2-.4l.4 1.5zm9.2 0c-.5.3-1.2.4-2 .4-1.4 0-2.2-.7-2.2-2.2V6.6h-1.1V5.3h1.1V3.7l1.7-.2v1.8h2.2v1.3h-2.2v3.7c0 .8.3 1.1.9 1.1.5 0 .8-.1 1.2-.4l.4 1.5zm.7-3.5c0-2.5 1.4-3.8 3.4-3.8 2.1 0 3.4 1.3 3.4 3.8s-1.4 3.9-3.4 3.9-3.4-1.4-3.4-3.9zm1.7 0c0 1.8.6 2.6 1.8 2.6 1.2 0 1.8-.8 1.8-2.6 0-1.7-.6-2.5-1.8-2.5-1.2 0-1.8.8-1.8 2.5zm11.7-7h1.7v10.7h-1.5l-.2-1.3c-.4 1.1-1.3 1.5-2.3 1.5-1.6 0-2.9-1.3-2.9-3.7 0-2.5 1.2-4 3.3-4 .9 0 1.7.5 1.9 1.2V2zm0 6.2c0-1.2-.9-1.8-1.7-1.8-1 0-1.9.7-1.9 2.7 0 1.6.7 2.5 1.9 2.5.8 0 1.7-.6 1.7-1.9V8.2zm9.3 2.6c0 .5.2.7.5.7.2 0 .3 0 .4-.1v1.3c-.2.1-.5.2-.9.2-.9 0-1.4-.4-1.6-1.2-.4.9-1.2 1.2-2.2 1.2-1.3 0-2.2-.8-2.2-2 0-1.6 1.3-2.6 4.3-2.4v-.9c0-.8-.5-1.2-1.2-1.2s-1.2.4-1.2 1.2l-1.6-.3c.1-1.6 1.5-2.2 2.9-2.2 1.6 0 2.7.7 2.7 2.3v3.4zm-1.7-1.3c-1.8 0-2.6.4-2.6 1.2 0 .5.4 1 1.1 1 .7 0 1.5-.4 1.5-1.2v-1zm5.9-.4c.4 1.5.6 2.4.6 2.4s.1-.9.5-2.3l1.2-3.8h1.8l-2.8 8c-.8 2.2-1.7 2.7-3.1 2.7-.4 0-.8-.1-1.2-.2l.2-1.5c.3.2.6.2 1 .2.7 0 1.2-.4 1.6-1.5l-2.7-7.8h1.8l1.1 3.8z" fill="#FFF"/></svg>