<svg xmlns="http://www.w3.org/2000/svg" viewBox="0 0 166.8 104.9"><path d="M28.9 53.8c.3 1.2.5 2.2.5 3.1 0 2.7-1.6 4.2-2.8 4.6h7.3c1.2 0 2.3-.3 2.6-1.8l2.1 1.2c-.5 2-2 3-4.4 3H23.1v-2.5h1c1.2 0 2.6-1.6 2.6-4.3 0-.8-.3-2-.6-3.3h-2.8v-1.9h2.3c-.4-1.5-.7-3-.7-4.4 0-4.6 3.2-6.1 6.3-6.1 3 0 5 1.3 5.5 4.6l-2.6.6c-.3-1.7-.9-2.8-3.1-2.8-1.8 0-3.3 1-3.3 3.8 0 1.4.3 2.9.7 4.4h5.5v1.9h-5zm20.9 4H39.2v-1.9l10.5-14.1h3v13.7h3.6v2.3h-3.6v6h-2.9v-6zm0-8.3c0-2.8.1-4.5.1-4.5h-.1s-.7 1.4-2.5 3.8l-3 4.2c-1.2 1.7-2 2.4-2 2.4v.2s.6-.1 3-.1h4.5v-6zm12.3 9.9c1.3 0 2.3 1 2.3 2.3s-1 2.3-2.3 2.3c-1.3 0-2.3-1-2.3-2.3s1-2.3 2.3-2.3zM71 41.8h11v2.5h-8.6l-.3 7.1c.8-.7 1.8-1.2 3.3-1.2 3.7 0 6.3 2.3 6.3 6.9 0 4.7-3.1 7.1-7.4 7.1-4.4 0-6.4-2.1-6.8-5.2l2.5-.6c.4 2.5 1.9 3.7 4.4 3.7 2.6 0 4.5-1.5 4.5-4.9 0-3.1-1.6-4.9-4.4-4.9-1.2 0-2 .5-2.7 1h-2.2l.4-11.5zm15.3 11.1c0-6.3 3.2-11.5 8.5-11.5s8.5 5.2 8.5 11.5c0 6.6-3 11.4-8.5 11.4s-8.5-4.8-8.5-11.4zm2.9 0c0 5.1 2.1 9.1 5.6 9.1s5.6-4 5.6-9.1c0-5.2-2.1-9.1-5.6-9.1s-5.6 3.9-5.6 9.1zm26.4 10.9V48.5h4.3c3.7 0 5.4 1.7 5.4 4.5 0 3-1.7 4.9-5.1 4.9h-2.5v5.9h-2.1zm2-7.5h2.3c2.5 0 3.2-1.3 3.2-3.1 0-1.9-1.1-3-3.2-3h-2.3v6.1zm13.8-9.8h1.8l-6.1 19.4h-1.8l6.1-19.4zM142 60l-3.1-5.9c-.9-1.8-1.1-2.7-1.1-2.7h-.1s.1 1 .1 2.8v9.6h-2V48.5h2.5l3.9 7.7c.5 1 .7 1.7.7 1.7h.1s.2-.7.7-1.7l3.9-7.7h2.4v15.3h-2v-9.6c0-1.8.1-2.8.1-2.8h-.1s-.2.9-1.1 2.7l-3.1 5.9H142zM24.5 14.4c-1.1-1.6-1.2-2.1-1.2-2.1h-.1s-.1.4-1.2 2.1l-3.3 5.1h-2.5l5.9-8.6-5.6-8.4H19l3 4.7c1.2 1.9 1.2 2.2 1.2 2.2h.1s.1-.4 1.2-2.2l3-4.7H30l-5.5 8.2 5.9 8.9h-2.5l-3.4-5.2zm16.2 1.5l1.9.4c-.5 2.7-2.7 3.6-5.2 3.6-3.5 0-5.8-2.5-5.8-7s2.3-7.1 6-7.1c3.4 0 5.2 2.3 5.2 5.7 0 .8-.1 1.5-.3 1.9h-8.8c.1 2.8 1.5 4.8 3.9 4.8 1.6 0 2.6-.7 3.1-2.3zm-.1-4.3V11c0-1.9-1.2-3.4-3.2-3.4-2.1 0-3.4 1.4-3.7 4h6.9zm12.7-3.2c-.3-.1-.7-.1-1.1-.1-2 0-3.8 1.7-3.8 4.3v7h-2.2V6.2H48l.3 3.6c.5-2.4 2.3-4 5.1-3.9l-.1 2.5zm1.3 4.4c0-4.6 2.3-6.9 6-6.9s6 2.4 6 6.9c0 4.6-2.3 7.1-6 7.1s-6-2.5-6-7.1zm2.1 0c0 3.6 1.3 5.4 3.8 5.4s3.8-1.8 3.8-5.4c0-3.5-1.3-5.1-3.8-5.1s-3.8 1.6-3.8 5.1zM77.5.2c.9 0 1.6.7 1.6 1.6 0 .8-.7 1.6-1.6 1.6-.8 0-1.5-.7-1.5-1.6-.1-.9.6-1.6 1.5-1.6zm1.1 6v13.4h-2.2V6.2h2.2zm6.3 2.6c.7-2 2.3-2.9 4.3-2.9 2.3 0 4.1 1.2 4.1 4.1v9.6h-2.2v-9c0-1.7-.9-2.8-2.5-2.8-1.8 0-3.4.9-3.4 4v7.8H83V6.2h1.7l.2 2.6zm17.3-.9V6.2h1.9V4.5c0-3.4 2.2-4.5 4.4-4.5 1 0 1.9.2 2.6.5l-.5 1.9c-.7-.4-1.2-.6-2.1-.6-1.4 0-2.2.8-2.2 2.8v1.6h3.4V8h-3.4v11.6h-2.2V7.9h-1.9zm16.7.5c-.3-.1-.7-.1-1.1-.1-2 0-3.8 1.7-3.8 4.3v7h-2.2V6.2h1.8l.3 3.6c.5-2.4 2.3-4 5.1-3.9l-.1 2.5zm1.2 4.4c0-4.6 2.3-6.9 6-6.9s6 2.4 6 6.9c0 4.6-2.3 7.1-6 7.1s-6-2.5-6-7.1zm2.2 0c0 3.6 1.3 5.4 3.8 5.4s3.8-1.8 3.8-5.4c0-3.5-1.3-5.1-3.8-5.1s-3.8 1.6-3.8 5.1zm27.3-6.9c2.3 0 4 1.2 4 4v9.7h-2.2v-9.1c0-1.7-.8-2.7-2.4-2.7-1.6 0-3.3 1.2-3.3 4v7.8h-2.2v-9.1c0-1.7-.8-2.7-2.4-2.7-1.6 0-3.3 1.2-3.3 4v7.8h-2.2V6.2h1.7l.3 2.6c.7-2.1 2.4-2.9 4.2-2.9 2 0 3.4.9 3.7 3 .5-2.3 2.3-3 4.1-3zM0 92.5v-1.8h2V89c0-3.5 2.2-4.6 4.5-4.6 1.1 0 2 .2 2.7.5l-.5 2c-.7-.4-1.3-.6-2.2-.6-1.4 0-2.3.8-2.3 2.8v1.6h3.5v1.8H4.3v12H2v-12H0zm9.1 5c0-4.7 2.4-7.2 6.2-7.2 3.7 0 6.2 2.5 6.2 7.2s-2.4 7.4-6.2 7.4c-3.8 0-6.2-2.6-6.2-7.4zm2.2 0c0 3.7 1.3 5.6 3.9 5.6s3.9-1.9 3.9-5.6c0-3.6-1.4-5.3-3.9-5.3s-3.9 1.7-3.9 5.3zm21-4.5c-.3-.1-.7-.1-1.1-.1-2.1 0-3.9 1.8-3.9 4.4v7.2H25V90.7h1.9l.3 3.7c.5-2.5 2.4-4.1 5.3-4l-.2 2.6zm10.4 7.9c.2 1.6 1.3 2.3 3.1 2.3 1.7 0 3-.7 3-2.1 0-1.2-.5-2-2.3-2.4l-2-.5c-2.5-.6-3.4-1.9-3.4-3.9 0-3 2.5-4.1 5-4.1 2.8 0 4.5 1 4.8 3.7l-2.2.2c-.1-1.5-1-2.2-2.7-2.2-1.7 0-2.7.8-2.7 2.1 0 1.1.4 1.8 2.1 2.2l1.9.5c2.3.6 3.8 1.6 3.8 4.1 0 2.9-2.3 4-5.2 4-3.1 0-4.8-1-5.2-3.5l2-.4zm12.7-16.4c.9 0 1.6.7 1.6 1.6 0 .9-.8 1.6-1.6 1.6-.9 0-1.6-.8-1.6-1.6 0-.9.7-1.6 1.6-1.6zm1.1 6.2v13.9h-2.3V90.7h2.3zm9.6 10.4C65 99.3 65 99 65 99h-.1s0 .4-1.2 2.2l-2.2 3.4h-2.4l4.6-7-4.4-6.9h2.6l2 3.2C65 95.7 65 96 65 96h.1s0-.4 1.1-2.1l2-3.2h2.5l-4.4 6.8 4.6 7h-2.5l-2.3-3.4zm28.4-10.8c2.3 0 4.1 1.3 4.1 4.1v10.1h-2.3v-9.4c0-1.8-.8-2.8-2.5-2.8s-3.4 1.3-3.4 4.1v8.1h-2.3v-9.4c0-1.8-.8-2.8-2.5-2.8s-3.4 1.3-3.4 4.1v8.1h-2.3V90.7h1.7l.3 2.7c.7-2.2 2.5-3 4.3-3 2.1 0 3.5.9 3.8 3.1.9-2.3 2.7-3.2 4.5-3.2zm7.6 7.2c0-4.7 2.4-7.2 6.2-7.2 3.7 0 6.2 2.5 6.2 7.2s-2.4 7.4-6.2 7.4c-3.8 0-6.2-2.6-6.2-7.4zm2.3 0c0 3.7 1.3 5.6 3.9 5.6s3.9-1.9 3.9-5.6c0-3.6-1.4-5.3-3.9-5.3-2.6 0-3.9 1.7-3.9 5.3zm15.7-4.2c.8-2.1 2.3-3 4.4-3 2.3 0 4.3 1.3 4.3 4.3v9.9h-2.3v-9.4c0-1.8-.9-2.9-2.6-2.9-1.8 0-3.5 1-3.5 4.1v8.1h-2.3V90.7h1.7l.3 2.6zm19.9 10.8c-.8.5-1.9.8-3.1.8-2.4 0-3.8-1.3-3.8-3.7v-8.7h-2v-1.8h2v-2.9l2.3-.3v3.2h4.1v1.8h-4.1v8.2c0 1.5.7 2.2 1.9 2.2.9 0 1.5-.2 2.3-.7l.4 1.9zm5-10.8c.6-2 2-3 4.1-3 2.3 0 4.3 1.3 4.3 4.3v9.9h-2.3v-9.4c0-1.7-.9-2.8-2.6-2.8-1.8 0-3.5 1-3.5 4.1v8.1h-2.3v-20h2.3v8.8zm13.5 7.6c.2 1.6 1.3 2.3 3.1 2.3 1.7 0 3-.7 3-2.1 0-1.2-.5-2-2.3-2.4l-2-.5c-2.6-.6-3.5-1.9-3.5-3.9 0-3 2.5-4.1 5-4.1 2.8 0 4.5 1 4.8 3.7l-2.2.2c-.1-1.5-1-2.2-2.7-2.2s-2.7.8-2.7 2.1c0 1.1.4 1.8 2.1 2.2l1.9.5c2.3.6 3.8 1.6 3.8 4.1 0 2.9-2.3 4-5.2 4-3.1 0-4.8-1-5.2-3.5l2.1-.4z" fill="#FFF"/></svg>