<svg xmlns="http://www.w3.org/2000/svg" viewBox="0 0 76 14.5"><path d="M0 14.2V1.8h7.6v2H2.3v3.5H7v1.9H2.3v5H0zm15.2-7.5c-.3-.1-.6-.1-.9-.1-1.3 0-2.6.9-2.6 2.8v4.8H9.4V4.5h1.9l.3 2.7c.4-1.7 1.5-3 3.8-2.9l-.2 2.4zm7.5 4.5l1.9.6c-.4 2-2.1 2.7-4 2.7-2.7 0-4.5-1.8-4.5-5 0-3.3 1.8-5.2 4.6-5.2 2.6 0 3.9 1.8 3.9 4.2 0 .5-.1 1-.2 1.3h-6.2c.1 1.8.9 3 2.4 3 1.1-.1 1.8-.4 2.1-1.6zm-.2-2.9v-.4c0-1.1-.7-2-1.9-2-1.3 0-2.1.9-2.3 2.4h4.2zm10.4 2.9l1.9.6c-.4 2-2.1 2.7-4 2.7-2.7 0-4.5-1.8-4.5-5 0-3.3 1.8-5.2 4.6-5.2 2.6 0 3.9 1.8 3.9 4.2 0 .5-.1 1-.2 1.3h-6.2c.1 1.8.9 3 2.4 3 1.1-.1 1.7-.4 2.1-1.6zm-.2-2.9v-.4c0-1.1-.7-2-1.9-2-1.3 0-2.1.9-2.3 2.4h4.2zm14.7 5.6c-.7.4-1.6.6-2.6.6-1.8 0-2.9-.9-2.9-2.9V6.2h-1.4V4.5h1.4V2.4l2.2-.3v2.3H47v1.7h-2.9V11c0 1 .4 1.5 1.2 1.5.6 0 1.1-.2 1.6-.6l.5 2zM55 6.7c-.3-.1-.6-.1-.9-.1-1.3 0-2.6.9-2.6 2.8v4.8h-2.2V4.5h1.9l.3 2.7c.4-1.7 1.5-3 3.8-2.9L55 6.7zM58.1 0c.8 0 1.5.5 1.5 1.4 0 .8-.6 1.4-1.5 1.4-.8 0-1.4-.6-1.4-1.4 0-.9.6-1.4 1.4-1.4zm1.1 4.5v9.7H57V4.5h2.2zm10 7.2c0 .7.3.9.7.9.2 0 .4 0 .6-.1v1.7c-.3.1-.7.2-1.2.2-1.2 0-1.9-.5-2.1-1.6-.5 1.2-1.6 1.6-2.9 1.6-1.7 0-2.9-1-2.9-2.7 0-2.2 1.7-3.4 5.6-3.2v-1c0-1.1-.6-1.5-1.6-1.5s-1.5.5-1.6 1.5l-2.2-.4c.1-2.1 1.9-2.9 3.9-2.9 2.1 0 3.6.9 3.6 3.1v4.4zM67 10c-2.4-.1-3.4.5-3.4 1.6 0 .7.5 1.3 1.4 1.3.9 0 2-.5 2-1.6V10zm8.9 4.2c-.5.1-.9.2-1.3.2-1.3 0-2.4-.7-2.4-2.2V.2h2.2v11.5c0 .6.4.8.9.8.3 0 .5 0 .7-.1l-.1 1.8z" fill="#FFF"/></svg>