<svg xmlns="http://www.w3.org/2000/svg" viewBox="-215 322 180.1 150"><g fill="#13B5EA"><circle cx="-190" cy="397" r="5"/><circle cx="-150" cy="437" r="5"/><circle cx="-130" cy="457" r="5"/><circle cx="-90" cy="407" r="5"/><circle cx="-160" cy="387" r="5"/><circle cx="-130" cy="467" r="5"/><circle cx="-120" cy="467" r="5"/><circle cx="-140" cy="457" r="5"/><circle cx="-120" cy="457" r="5"/><circle cx="-110" cy="457" r="5"/><circle cx="-150" cy="447" r="5"/><circle cx="-140" cy="447" r="5"/><circle cx="-130" cy="447" r="5"/><circle cx="-120" cy="447" r="5"/><circle cx="-110" cy="447" r="5"/><circle cx="-100" cy="447" r="5"/><circle cx="-140" cy="417" r="5"/><circle cx="-120" cy="437" r="5"/><circle cx="-120" cy="397" r="5"/><circle cx="-160" cy="417" r="5"/><circle cx="-160" cy="437" r="5"/><circle cx="-140" cy="437" r="5"/><circle cx="-130" cy="437" r="5"/><circle cx="-110" cy="437" r="5"/><circle cx="-100" cy="437" r="5"/><circle cx="-90" cy="437" r="5"/><circle cx="-190" cy="367" r="5"/><circle cx="-170" cy="427" r="5"/><circle cx="-160" cy="427" r="5"/><circle cx="-150" cy="427" r="5"/><circle cx="-140" cy="427" r="5"/><circle cx="-130" cy="427" r="5"/><circle cx="-120" cy="427" r="5"/><circle cx="-110" cy="427" r="5"/><circle cx="-100" cy="427" r="5"/><circle cx="-90" cy="427" r="5"/><circle cx="-80" cy="427" r="5"/><circle cx="-110" cy="417" r="5"/><circle cx="-80" cy="357" r="5"/><circle cx="-210" cy="377" r="5"/><circle cx="-180" cy="417" r="5"/><circle cx="-170" cy="417" r="5"/><circle cx="-150" cy="417" r="5"/><circle cx="-130" cy="417" r="5"/><circle cx="-120" cy="417" r="5"/><circle cx="-100" cy="417" r="5"/><circle cx="-90" cy="417" r="5"/><circle cx="-80" cy="417" r="5"/><circle cx="-70" cy="417" r="5"/><circle cx="-80" cy="407" r="5"/><circle cx="-150" cy="407" r="5"/><circle cx="-190" cy="407" r="5"/><circle cx="-180" cy="407" r="5"/><circle cx="-170" cy="407" r="5"/><circle cx="-160" cy="407" r="5"/><circle cx="-140" cy="407" r="5"/><circle cx="-130" cy="407" r="5"/><circle cx="-120" cy="407" r="5"/><circle cx="-110" cy="407" r="5"/><circle cx="-100" cy="407" r="5"/><circle cx="-70" cy="407" r="5"/><circle cx="-60" cy="407" r="5"/><circle cx="-200" cy="397" r="5"/><circle cx="-180" cy="397" r="5"/><circle cx="-170" cy="397" r="5"/><circle cx="-160" cy="397" r="5"/><circle cx="-150" cy="397" r="5"/><circle cx="-140" cy="397" r="5"/><circle cx="-130" cy="397" r="5"/><circle cx="-110" cy="397" r="5"/><circle cx="-100" cy="397" r="5"/><circle cx="-90" cy="397" r="5"/><circle cx="-80" cy="397" r="5"/><circle cx="-70" cy="397" r="5"/><circle cx="-60" cy="397" r="5"/><circle cx="-50" cy="397" r="5"/><circle cx="-210" cy="387" r="5"/><circle cx="-200" cy="387" r="5"/><circle cx="-190" cy="387" r="5"/><circle cx="-180" cy="387" r="5"/><circle cx="-170" cy="387" r="5"/><circle cx="-150" cy="387" r="5"/><circle cx="-140" cy="387" r="5"/><circle cx="-130" cy="387" r="5"/><circle cx="-120" cy="387" r="5"/><circle cx="-110" cy="387" r="5"/><circle cx="-100" cy="387" r="5"/><circle cx="-90" cy="387" r="5"/><circle cx="-80" cy="387" r="5"/><circle cx="-70" cy="387" r="5"/><circle cx="-60" cy="387" r="5"/><circle cx="-50" cy="387" r="5"/><circle cx="-200" cy="377" r="5"/><circle cx="-190" cy="377" r="5"/><circle cx="-180" cy="377" r="5"/><circle cx="-170" cy="377" r="5"/><circle cx="-160" cy="377" r="5"/><circle cx="-150" cy="377" r="5"/><circle cx="-140" cy="377" r="5"/><circle cx="-130" cy="377" r="5"/><circle cx="-120" cy="377" r="5"/><circle cx="-100" cy="377" r="5"/><circle cx="-90" cy="377" r="5"/><circle cx="-80" cy="377" r="5"/><circle cx="-70" cy="377" r="5"/><circle cx="-60" cy="377" r="5"/><circle cx="-50" cy="377" r="5"/><circle cx="-40" cy="387" r="5"/><circle cx="-40" cy="377" r="5"/><circle cx="-210" cy="367" r="5"/><circle cx="-200" cy="367" r="5"/><circle cx="-180" cy="367" r="5"/><circle cx="-170" cy="367" r="5"/><circle cx="-160" cy="367" r="5"/><circle cx="-150" cy="367" r="5"/><circle cx="-150" cy="357" r="5"/><circle cx="-140" cy="367" r="5"/><circle cx="-130" cy="367" r="5"/><circle cx="-130" cy="357" r="5"/><circle cx="-120" cy="367" r="5"/><circle cx="-100" cy="367" r="5"/><circle cx="-110" cy="377" r="5"/><circle cx="-110" cy="367" r="5"/><circle cx="-90" cy="367" r="5"/><circle cx="-80" cy="367" r="5"/><circle cx="-70" cy="367" r="5"/><circle cx="-60" cy="367" r="5"/><circle cx="-40" cy="367" r="5"/><circle cx="-50" cy="367" r="5"/><circle cx="-210" cy="357" r="5"/><circle cx="-200" cy="357" r="5"/><circle cx="-190" cy="357" r="5"/><circle cx="-170" cy="357" r="5"/><circle cx="-160" cy="357" r="5"/><circle cx="-140" cy="357" r="5"/><circle cx="-120" cy="357" r="5"/><circle cx="-110" cy="357" r="5"/><circle cx="-100" cy="357" r="5"/><circle cx="-100" cy="337" r="5"/><circle cx="-90" cy="357" r="5"/><circle cx="-60" cy="357" r="5"/><circle cx="-50" cy="357" r="5"/><circle cx="-180" cy="347" r="5"/><circle cx="-210" cy="347" r="5"/><circle cx="-200" cy="347" r="5"/><circle cx="-190" cy="347" r="5"/><circle cx="-180" cy="357" r="5"/><circle cx="-170" cy="347" r="5"/><circle cx="-160" cy="347" r="5"/><circle cx="-150" cy="347" r="5"/><circle cx="-140" cy="347" r="5"/><circle cx="-130" cy="347" r="5"/><circle cx="-120" cy="347" r="5"/><circle cx="-110" cy="347" r="5"/><circle cx="-100" cy="347" r="5"/><circle cx="-90" cy="347" r="5"/><circle cx="-80" cy="347" r="5"/><circle cx="-70" cy="347" r="5"/><circle cx="-60" cy="347" r="5"/><circle cx="-50" cy="347" r="5"/><circle cx="-39.9" cy="347" r="5"/><circle cx="-39.9" cy="357" r="5"/><circle cx="-200" cy="337" r="5"/><circle cx="-180" cy="337" r="5"/><circle cx="-170" cy="337" r="5"/><circle cx="-150" cy="337" r="5"/><circle cx="-140" cy="337" r="5"/><circle cx="-110" cy="337" r="5"/><circle cx="-90" cy="337" r="5"/><circle cx="-80" cy="337" r="5"/><circle cx="-70" cy="337" r="5"/><circle cx="-60" cy="337" r="5"/><circle cx="-50" cy="337" r="5"/><circle cx="-70" cy="357" r="5"/><circle cx="-190" cy="327" r="5"/><circle cx="-190" cy="337" r="5"/><circle cx="-180" cy="327" r="5"/><circle cx="-170" cy="327" r="5"/><circle cx="-160" cy="327" r="5"/><circle cx="-160" cy="337" r="5"/><circle cx="-150" cy="327" r="5"/><circle cx="-100" cy="327" r="5"/><circle cx="-90" cy="327" r="5"/><circle cx="-80" cy="327" r="5"/><circle cx="-70" cy="327" r="5"/><circle cx="-60" cy="327" r="5"/></g></svg>