<?xml version="1.0" encoding="utf-8"?>
<!-- Generator: Adobe Illustrator 18.1.1, SVG Export Plug-In . SVG Version: 6.00 Build 0)  -->
<svg version="1.1" id="Layer_1" xmlns="http://www.w3.org/2000/svg" xmlns:xlink="http://www.w3.org/1999/xlink" x="0px" y="0px"
	 width="560px" height="800.9px" viewBox="0 0 595.3 841.9" enable-background="new 0 0 595.3 841.9" xml:space="preserve">
<g>
	<g>
		<path fill="#FFFFFF" d="M34.8,11.2c0-5.9,3.1-9.2,7.8-9.2s7.8,3.3,7.8,9.2c0,5.9-3.1,9.2-7.8,9.2S34.8,17.1,34.8,11.2z M37.3,11.2
			c0,4.5,1.9,7.2,5.4,7.2s5.4-2.7,5.4-7.2C48,6.7,46.1,4,42.6,4S37.3,6.7,37.3,11.2z"/>
		<path fill="#FFFFFF" d="M52.1,6.2h2.5l2.5,8c0.9,2.8,1.1,4.4,1.1,4.4h0.1c0,0,0.2-1.6,1.1-4.4l2.4-8.1h2.4L59.7,20h-2.7L52.1,6.2z
			"/>
		<path fill="#FFFFFF" d="M75.2,16.2l2,0.5c-0.5,2.8-2.8,3.7-5.4,3.7c-3.6,0-6-2.5-6-7.2c0-4.6,2.4-7.3,6.2-7.3
			c3.5,0,5.4,2.4,5.4,5.8c0,0.8-0.1,1.6-0.3,1.9H68c0.1,2.9,1.5,5,4,5C73.6,18.6,74.7,17.9,75.2,16.2z M75.1,11.8c0-0.2,0-0.4,0-0.6
			c0-1.9-1.3-3.5-3.3-3.5c-2.1,0-3.5,1.4-3.8,4.1H75.1z"/>
		<path fill="#FFFFFF" d="M88.3,8.4c-0.3-0.1-0.7-0.1-1.1-0.1c-2.1,0-3.9,1.8-3.9,4.4V20h-2.3V6.2h1.9l0.3,3.7
			c0.5-2.5,2.4-4.1,5.3-4L88.3,8.4z"/>
		<path fill="#FFFFFF" d="M107.2,6.3c-0.6-1.6-1.6-2.5-3.2-2.5c-3.1,0-4.7,3-4.7,8.7h0.1c0.5-2.5,2.2-3.8,4.5-3.8
			c3.6,0,5.7,2.5,5.7,5.7c0,3.1-2.1,5.8-6,5.8c-3.9,0-6.4-2.8-6.4-8.7c0-6.6,3.3-9.7,7-9.7c2.5,0,4.2,1.2,5.1,3.5L107.2,6.3z
			 M103.5,18.6c2.2,0,3.7-1.5,3.7-3.9c0-2.5-1.6-4-3.7-4c-2.1,0-3.7,1.5-3.7,4C99.8,17.1,101.5,18.6,103.5,18.6z"/>
		<path fill="#FFFFFF" d="M112.2,11.2c0-5.1,2.5-9.2,6.8-9.2s6.8,4.2,6.8,9.2c0,5.3-2.4,9.1-6.8,9.1
			C114.6,20.4,112.2,16.5,112.2,11.2z M114.5,11.3c0,4.1,1.7,7.3,4.5,7.3c2.8,0,4.5-3.2,4.5-7.3c0-4.2-1.7-7.3-4.5-7.3
			C116.2,4,114.5,7.1,114.5,11.3z"/>
		<path fill="#FFFFFF" d="M128.8,11.2c0-5.1,2.5-9.2,6.8-9.2s6.8,4.2,6.8,9.2c0,5.3-2.4,9.1-6.8,9.1S128.8,16.5,128.8,11.2z
			 M131.1,11.3c0,4.1,1.7,7.3,4.5,7.3c2.8,0,4.5-3.2,4.5-7.3c0-4.2-1.7-7.3-4.5-7.3C132.8,4,131.1,7.1,131.1,11.3z"/>
		<path fill="#FFFFFF" d="M144.7,23.4v-1.2c1.4-0.2,2.3-0.9,2.3-2.2c-1.2,0.2-2-0.5-2-1.5c0-1,0.7-1.7,1.8-1.7
			c1.1,0,2.1,0.9,2.1,2.4C148.9,21.9,147.3,23.2,144.7,23.4z"/>
		<path fill="#FFFFFF" d="M151.8,11.2c0-5.1,2.5-9.2,6.8-9.2s6.8,4.2,6.8,9.2c0,5.3-2.4,9.1-6.8,9.1
			C154.2,20.4,151.8,16.5,151.8,11.2z M154.1,11.3c0,4.1,1.7,7.3,4.5,7.3c2.8,0,4.5-3.2,4.5-7.3c0-4.2-1.7-7.3-4.5-7.3
			C155.8,4,154.1,7.1,154.1,11.3z"/>
		<path fill="#FFFFFF" d="M168.4,11.2c0-5.1,2.5-9.2,6.8-9.2s6.8,4.2,6.8,9.2c0,5.3-2.4,9.1-6.8,9.1S168.4,16.5,168.4,11.2z
			 M170.7,11.3c0,4.1,1.7,7.3,4.5,7.3c2.8,0,4.5-3.2,4.5-7.3c0-4.2-1.7-7.3-4.5-7.3C172.4,4,170.7,7.1,170.7,11.3z"/>
		<path fill="#FFFFFF" d="M185,11.2c0-5.1,2.5-9.2,6.8-9.2s6.8,4.2,6.8,9.2c0,5.3-2.4,9.1-6.8,9.1C187.4,20.4,185,16.5,185,11.2z
			 M187.3,11.3c0,4.1,1.7,7.3,4.5,7.3c2.8,0,4.5-3.2,4.5-7.3c0-4.2-1.7-7.3-4.5-7.3C189,4,187.3,7.1,187.3,11.3z"/>
		<path fill="#FFFFFF" d="M3.1,52.4c0.2,1.6,1.3,2.3,3.1,2.3c1.7,0,3-0.7,3-2.1c0-1.2-0.5-1.9-2.3-2.4l-2-0.5
			c-2.5-0.6-3.4-1.9-3.4-3.9c0-3,2.5-4.1,5-4.1c2.8,0,4.5,1,4.8,3.7l-2.2,0.2c-0.1-1.5-1-2.2-2.7-2.2c-1.7,0-2.7,0.8-2.7,2.1
			c0,1.1,0.4,1.8,2.1,2.2l1.9,0.5c2.3,0.6,3.8,1.6,3.8,4.1c0,2.9-2.3,4-5.2,4c-3.1,0-4.8-1-5.2-3.4L3.1,52.4z"/>
		<path fill="#FFFFFF" d="M23,53.5c-0.7,2.1-2.2,2.8-4.3,2.8c-2.5,0-4.2-1.3-4.2-4.6v-9.6h2.3v9.4c0,2.2,0.8,3.1,2.7,3.1
			c1.6,0,3.4-1.4,3.4-4.1v-8.4h2.3V56h-1.9L23,53.5z"/>
		<path fill="#FFFFFF" d="M31.1,56h-1.4V36H32v8.8c0.7-2.1,2.5-3,4.4-3c3.4,0,5.5,2.4,5.5,6.9c0,4.1-2.2,7.6-5.9,7.6
			c-2.4,0-3.7-1.1-4.2-2.4L31.1,56z M32,50.8c0,2.8,1.9,3.9,3.6,3.9c2.2,0,4-1.8,4-5.7c0-3.5-1.4-5.2-3.7-5.2
			c-2.2,0-3.9,1.6-3.9,4.3V50.8z"/>
		<path fill="#FFFFFF" d="M46.2,52.4c0.2,1.6,1.3,2.3,3.1,2.3c1.7,0,3-0.7,3-2.1c0-1.2-0.5-1.9-2.3-2.4l-2-0.5
			c-2.5-0.6-3.4-1.9-3.4-3.9c0-3,2.5-4.1,5-4.1c2.8,0,4.5,1,4.8,3.7l-2.2,0.2c-0.1-1.5-1-2.2-2.7-2.2c-1.7,0-2.7,0.8-2.7,2.1
			c0,1.1,0.4,1.8,2.1,2.2l1.9,0.5c2.3,0.6,3.8,1.6,3.8,4.1c0,2.9-2.3,4-5.2,4c-3.1,0-4.8-1-5.2-3.4L46.2,52.4z"/>
		<path fill="#FFFFFF" d="M68.1,52.6c-0.4,2.8-2.6,3.8-5.3,3.8c-3.5,0-5.9-2.5-5.9-7.2c0-4.6,2.4-7.3,6.2-7.3c2.8,0,4.7,1.5,4.9,4.3
			l-2.1,0.3c-0.3-1.8-1.3-2.7-2.9-2.7c-2.5,0-3.8,2.3-3.8,5.5c0,3.1,1.6,5.3,4,5.3c1.6,0,2.7-0.8,3.1-2.4L68.1,52.6z"/>
		<path fill="#FFFFFF" d="M78.8,44.4c-0.3-0.1-0.7-0.1-1.1-0.1c-2.1,0-3.9,1.8-3.9,4.4V56h-2.3V42.2h1.9l0.3,3.7
			c0.5-2.5,2.4-4.1,5.3-4L78.8,44.4z"/>
		<path fill="#FFFFFF" d="M82.8,36c0.9,0,1.6,0.7,1.6,1.6c0,0.9-0.8,1.6-1.6,1.6c-0.9,0-1.6-0.8-1.6-1.6C81.2,36.7,82,36,82.8,36z
			 M84,42.2V56h-2.3V42.2H84z"/>
		<path fill="#FFFFFF" d="M89.9,56h-1.4V36h2.3v8.8c0.7-2.1,2.5-3,4.4-3c3.4,0,5.5,2.4,5.5,6.9c0,4.1-2.2,7.6-5.9,7.6
			c-2.4,0-3.7-1.1-4.2-2.4L89.9,56z M90.8,50.8c0,2.8,1.9,3.9,3.6,3.9c2.2,0,4-1.8,4-5.7c0-3.5-1.4-5.2-3.7-5.2
			c-2.2,0-3.9,1.6-3.9,4.3V50.8z"/>
		<path fill="#FFFFFF" d="M112.8,52.2l2,0.5c-0.5,2.8-2.8,3.7-5.4,3.7c-3.6,0-6-2.5-6-7.2c0-4.6,2.4-7.3,6.2-7.3
			c3.5,0,5.4,2.4,5.4,5.8c0,0.8-0.1,1.6-0.3,1.9h-9.1c0.1,2.9,1.5,5,4,5C111.2,54.6,112.3,53.9,112.8,52.2z M112.7,47.8
			c0-0.2,0-0.4,0-0.6c0-1.9-1.3-3.5-3.3-3.5c-2.1,0-3.5,1.4-3.8,4.1H112.7z"/>
		<path fill="#FFFFFF" d="M125.9,44.4c-0.3-0.1-0.7-0.1-1.1-0.1c-2.1,0-3.9,1.8-3.9,4.4V56h-2.3V42.2h1.9l0.3,3.7
			c0.5-2.5,2.4-4.1,5.3-4L125.9,44.4z"/>
		<path fill="#FFFFFF" d="M129.1,52.4c0.2,1.6,1.3,2.3,3.1,2.3c1.7,0,3-0.7,3-2.1c0-1.2-0.5-1.9-2.3-2.4l-2-0.5
			c-2.5-0.6-3.4-1.9-3.4-3.9c0-3,2.5-4.1,5-4.1c2.8,0,4.5,1,4.8,3.7l-2.2,0.2c-0.1-1.5-1-2.2-2.7-2.2c-1.7,0-2.7,0.8-2.7,2.1
			c0,1.1,0.4,1.8,2.1,2.2l1.9,0.5c2.3,0.6,3.8,1.6,3.8,4.1c0,2.9-2.3,4-5.2,4c-3.1,0-4.8-1-5.2-3.4L129.1,52.4z"/>
		<path fill="#FFFFFF" d="M156.7,53.1c0,1.1,0.5,1.3,1.1,1.3c0.3,0,0.5,0,0.8-0.1v1.8c-0.3,0.1-0.7,0.2-1.2,0.2
			c-1.5,0-2.5-0.7-2.7-2.2c-0.7,1.7-2.4,2.4-4.1,2.4c-2.4,0-4.2-1.4-4.2-3.7c0-3.1,2.3-4.9,8.1-4.6v-1.9c0-1.9-1.2-2.5-2.8-2.5
			c-1.6,0-2.7,0.8-2.8,2.3l-2.1-0.3c0.2-2.9,2.8-3.9,5.2-3.9c2.4,0,4.8,1,4.8,4.2V53.1z M154.4,49.7c-4-0.1-5.8,0.8-5.8,2.7
			c0,1.3,0.8,2.2,2.4,2.2c1.6,0,3.4-1,3.4-2.7V49.7z"/>
		<path fill="#FFFFFF" d="M165.8,56.1c-0.7,0.2-1,0.2-1.5,0.2c-1.7,0-2.9-0.9-2.9-2.8V36h2.3v17.1c0,0.9,0.5,1.3,1.2,1.3
			c0.4,0,0.6-0.1,0.9-0.1V56.1z"/>
		<path fill="#FFFFFF" d="M176.4,44.4c-0.3-0.1-0.7-0.1-1.1-0.1c-2.1,0-3.9,1.8-3.9,4.4V56h-2.3V42.2h1.9l0.3,3.7
			c0.5-2.5,2.4-4.1,5.3-4L176.4,44.4z"/>
		<path fill="#FFFFFF" d="M187.1,52.2l2,0.5c-0.5,2.8-2.8,3.7-5.4,3.7c-3.6,0-6-2.5-6-7.2c0-4.6,2.4-7.3,6.2-7.3
			c3.5,0,5.4,2.4,5.4,5.8c0,0.8-0.1,1.6-0.3,1.9h-9.1c0.1,2.9,1.5,5,4,5C185.6,54.6,186.6,53.9,187.1,52.2z M187,47.8
			c0-0.2,0-0.4,0-0.6c0-1.9-1.3-3.5-3.3-3.5c-2.1,0-3.5,1.4-3.8,4.1H187z"/>
		<path fill="#FFFFFF" d="M202.4,53.1c0,1.1,0.5,1.3,1.1,1.3c0.3,0,0.5,0,0.8-0.1v1.8c-0.3,0.1-0.7,0.2-1.2,0.2
			c-1.5,0-2.5-0.7-2.7-2.2c-0.7,1.7-2.4,2.4-4.1,2.4c-2.4,0-4.2-1.4-4.2-3.7c0-3.1,2.3-4.9,8.1-4.6v-1.9c0-1.9-1.2-2.5-2.8-2.5
			c-1.6,0-2.7,0.8-2.8,2.3l-2.1-0.3c0.2-2.9,2.8-3.9,5.2-3.9c2.4,0,4.8,1,4.8,4.2V53.1z M200.1,49.7c-4-0.1-5.8,0.8-5.8,2.7
			c0,1.3,0.8,2.2,2.4,2.2c1.6,0,3.4-1,3.4-2.7V49.7z"/>
		<path fill="#FFFFFF" d="M216.1,36h2.3v20h-2l-0.3-2.4c-0.8,2.1-2.5,2.8-4.4,2.8c-2.8,0-5.5-2.3-5.5-7.1c0-4.7,2.2-7.5,6.2-7.5
			c1.8,0,3.3,1,3.7,2.2V36z M216.2,47.4c0-2.6-2-3.7-3.7-3.7c-2.2,0-4,1.5-4,5.6c0,3.4,1.5,5.3,3.9,5.3c1.6,0,3.7-1.3,3.7-4V47.4z"
			/>
		<path fill="#FFFFFF" d="M226,50.2c0.9,2.7,1.1,4.4,1.1,4.4h0.1c0,0,0.3-1.6,1.1-4.3l2.4-8.1h2.4l-5,15c-1.3,4-3.1,5.1-5.4,5.1
			c-0.6,0-1.3-0.1-1.9-0.3L221,60c0.6,0.3,1.1,0.4,1.8,0.4c1.5,0,2.4-0.9,3.3-3.6L221,42.2h2.5L226,50.2z"/>
		<path fill="#FFFFFF" d="M88,86.7c-1.1-1.7-1.3-2.2-1.3-2.2h-0.1c0,0-0.1,0.5-1.3,2.2L81.9,92h-2.6l6.1-8.9l-5.8-8.7h2.7l3.1,4.8
			c1.2,1.9,1.3,2.3,1.3,2.3h0.1c0,0,0.1-0.4,1.3-2.2l3.1-4.9h2.6L88,82.8l6.1,9.2h-2.6L88,86.7z"/>
		<path fill="#FFFFFF" d="M104.7,88.2l2,0.5c-0.5,2.8-2.8,3.7-5.4,3.7c-3.6,0-6-2.5-6-7.2c0-4.6,2.4-7.3,6.2-7.3
			c3.5,0,5.4,2.4,5.4,5.8c0,0.8-0.1,1.6-0.3,1.9h-9.1c0.1,2.9,1.5,5,4,5C103.1,90.6,104.2,89.9,104.7,88.2z M104.6,83.8
			c0-0.2,0-0.4,0-0.6c0-1.9-1.3-3.5-3.3-3.5c-2.1,0-3.5,1.4-3.8,4.1H104.6z"/>
		<path fill="#FFFFFF" d="M117.7,80.4c-0.3-0.1-0.7-0.1-1.1-0.1c-2.1,0-3.9,1.8-3.9,4.4V92h-2.3V78.2h1.9l0.3,3.7
			c0.5-2.5,2.4-4.1,5.3-4L117.7,80.4z"/>
		<path fill="#FFFFFF" d="M119.1,85c0-4.7,2.4-7.2,6.2-7.2s6.2,2.5,6.2,7.2c0,4.7-2.4,7.4-6.2,7.4S119.1,89.7,119.1,85z M121.3,85
			c0,3.7,1.3,5.6,3.9,5.6s3.9-1.9,3.9-5.6c0-3.6-1.4-5.3-3.9-5.3C122.7,79.7,121.3,81.4,121.3,85z"/>
		<path fill="#FFFFFF" d="M142.8,72c0.9,0,1.6,0.7,1.6,1.6c0,0.9-0.8,1.6-1.6,1.6c-0.9,0-1.6-0.8-1.6-1.6
			C141.2,72.7,141.9,72,142.8,72z M143.9,78.2V92h-2.3V78.2H143.9z"/>
		<path fill="#FFFFFF" d="M150.4,80.8c0.8-2.1,2.3-3,4.4-3c2.3,0,4.3,1.3,4.3,4.3V92h-2.3v-9.4c0-1.8-0.9-2.9-2.6-2.9
			c-1.8,0-3.5,1-3.5,4.1V92h-2.3V78.2h1.7L150.4,80.8z"/>
	</g>
</g>
</svg>
